<svg width="651" height="405" viewBox="0 0 651 405" fill="none" xmlns="http://www.w3.org/2000/svg">
<path d="M186.048 204.523H164.121V140.118C164.121 136.697 162.759 133.416 160.334 130.997C157.909 128.578 154.62 127.219 151.19 127.219H146.052C144.354 127.219 142.672 127.553 141.104 128.201C139.535 128.849 138.109 129.799 136.908 130.997C135.708 132.195 134.755 133.617 134.105 135.182C133.456 136.747 133.121 138.424 133.121 140.118V204.523H71.2729C70.0006 204.523 68.7498 204.195 67.642 203.571C66.5342 202.947 65.607 202.048 64.9502 200.961C64.2935 199.874 63.9296 198.636 63.8938 197.367C63.858 196.099 64.1515 194.842 64.7459 193.72L130.205 70.1395C131.021 68.5988 131.516 66.9091 131.659 65.1724C131.803 63.4357 131.592 61.6881 131.039 60.0349C130.487 58.3818 129.604 56.8575 128.445 55.554C127.285 54.2505 125.873 53.1948 124.294 52.4507L120.429 50.6306C117.429 49.2172 113.998 49.0085 110.848 50.0477C107.698 51.0868 105.068 53.2942 103.504 56.2132L23.6674 205.185C22.3079 207.721 21.5967 210.553 21.5967 213.43C21.5967 215.727 22.0502 218.001 22.9314 220.123C23.8126 222.245 25.1042 224.173 26.7324 225.797C28.3606 227.421 30.2935 228.71 32.4209 229.589C34.5483 230.468 36.8284 230.92 39.131 230.92H133.121V271.646C133.121 273.676 133.522 275.687 134.301 277.563C135.08 279.438 136.222 281.143 137.661 282.578C139.1 284.014 140.809 285.153 142.689 285.93C144.57 286.707 146.586 287.107 148.621 287.107H148.621C150.657 287.107 152.672 286.707 154.553 285.93C156.433 285.153 158.142 284.014 159.581 282.578C161.021 281.143 162.162 279.438 162.941 277.563C163.72 275.687 164.121 273.676 164.121 271.646V230.92H186.048C189.557 230.92 192.923 229.529 195.404 227.054C197.886 224.579 199.28 221.222 199.28 217.722C199.28 214.221 197.886 210.864 195.404 208.389C192.923 205.914 189.557 204.523 186.048 204.523Z" fill="#202020"/>
<path fill-rule="evenodd" clip-rule="evenodd" d="M116.798 42.2038C120.026 41.1392 123.54 41.353 126.614 42.801L130.479 44.6212C132.097 45.3835 133.544 46.4651 134.732 47.8008C135.92 49.1364 136.824 50.6983 137.39 52.3923C137.957 54.0862 138.173 55.8771 138.026 57.6567C137.879 59.4363 137.372 61.1678 136.536 62.7466L71.0764 186.327C70.5077 187.401 70.2269 188.603 70.2611 189.816C70.2954 191.03 70.6435 192.214 71.2719 193.254C71.9002 194.294 72.7875 195.155 73.8476 195.752C74.9077 196.35 76.1047 196.664 77.3224 196.664H138.853V132.576C138.853 129.07 140.249 125.709 142.733 123.23C145.218 120.752 148.588 119.359 152.102 119.359H157.239C158.979 119.359 160.702 119.701 162.309 120.365C163.917 121.03 165.377 122.003 166.608 123.23C167.838 124.457 168.814 125.914 169.48 127.518C170.146 129.121 170.489 130.84 170.489 132.576V196.664H192.097C193.877 196.664 195.639 197.013 197.282 197.692C198.926 198.372 200.42 199.367 201.678 200.622C202.936 201.877 203.935 203.367 204.616 205.007C205.297 206.647 205.647 208.405 205.647 210.18C205.647 211.955 205.297 213.713 204.616 215.353C203.935 216.992 202.936 218.482 201.678 219.738C200.42 220.993 198.926 221.988 197.282 222.667C195.638 223.347 193.877 223.696 192.097 223.696H170.489V264.104C170.489 268.289 168.822 272.303 165.855 275.262C162.889 278.221 158.865 279.883 154.671 279.883C152.593 279.883 150.537 279.475 148.617 278.682C146.698 277.889 144.955 276.727 143.486 275.262C142.017 273.797 140.852 272.057 140.057 270.143C139.262 268.228 138.853 266.176 138.853 264.104V223.696H45.1805C40.446 223.696 35.9053 221.82 32.5572 218.481C29.2092 215.141 27.3281 210.611 27.3281 205.888C27.3281 202.959 28.0524 200.076 29.4366 197.493L109.273 48.5211C110.876 45.5301 113.57 43.2684 116.798 42.2038ZM126.343 43.3764C123.416 41.9978 120.07 41.7942 116.997 42.8078C113.924 43.8214 111.359 45.9746 109.834 48.8215L29.9972 197.793C28.6624 200.284 27.9641 203.064 27.9641 205.888C27.9641 210.442 29.7778 214.81 33.0064 218.03C36.235 221.251 40.6141 223.06 45.1805 223.06H139.489V264.104C139.489 266.093 139.881 268.062 140.644 269.899C141.407 271.736 142.525 273.405 143.935 274.811C145.345 276.218 147.018 277.333 148.86 278.094C150.702 278.855 152.677 279.247 154.671 279.247C158.697 279.247 162.559 277.651 165.406 274.811C168.253 271.972 169.853 268.12 169.853 264.104V223.06H192.097C193.793 223.06 195.473 222.727 197.039 222.08C198.606 221.432 200.03 220.483 201.229 219.287C202.428 218.091 203.379 216.671 204.028 215.109C204.677 213.546 205.011 211.871 205.011 210.18C205.011 208.488 204.677 206.814 204.028 205.251C203.379 203.688 202.428 202.269 201.229 201.072C200.03 199.876 198.606 198.928 197.039 198.28C195.473 197.633 193.793 197.3 192.097 197.3H169.853V132.576C169.853 130.924 169.526 129.288 168.893 127.762C168.259 126.236 167.33 124.849 166.159 123.681C164.987 122.512 163.597 121.586 162.067 120.953C160.536 120.321 158.896 119.996 157.239 119.996H152.102C148.756 119.996 145.548 121.321 143.183 123.681C140.817 126.04 139.489 129.24 139.489 132.576V197.3H77.3224C75.9954 197.3 74.6909 196.957 73.5354 196.306C72.3799 195.655 71.4126 194.717 70.7275 193.583C70.0424 192.449 69.6627 191.158 69.6254 189.834C69.588 188.511 69.8942 187.2 70.5143 186.029L135.974 62.4489C136.77 60.9462 137.252 59.2982 137.392 57.6044C137.532 55.9106 137.326 54.2062 136.787 52.5939C136.248 50.9816 135.388 49.4949 134.257 48.2235C133.126 46.9521 131.748 45.9224 130.208 45.1965L126.343 43.3764Z" fill="#202020"/>
<path d="M619.226 202.678H597.299V138.272C597.299 134.851 595.936 131.571 593.511 129.152C591.086 126.733 587.797 125.374 584.368 125.374H579.23C577.532 125.374 575.85 125.707 574.281 126.356C572.713 127.004 571.287 127.954 570.086 129.152C568.885 130.349 567.933 131.771 567.283 133.336C566.633 134.901 566.299 136.578 566.299 138.272V202.678H504.451C503.178 202.678 501.928 202.35 500.82 201.726C499.712 201.101 498.785 200.202 498.128 199.115C497.471 198.028 497.107 196.79 497.071 195.522C497.036 194.253 497.329 192.997 497.924 191.875L563.383 68.294C564.199 66.7532 564.694 65.0635 564.837 63.3268C564.98 61.5901 564.77 59.8425 564.217 58.1894C563.665 56.5362 562.782 55.0119 561.623 53.7084C560.463 52.4049 559.051 51.3492 557.471 50.6051L553.607 48.785C550.607 47.3716 547.176 47.163 544.026 48.2021C540.875 49.2412 538.246 51.4486 536.682 54.3676L456.845 203.339C455.486 205.876 454.774 208.708 454.774 211.584C454.774 216.223 456.622 220.672 459.91 223.952C463.198 227.232 467.658 229.074 472.309 229.074H566.299V269.8C566.299 273.901 567.932 277.833 570.839 280.733C573.745 283.632 577.688 285.261 581.799 285.261C585.91 285.261 589.852 283.632 592.759 280.733C595.666 277.833 597.299 273.901 597.299 269.8V229.074H619.226C622.735 229.074 626.1 227.684 628.582 225.209C631.063 222.734 632.457 219.376 632.457 215.876C632.457 212.376 631.063 209.019 628.582 206.544C626.1 204.068 622.735 202.678 619.226 202.678Z" fill="#202020"/>
<path fill-rule="evenodd" clip-rule="evenodd" d="M555.268 40.3582C558.495 39.2936 562.01 39.5074 565.084 40.9554L568.948 42.7756C570.567 43.5379 572.014 44.6196 573.202 45.9552C574.39 47.2908 575.294 48.8527 575.86 50.5467C576.426 52.2407 576.642 54.0315 576.496 55.8111C576.349 57.5908 575.842 59.3222 575.005 60.901L509.546 184.482C508.977 185.555 508.697 186.757 508.731 187.971C508.765 189.185 509.113 190.369 509.742 191.409C510.37 192.449 511.257 193.309 512.317 193.907C513.377 194.504 514.574 194.818 515.792 194.818H577.322V130.73C577.322 128.995 577.665 127.276 578.331 125.672C578.997 124.069 579.973 122.612 581.203 121.385C582.433 120.157 583.894 119.184 585.501 118.52C587.109 117.856 588.832 117.514 590.571 117.514H595.709C599.223 117.514 602.593 118.906 605.077 121.385C607.562 123.863 608.958 127.225 608.958 130.73V194.818H630.567C634.16 194.818 637.607 196.242 640.148 198.777C642.689 201.311 644.117 204.749 644.117 208.334C644.117 210.109 643.766 211.867 643.085 213.507C642.404 215.147 641.406 216.637 640.148 217.892C638.89 219.147 637.396 220.143 635.752 220.822C634.108 221.501 632.346 221.851 630.567 221.851H608.958V262.259C608.958 266.444 607.291 270.457 604.325 273.416C601.358 276.375 597.335 278.037 593.14 278.037C588.945 278.037 584.922 276.375 581.956 273.416C578.989 270.457 577.322 266.444 577.322 262.259V221.851H483.65C478.916 221.851 474.375 219.975 471.027 216.635C467.679 213.295 465.798 208.766 465.798 204.043C465.798 201.114 466.522 198.23 467.906 195.647L547.743 46.6755C549.346 43.6845 552.04 41.4228 555.268 40.3582ZM564.813 41.5308C561.886 40.1522 558.54 39.9486 555.467 40.9622C552.394 41.9759 549.829 44.129 548.303 46.9759L468.467 195.947C467.132 198.438 466.434 201.218 466.434 204.043C466.434 208.597 468.248 212.964 471.476 216.185C474.705 219.405 479.084 221.214 483.65 221.214H577.958V262.259C577.958 266.274 579.558 270.126 582.405 272.966C585.252 275.806 589.113 277.401 593.14 277.401C597.167 277.401 601.029 275.806 603.876 272.966C606.723 270.126 608.322 266.274 608.322 262.259V221.214H630.567C632.263 221.214 633.942 220.881 635.509 220.234C637.076 219.587 638.5 218.638 639.699 217.442C640.898 216.246 641.849 214.826 642.498 213.263C643.147 211.7 643.481 210.026 643.481 208.334C643.481 204.918 642.12 201.642 639.699 199.227C637.277 196.811 633.992 195.454 630.567 195.454H608.322V130.73C608.322 127.394 606.994 124.194 604.628 121.835C602.263 119.476 599.055 118.15 595.709 118.15H590.571C588.915 118.15 587.275 118.475 585.744 119.108C584.214 119.74 582.823 120.667 581.652 121.835C580.481 123.003 579.552 124.39 578.918 125.916C578.284 127.443 577.958 129.078 577.958 130.73V195.454H515.792C514.465 195.454 513.161 195.112 512.005 194.461C510.85 193.81 509.882 192.872 509.197 191.738C508.512 190.604 508.132 189.312 508.095 187.989C508.058 186.665 508.364 185.355 508.984 184.184L574.443 60.6033C575.239 59.1006 575.722 57.4526 575.862 55.7588C576.001 54.0651 575.796 52.3606 575.257 50.7483C574.718 49.136 573.857 47.6493 572.726 46.3779C571.596 45.1065 570.218 44.0768 568.677 43.351L564.813 41.5308Z" fill="#202020"/>
<path d="M475.448 85.8305C492.539 85.8305 506.393 72.052 506.393 55.0553C506.393 38.0587 492.539 24.2802 475.448 24.2802C458.358 24.2802 444.504 38.0587 444.504 55.0553C444.504 72.052 458.358 85.8305 475.448 85.8305Z" fill="#202020"/>
<path d="M487.4 94.4721L496.65 92.8066L493.65 76.3235L484.399 77.9889L487.4 94.4721Z" fill="#202020"/>
<path d="M468.899 97.8033L478.149 96.1378L475.149 79.6547L465.899 81.3202L468.899 97.8033Z" fill="#202020"/>
<path d="M472.775 101.494C476.077 98.7135 477.904 95.4609 476.855 94.2296C475.807 92.9982 472.28 94.2544 468.978 97.0352C465.677 99.8161 463.85 103.069 464.899 104.3C465.947 105.531 469.474 104.275 472.775 101.494Z" fill="#202020"/>
<path d="M491.775 98.4943C495.077 95.7134 496.904 92.4609 495.855 91.2296C494.806 89.9982 491.28 91.2543 487.978 94.0352C484.677 96.8161 482.85 100.069 483.899 101.3C484.947 102.531 488.474 101.275 491.775 98.4943Z" fill="#202020"/>
<path d="M473.282 58.0457C479.123 58.0457 483.858 53.3365 483.858 47.5275C483.858 41.7185 479.123 37.0094 473.282 37.0094C467.441 37.0094 462.706 41.7185 462.706 47.5275C462.706 53.3365 467.441 58.0457 473.282 58.0457Z" fill="white"/>
<path d="M468.935 47.2636C470.882 47.2636 472.46 45.6939 472.46 43.7575C472.46 41.8212 470.882 40.2515 468.935 40.2515C466.988 40.2515 465.409 41.8212 465.409 43.7575C465.409 45.6939 466.988 47.2636 468.935 47.2636Z" fill="#202020"/>
<path d="M499.859 21.5757C500.324 10.1822 490.451 0.531939 477.806 0.0211104C465.161 -0.489718 454.533 8.33237 454.067 19.7258C453.602 31.1192 462.392 33.7079 475.037 34.2188C487.682 34.7296 499.394 32.9691 499.859 21.5757Z" fill="#0081A7" fill-opacity="0.7"/>
<path d="M461.957 52.8869C462.556 50.2865 456.29 46.6392 447.961 44.7405C439.631 42.8418 432.394 43.4106 431.794 46.0111C431.195 48.6115 437.461 52.2588 445.79 54.1575C454.119 56.0562 461.357 55.4874 461.957 52.8869Z" fill="#202020"/>
<path d="M522.699 62.9326C523.298 60.3322 517.032 56.6849 508.703 54.7862C500.374 52.8874 493.136 53.4563 492.536 56.0568C491.937 58.6572 498.203 62.3045 506.532 64.2032C514.861 66.1019 522.099 65.5331 522.699 62.9326Z" fill="#202020"/>
<path d="M483.947 67.1831C484.112 68.0894 484.097 69.0193 483.901 69.9197C483.705 70.82 483.332 71.6731 482.805 72.4303C482.277 73.1874 481.605 73.8338 480.826 74.3324C480.047 74.831 479.177 75.1721 478.266 75.3362C477.354 75.5003 476.419 75.4842 475.514 75.2887C474.609 75.0933 473.751 74.7225 472.99 74.1973C472.229 73.6721 471.58 73.003 471.079 72.2281C470.578 71.4532 470.235 70.5878 470.071 69.6812C469.377 65.8705 472.34 64.522 476.172 63.8322C480.003 63.1424 483.253 63.3724 483.947 67.1831Z" fill="white"/>
<path d="M325.5 404.903C505.269 404.903 651 395.28 651 383.409C651 371.538 505.269 361.915 325.5 361.915C145.731 361.915 0 371.538 0 383.409C0 395.28 145.731 404.903 325.5 404.903Z" fill="#E3E9EE"/>
<path d="M379.423 330.536L389.816 324.039C390.326 318.284 390.51 312.504 390.366 306.728L384.987 308.06L390.308 304.734C390.059 297.593 389.439 292.88 389.439 292.88C389.439 292.88 368.425 306.276 354.964 324.525L357.146 340.039L351.783 329.166C350.381 331.369 349.119 333.657 348.006 336.017C336.862 359.848 335.654 382.787 345.308 387.252C354.962 391.717 371.822 376.018 382.966 352.187C386.421 344.799 388.355 336.292 389.38 328.07L379.423 330.536Z" fill="#909AA4"/>
<path d="M400.549 353.73L412.822 353.511C416.25 348.847 419.412 343.993 422.291 338.975L416.994 337.35L423.278 337.238C426.776 330.997 428.695 326.644 428.695 326.644C428.695 326.644 403.743 327.309 382.735 336.01L376.54 350.414L377.6 338.349C375.255 339.514 372.986 340.824 370.806 342.272C348.88 356.943 335.923 375.959 341.867 384.744C347.81 393.53 370.403 388.758 392.329 374.086C399.127 369.537 405.203 363.249 410.354 356.738L400.549 353.73Z" fill="#BFCBD3"/>
<path opacity="0.2" d="M347.785 124.909C347.785 123.355 347.164 121.865 346.059 120.766C344.954 119.667 343.455 119.049 341.893 119.049C340.33 119.049 338.831 119.667 337.726 120.766C336.621 121.865 336 123.355 336 124.909V387.628C336 389.182 336.621 390.673 337.726 391.772C338.831 392.871 340.33 393.488 341.893 393.488C343.455 393.488 344.954 392.871 346.059 391.772C347.164 390.673 347.785 389.182 347.785 387.628V126.611" fill="#56626E"/>
<path d="M419.978 138.852C409.626 119.436 392.356 104.564 371.553 97.1525C350.75 89.7406 327.914 90.3225 307.52 98.784C287.126 107.246 270.645 122.977 261.306 142.894C251.967 162.812 250.445 185.48 257.036 206.456H268.033C270.243 206.456 272.055 208.903 272.055 211.899H274.073C276.29 211.899 278.102 214.346 278.102 217.342C278.102 220.331 276.29 222.785 274.073 222.785H272.055C272.05 223.24 272.003 223.693 271.915 224.14H281.122C283.339 224.14 285.151 226.594 285.151 229.582C285.151 232.578 283.339 235.025 281.122 235.025H272.327C286.094 252.186 305.804 263.621 327.601 267.092C349.398 270.563 371.713 265.82 390.179 253.792C408.645 241.764 421.934 223.316 427.446 202.057C432.957 180.799 430.294 158.26 419.978 138.852H419.978ZM359.683 211.914C354.173 215.008 347.95 216.629 341.623 216.617C340.356 216.616 339.09 216.553 337.829 216.426C329.118 215.521 321.018 211.548 314.994 205.225C308.969 198.901 305.416 190.644 304.975 181.944C304.535 173.244 307.237 164.674 312.592 157.78C317.948 150.887 325.605 146.126 334.182 144.355C342.758 142.584 351.688 143.921 359.36 148.124C367.033 152.327 372.941 159.119 376.02 167.275C379.098 175.43 379.144 184.411 376.148 192.597C373.152 200.783 367.312 207.634 359.683 211.914Z" fill="#202020"/>
<path opacity="0.2" d="M285.373 227.753C285.532 227.155 285.614 226.54 285.614 225.921C285.614 222.928 283.801 220.48 281.585 220.48H277.817C277.535 221.126 277.079 221.683 276.501 222.089C275.922 222.495 275.242 222.735 274.535 222.782H272.521C272.517 223.239 272.469 223.695 272.377 224.142H281.585C283.325 224.142 284.812 225.655 285.373 227.753Z" fill="black"/>
<path opacity="0.2" d="M274.536 211.898C276.276 211.898 277.763 213.411 278.323 215.509C278.483 214.911 278.564 214.296 278.565 213.677C278.565 210.685 276.752 208.236 274.536 208.236H272.522C272.522 205.243 270.709 202.794 268.493 202.794H257.5C254.993 194.803 253.645 186.498 253.496 178.129C253.481 178.78 253.463 179.431 253.463 180.086C253.455 189.029 254.816 197.921 257.5 206.457H268.493C270.709 206.457 272.522 208.906 272.522 211.898H274.536Z" fill="black"/>
<path opacity="0.2" d="M342.089 264.565C329.582 264.579 317.215 261.953 305.804 256.86C294.393 251.768 284.199 244.326 275.894 235.026H272.787C284.242 249.318 299.882 259.716 317.541 264.779C335.2 269.842 354.005 269.32 371.352 263.285C388.7 257.25 403.732 246.001 414.367 231.095C425.003 216.189 430.716 198.364 430.715 180.086C430.715 179.535 430.7 178.988 430.69 178.439C430.161 201.46 420.594 223.362 404.035 239.457C387.477 255.553 365.243 264.565 342.089 264.565Z" fill="black"/>
<path opacity="0.2" d="M342.086 136.229C333.365 136.231 324.84 138.804 317.589 143.624C310.338 148.444 304.687 155.294 301.351 163.308C298.014 171.322 297.142 180.14 298.844 188.646C300.547 197.153 304.747 204.967 310.915 211.1C317.082 217.232 324.94 221.409 333.494 223.1C342.047 224.792 350.914 223.923 358.971 220.603C367.028 217.284 373.915 211.663 378.76 204.451C383.605 197.239 386.192 188.76 386.192 180.086C386.178 168.457 381.526 157.309 373.258 149.087C364.989 140.865 353.779 136.241 342.086 136.229ZM360.147 211.914C354.637 215.009 348.414 216.629 342.086 216.617C340.82 216.617 339.554 216.553 338.293 216.427C329.581 215.521 321.482 211.548 315.457 205.225C309.433 198.902 305.879 190.645 305.439 181.944C304.999 173.244 307.7 164.674 313.056 157.781C318.412 150.888 326.069 146.126 334.645 144.355C343.222 142.584 352.152 143.921 359.824 148.124C367.496 152.327 373.405 159.119 376.484 167.275C379.562 175.431 379.607 184.412 376.612 192.598C373.616 200.784 367.776 207.635 360.147 211.914Z" fill="#56626E"/>
<path d="M420.44 137.388V152.051C420.441 153.121 420.12 154.167 419.517 155.055C418.915 155.942 418.059 156.629 417.061 157.029C416.062 157.428 414.966 157.521 413.914 157.295C412.861 157.07 411.901 156.536 411.157 155.763V157.434C411.157 159.123 410.482 160.743 409.281 161.937C408.08 163.132 406.451 163.803 404.752 163.803C403.054 163.803 401.425 163.132 400.224 161.937C399.023 160.743 398.348 159.123 398.348 157.434V156.041C397.573 156.734 396.613 157.189 395.584 157.35C394.555 157.512 393.5 157.373 392.549 156.951C391.597 156.528 390.789 155.841 390.223 154.971C389.656 154.101 389.356 153.087 389.357 152.051L389.1 136.466V132.871C389.1 132.295 388.87 131.743 388.46 131.336C388.051 130.929 387.496 130.7 386.916 130.7C386.337 130.7 385.782 130.929 385.372 131.336C384.963 131.743 384.733 132.295 384.733 132.871V136.466L384.476 149.496C384.476 150.919 383.908 152.283 382.896 153.289C381.884 154.296 380.512 154.861 379.081 154.861C377.651 154.861 376.278 154.296 375.267 153.289C374.255 152.283 373.687 150.919 373.687 149.496L373.026 136.466V129.806C373.026 128.862 372.649 127.957 371.978 127.289C371.307 126.622 370.397 126.247 369.448 126.247C368.499 126.247 367.589 126.622 366.918 127.289C366.246 127.957 365.869 128.862 365.869 129.806V136.466L365.466 149.496C365.467 150.612 365.118 151.7 364.467 152.609C363.816 153.518 362.897 154.202 361.836 154.567C360.776 154.931 359.628 154.958 358.551 154.642C357.475 154.327 356.525 153.685 355.833 152.807C354.98 153.892 353.739 154.607 352.368 154.805C350.998 155.003 349.604 154.668 348.475 153.87V157.434C348.475 159.123 347.801 160.743 346.6 161.937C345.399 163.132 343.77 163.803 342.071 163.803C340.373 163.803 338.744 163.132 337.543 161.937C336.342 160.743 335.667 159.123 335.667 157.434V146.43C335.667 147.657 335.245 148.848 334.469 149.802C333.693 150.757 332.612 151.418 331.405 151.676C330.199 151.933 328.94 151.771 327.839 151.217C326.738 150.662 325.861 149.749 325.355 148.63V157.434C325.354 159.122 324.678 160.74 323.477 161.933C322.276 163.126 320.648 163.796 318.951 163.796C317.254 163.796 315.626 163.126 314.425 161.933C313.224 160.74 312.549 159.122 312.547 157.434V136.466H312.511V157.434C312.511 159.123 311.836 160.743 310.635 161.937C309.434 163.132 307.805 163.803 306.107 163.803C304.408 163.803 302.779 163.132 301.578 161.937C300.377 160.743 299.702 159.123 299.702 157.434V148.704C299.183 149.809 298.3 150.705 297.199 151.244C296.098 151.783 294.845 151.932 293.647 151.667C292.45 151.402 291.379 150.739 290.611 149.786C289.844 148.834 289.426 147.65 289.427 146.43V136.466H288.877V154.368C288.877 156.057 288.202 157.677 287.001 158.872C285.8 160.066 284.171 160.737 282.473 160.737C280.774 160.737 279.145 160.066 277.944 158.872C276.743 157.677 276.069 156.057 276.069 154.368V146.43C276.069 147.853 275.5 149.218 274.489 150.224C273.477 151.23 272.105 151.795 270.674 151.795C269.243 151.795 267.871 151.23 266.859 150.224C265.848 149.218 265.279 147.853 265.279 146.43V134.619C273.191 120.968 284.637 109.675 298.425 101.915C312.213 94.1544 327.841 90.2105 343.681 90.4932C359.522 90.7759 374.997 95.275 388.496 103.522C401.995 111.77 413.026 123.464 420.44 137.388Z" fill="#E3E9EE"/>
<path d="M306.106 160.737C305.265 160.737 304.433 160.573 303.655 160.252C302.878 159.932 302.172 159.463 301.578 158.872C300.983 158.28 300.511 157.578 300.19 156.805C299.868 156.033 299.702 155.204 299.702 154.368V157.689C299.702 159.378 300.377 160.998 301.578 162.193C302.779 163.387 304.408 164.058 306.106 164.058C307.805 164.058 309.434 163.387 310.635 162.193C311.836 160.998 312.511 159.378 312.511 157.689V154.368C312.511 155.204 312.345 156.033 312.023 156.805C311.701 157.578 311.23 158.28 310.635 158.872C310.04 159.463 309.334 159.932 308.557 160.252C307.78 160.573 306.947 160.737 306.106 160.737Z" fill="#909AA4"/>
<path d="M318.951 160.737C318.11 160.737 317.277 160.573 316.5 160.252C315.723 159.932 315.017 159.463 314.422 158.872C313.828 158.28 313.356 157.578 313.034 156.805C312.712 156.033 312.547 155.204 312.547 154.368V157.689C312.547 159.378 313.222 160.998 314.423 162.193C315.624 163.387 317.253 164.058 318.951 164.058C320.65 164.058 322.279 163.387 323.48 162.193C324.681 160.998 325.355 159.378 325.355 157.689V154.368C325.355 155.204 325.19 156.033 324.868 156.805C324.546 157.578 324.074 158.28 323.48 158.872C322.885 159.463 322.179 159.932 321.402 160.252C320.625 160.573 319.792 160.737 318.951 160.737Z" fill="#909AA4"/>
<path d="M299.702 145.638C299.183 146.744 298.3 147.64 297.199 148.178C296.098 148.717 294.845 148.866 293.647 148.601C292.449 148.336 291.379 147.673 290.611 146.721C289.844 145.769 289.426 144.585 289.427 143.364V146.686C289.426 147.906 289.844 149.09 290.611 150.042C291.379 150.994 292.449 151.658 293.647 151.923C294.845 152.188 296.098 152.039 297.199 151.5C298.3 150.961 299.183 150.065 299.702 148.959V145.638Z" fill="#909AA4"/>
<path opacity="0.2" d="M312.547 133.4H312.511V136.721H312.547V133.4Z" fill="black"/>
<path d="M276.069 143.364C276.069 144.787 275.5 146.152 274.489 147.158C273.477 148.164 272.105 148.729 270.674 148.729C269.243 148.729 267.871 148.164 266.859 147.158C265.848 146.152 265.279 144.787 265.279 143.364V146.686C265.279 148.108 265.848 149.473 266.859 150.479C267.871 151.485 269.243 152.051 270.674 152.051C272.105 152.051 273.477 151.485 274.489 150.479C275.5 149.473 276.069 148.108 276.069 146.686V143.364Z" fill="#909AA4"/>
<path opacity="0.2" d="M289.427 133.4H288.877V136.721H289.427V133.4Z" fill="black"/>
<path d="M282.473 157.671C281.632 157.671 280.799 157.506 280.022 157.186C279.245 156.866 278.539 156.397 277.944 155.806C277.349 155.214 276.878 154.512 276.556 153.739C276.234 152.966 276.068 152.138 276.068 151.302V154.623C276.068 156.312 276.743 157.932 277.944 159.127C279.145 160.321 280.774 160.992 282.473 160.992C284.171 160.992 285.8 160.321 287.001 159.127C288.202 157.932 288.877 156.312 288.877 154.623V151.302C288.877 152.138 288.711 152.966 288.39 153.739C288.068 154.512 287.596 155.214 287.001 155.806C286.407 156.397 285.701 156.866 284.923 157.186C284.146 157.506 283.314 157.671 282.473 157.671Z" fill="#909AA4"/>
<path d="M342.071 160.737C341.23 160.737 340.397 160.573 339.62 160.252C338.843 159.932 338.137 159.463 337.543 158.872C336.948 158.28 336.476 157.578 336.154 156.805C335.833 156.033 335.667 155.204 335.667 154.368V157.689C335.667 159.378 336.342 160.998 337.543 162.193C338.744 163.387 340.373 164.058 342.071 164.058C343.77 164.058 345.399 163.387 346.6 162.193C347.801 160.998 348.476 159.378 348.476 157.689V154.368C348.476 155.204 348.31 156.033 347.988 156.805C347.666 157.578 347.195 158.28 346.6 158.872C346.005 159.463 345.299 159.932 344.522 160.252C343.745 160.573 342.912 160.737 342.071 160.737Z" fill="#909AA4"/>
<path opacity="0.2" d="M389.099 129.805C389.099 129.229 388.869 128.677 388.46 128.27C388.05 127.863 387.495 127.634 386.916 127.634C386.337 127.634 385.781 127.863 385.372 128.27C384.962 128.677 384.732 129.229 384.732 129.805V133.127C384.732 132.551 384.962 131.998 385.372 131.591C385.781 131.184 386.337 130.955 386.916 130.955C387.495 130.955 388.05 131.184 388.46 131.591C388.869 131.998 389.099 132.551 389.099 133.127V129.805Z" fill="black"/>
<path d="M335.667 143.364C335.668 144.592 335.245 145.782 334.469 146.737C333.694 147.691 332.612 148.353 331.405 148.61C330.199 148.868 328.94 148.706 327.839 148.151C326.738 147.597 325.861 146.684 325.355 145.564V148.885C325.861 150.005 326.738 150.918 327.839 151.472C328.94 152.027 330.199 152.189 331.405 151.931C332.612 151.674 333.694 151.013 334.469 150.058C335.245 149.103 335.668 147.913 335.667 146.686V143.364Z" fill="#909AA4"/>
<path d="M379.081 151.795C378.373 151.795 377.671 151.656 377.017 151.387C376.362 151.117 375.767 150.722 375.266 150.224C374.765 149.726 374.368 149.134 374.097 148.483C373.826 147.832 373.687 147.134 373.687 146.43L373.026 133.4V136.721L373.687 149.751C373.687 151.174 374.255 152.539 375.267 153.545C376.278 154.551 377.65 155.116 379.081 155.116C380.512 155.116 381.884 154.551 382.896 153.545C383.908 152.539 384.476 151.174 384.476 149.751L384.733 136.721V133.4L384.476 146.43C384.476 147.134 384.337 147.832 384.065 148.483C383.794 149.134 383.397 149.726 382.896 150.224C382.395 150.722 381.8 151.117 381.146 151.387C380.491 151.656 379.79 151.795 379.081 151.795Z" fill="#909AA4"/>
<path d="M415.045 154.35C414.318 154.35 413.599 154.204 412.93 153.92C412.262 153.635 411.658 153.219 411.156 152.697V154.368C411.156 156.057 410.481 157.677 409.28 158.871C408.079 160.066 406.45 160.737 404.752 160.737C403.053 160.737 401.424 160.066 400.223 158.871C399.022 157.677 398.348 156.057 398.348 154.368V152.975C397.573 153.668 396.613 154.123 395.584 154.284C394.554 154.446 393.5 154.307 392.549 153.885C391.597 153.462 390.789 152.775 390.223 151.905C389.656 151.035 389.355 150.021 389.356 148.985L389.1 133.4V136.721L389.356 152.306C389.355 153.342 389.656 154.357 390.223 155.226C390.789 156.096 391.597 156.784 392.549 157.206C393.5 157.628 394.554 157.767 395.584 157.606C396.613 157.444 397.573 156.99 398.348 156.297V157.689C398.348 159.378 399.022 160.998 400.223 162.193C401.424 163.387 403.053 164.058 404.752 164.058C406.45 164.058 408.079 163.387 409.28 162.193C410.481 160.998 411.156 159.378 411.156 157.689V156.018C411.901 156.791 412.861 157.325 413.913 157.551C414.965 157.776 416.061 157.683 417.06 157.284C418.059 156.885 418.915 156.197 419.517 155.31C420.119 154.423 420.441 153.376 420.44 152.306V148.985C420.44 149.689 420.301 150.387 420.03 151.038C419.759 151.689 419.361 152.28 418.86 152.779C418.359 153.277 417.765 153.672 417.11 153.942C416.455 154.211 415.754 154.35 415.045 154.35Z" fill="#909AA4"/>
<path d="M360.072 151.795C359.255 151.795 358.448 151.61 357.714 151.254C356.98 150.898 356.336 150.381 355.833 149.741C354.98 150.826 353.739 151.541 352.368 151.739C350.998 151.937 349.604 151.602 348.476 150.804V154.125C349.604 154.923 350.998 155.259 352.368 155.061C353.739 154.863 354.98 154.147 355.833 153.062C356.525 153.94 357.475 154.582 358.552 154.897C359.628 155.213 360.776 155.187 361.836 154.822C362.897 154.458 363.817 153.773 364.467 152.864C365.118 151.955 365.467 150.867 365.466 149.751L365.87 136.721V133.4L365.466 146.43C365.466 147.134 365.327 147.832 365.056 148.483C364.785 149.134 364.387 149.725 363.886 150.224C363.385 150.722 362.791 151.117 362.136 151.387C361.482 151.656 360.78 151.795 360.072 151.795Z" fill="#909AA4"/>
<path opacity="0.2" d="M373.026 126.74C373.026 125.796 372.649 124.891 371.978 124.223C371.307 123.556 370.397 123.181 369.448 123.181C368.499 123.181 367.588 123.556 366.917 124.223C366.246 124.891 365.869 125.796 365.869 126.74V130.061C365.869 129.117 366.246 128.212 366.917 127.545C367.588 126.877 368.499 126.502 369.448 126.502C370.397 126.502 371.307 126.877 371.978 127.545C372.649 128.212 373.026 129.117 373.026 130.061V126.74Z" fill="black"/>
<path d="M313.189 127.396H311.904V134.295H313.189V127.396Z" fill="#3F3D56"/>
<path d="M337.465 123.692H336.181V130.59H337.465V123.692Z" fill="#3F3D56"/>
<path d="M405.283 127.78H403.999V134.678H405.283V127.78Z" fill="#3F3D56"/>
<path d="M306.638 150.773H305.354V157.671H306.638V150.773Z" fill="#3F3D56"/>
<path d="M359.105 138.72L358.049 137.993L354.102 143.666L355.159 144.392L359.105 138.72Z" fill="#3F3D56"/>
<path d="M291.087 127.821L290.29 128.823L295.729 133.103L296.526 132.102L291.087 127.821Z" fill="#3F3D56"/>
<path d="M366.612 102.017L365.815 103.019L371.255 107.299L372.052 106.297L366.612 102.017Z" fill="#3F3D56"/>
<path d="M276.957 134.977L276.16 135.979L281.599 140.259L282.396 139.258L276.957 134.977Z" fill="#3F3D56"/>
<path d="M317.942 111.173H316.657V118.071H317.942V111.173Z" fill="white"/>
<path d="M282.747 146.685H281.463V153.583H282.747V146.685Z" fill="white"/>
<path d="M342.86 101.209H341.575V108.107H342.86V101.209Z" fill="white"/>
<path d="M404.513 144.386H403.229V151.284H404.513V144.386Z" fill="white"/>
<path d="M349.998 125.366L348.85 124.794L345.739 130.959L346.887 131.532L349.998 125.366Z" fill="white"/>
<path d="M344.089 150.915L342.941 150.342L339.831 156.508L340.979 157.08L344.089 150.915Z" fill="white"/>
<path d="M414.991 139.418L413.843 138.845L410.732 145.011L411.88 145.583L414.991 139.418Z" fill="white"/>
<path d="M326.433 136.894L325.581 137.849L330.771 142.426L331.623 141.47L326.433 136.894Z" fill="white"/>
<path d="M301.001 107.002L300.149 107.958L305.339 112.534L306.191 111.578L301.001 107.002Z" fill="white"/>
<path d="M385.518 118.499L384.666 119.455L389.856 124.031L390.708 123.075L385.518 118.499Z" fill="white"/>
<path d="M354.434 96.0166L353.582 96.9724L358.772 101.549L359.624 100.593L354.434 96.0166Z" fill="white"/>
<path d="M327.703 123.692H326.419V130.59H327.703V123.692Z" fill="#FF6584"/>
<path d="M400.166 128.048L398.983 127.549L396.273 133.898L397.455 134.398L400.166 128.048Z" fill="#FF6584"/>
<path d="M301.993 134.82L300.881 135.459L304.349 141.433L305.461 140.794L301.993 134.82Z" fill="#FF6584"/>
<path d="M375.463 129.966L374.351 130.605L377.819 136.579L378.931 135.94L375.463 129.966Z" fill="#FF6584"/>
<path d="M329.736 104.673L328.624 105.312L332.092 111.286L333.204 110.647L329.736 104.673Z" fill="#FF6584"/>
<path d="M384.196 103.396L383.084 104.035L386.552 110.009L387.664 109.37L384.196 103.396Z" fill="#FF6584"/>
<path d="M313.552 97.7755L312.439 98.4142L315.907 104.388L317.02 103.749L313.552 97.7755Z" fill="#FF6584"/>
<path d="M359.814 109.896H358.529V116.794H359.814V109.896Z" fill="#FF6584"/>
<path d="M285.83 121.392H284.546V128.291H285.83V121.392Z" fill="#FF6584"/>
<path d="M269.643 301.272C272.084 301.272 274.062 299.304 274.062 296.877C274.062 294.45 272.084 292.482 269.643 292.482C267.202 292.482 265.224 294.45 265.224 296.877C265.224 299.304 267.202 301.272 269.643 301.272Z" fill="#202020"/>
<path d="M281.68 265.792C284.121 265.792 286.099 263.824 286.099 261.396C286.099 258.969 284.121 257.001 281.68 257.001C279.239 257.001 277.261 258.969 277.261 261.396C277.261 263.824 279.239 265.792 281.68 265.792Z" fill="#202020"/>
<path d="M270.674 247.655C273.115 247.655 275.094 245.687 275.094 243.26C275.094 240.833 273.115 238.865 270.674 238.865C268.233 238.865 266.255 240.833 266.255 243.26C266.255 245.687 268.233 247.655 270.674 247.655Z" fill="#202020"/>
<path d="M232.524 366.297L234.901 374.849L250.308 370.613L247.931 362.061L232.524 366.297Z" fill="#202020"/>
<path d="M233.591 376.358C235.076 375.95 235.392 372.428 234.298 368.492C233.204 364.556 231.114 361.696 229.63 362.104C228.146 362.512 227.829 366.034 228.923 369.97C230.017 373.906 232.107 376.766 233.591 376.358Z" fill="#202020"/>
<path d="M281.158 336.883C282.247 328.891 281.085 322.137 278.562 321.797C276.039 321.457 273.111 327.66 272.022 335.652C270.933 343.644 272.095 350.398 274.618 350.739C277.14 351.079 280.069 344.875 281.158 336.883Z" fill="#202020"/>
<path d="M273.716 392.813C289.935 392.813 303.083 379.737 303.083 363.606C303.083 347.476 289.935 334.4 273.716 334.4C257.497 334.4 244.349 347.476 244.349 363.606C244.349 379.737 257.497 392.813 273.716 392.813Z" fill="#202020"/>
<path d="M232.524 361.121L234.901 369.673L250.308 365.437L247.931 356.885L232.524 361.121Z" fill="#202020"/>
<path d="M233.59 371.186C235.075 370.778 235.391 367.257 234.297 363.321C233.203 359.385 231.113 356.525 229.629 356.933C228.145 357.341 227.828 360.862 228.922 364.798C230.016 368.734 232.106 371.594 233.59 371.186Z" fill="#202020"/>
<path d="M281.428 356.857C286.971 356.857 291.465 352.388 291.465 346.875C291.465 341.362 286.971 336.893 281.428 336.893C275.884 336.893 271.391 341.362 271.391 346.875C271.391 352.388 275.884 356.857 281.428 356.857Z" fill="white"/>
<path d="M284.637 345.794C286.484 345.794 287.982 344.304 287.982 342.466C287.982 340.629 286.484 339.139 284.637 339.139C282.789 339.139 281.291 340.629 281.291 342.466C281.291 344.304 282.789 345.794 284.637 345.794Z" fill="#202020"/>
<path d="M307.629 383.677C318.496 383.136 326.82 373.027 326.219 361.097C325.619 349.167 316.322 339.935 305.455 340.476C294.587 341.017 292.882 349.501 293.482 361.431C294.083 373.361 296.761 384.218 307.629 383.677Z" fill="#0081A7" fill-opacity="0.7"/>
<path d="M261.713 351.249C259.945 351.392 258.191 350.829 256.839 349.686C255.487 348.543 254.647 346.912 254.504 345.153C254.361 343.394 254.926 341.65 256.076 340.306C257.225 338.961 258.865 338.126 260.634 337.983C264.317 337.687 265.322 340.595 265.62 344.258C265.918 347.922 265.397 350.953 261.713 351.249Z" fill="white"/>
<path d="M270.135 343.823C271.224 335.831 270.062 329.077 267.54 328.737C265.017 328.397 262.089 334.6 261 342.592C259.91 350.584 261.072 357.338 263.595 357.678C266.118 358.019 269.046 351.815 270.135 343.823Z" fill="#202020"/>
<path d="M267.433 329.841C269.874 329.841 271.852 327.873 271.852 325.445C271.852 323.018 269.874 321.05 267.433 321.05C264.992 321.05 263.014 323.018 263.014 325.445C263.014 327.873 264.992 329.841 267.433 329.841Z" fill="#202020"/>
</svg>
