<svg width="651" height="254" viewBox="0 0 651 254" fill="none" xmlns="http://www.w3.org/2000/svg">
<path d="M325.5 254C505.269 254 651 241.464 651 226C651 210.536 505.269 198 325.5 198C145.731 198 0 210.536 0 226C0 241.464 145.731 254 325.5 254Z" fill="#F2F2F2"/>
<path d="M120.414 208.652C138.315 208.652 152.827 194.139 152.827 176.238C152.827 158.336 138.315 143.824 120.414 143.824C102.512 143.824 88 158.336 88 176.238C88 194.139 102.512 208.652 120.414 208.652Z" fill="#2F2E41"/>
<path d="M115.49 201.676H105.643V219.319H115.49V201.676Z" fill="#2F2E41"/>
<path d="M135.185 201.676H125.337V219.319H135.185V201.676Z" fill="#2F2E41"/>
<path d="M113.849 222.604C118.381 222.604 122.055 221.226 122.055 219.526C122.055 217.827 118.381 216.449 113.849 216.449C109.317 216.449 105.643 217.827 105.643 219.526C105.643 221.226 109.317 222.604 113.849 222.604Z" fill="#2F2E41"/>
<path d="M133.543 222.194C138.075 222.194 141.749 220.816 141.749 219.116C141.749 217.417 138.075 216.039 133.543 216.039C129.011 216.039 125.337 217.417 125.337 219.116C125.337 220.816 129.011 222.194 133.543 222.194Z" fill="#2F2E41"/>
<path d="M121.234 179.109C127.353 179.109 132.312 174.149 132.312 168.031C132.312 161.913 127.353 156.953 121.234 156.953C115.116 156.953 110.156 161.913 110.156 168.031C110.156 174.149 115.116 179.109 121.234 179.109Z" fill="white"/>
<path d="M121.234 171.725C123.274 171.725 124.927 170.072 124.927 168.033C124.927 165.993 123.274 164.34 121.234 164.34C119.195 164.34 117.542 165.993 117.542 168.033C117.542 170.072 119.195 171.725 121.234 171.725Z" fill="#3F3D56"/>
<path opacity="0.7" d="M88.9714 146.094C86.3541 134.373 94.7204 122.529 107.658 119.64C120.596 116.751 133.205 123.911 135.823 135.633C138.44 147.354 129.866 151.677 116.928 154.566C103.99 157.455 91.5886 157.815 88.9714 146.094Z" fill="#0081A7"/>
<path d="M507.353 214.951C524.116 214.951 537.705 201.362 537.705 184.599C537.705 167.835 524.116 154.246 507.353 154.246C490.589 154.246 477 167.835 477 184.599C477 201.362 490.589 214.951 507.353 214.951Z" fill="#2F2E41"/>
<path d="M502.742 208.418H493.521V224.939H502.742V208.418Z" fill="#2F2E41"/>
<path d="M521.184 208.418H511.963V224.939H521.184V208.418Z" fill="#2F2E41"/>
<path d="M501.205 228.013C505.449 228.013 508.889 226.723 508.889 225.132C508.889 223.54 505.449 222.25 501.205 222.25C496.961 222.25 493.521 223.54 493.521 225.132C493.521 226.723 496.961 228.013 501.205 228.013Z" fill="#2F2E41"/>
<path d="M519.647 227.63C523.891 227.63 527.331 226.34 527.331 224.749C527.331 223.157 523.891 221.867 519.647 221.867C515.403 221.867 511.963 223.157 511.963 224.749C511.963 226.34 515.403 227.63 519.647 227.63Z" fill="#2F2E41"/>
<path d="M508.121 187.286C513.85 187.286 518.494 182.642 518.494 176.913C518.494 171.184 513.85 166.539 508.121 166.539C502.392 166.539 497.747 171.184 497.747 176.913C497.747 182.642 502.392 187.286 508.121 187.286Z" fill="white"/>
<path d="M508.121 180.373C510.031 180.373 511.579 178.825 511.579 176.915C511.579 175.005 510.031 173.457 508.121 173.457C506.211 173.457 504.663 175.005 504.663 176.915C504.663 178.825 506.211 180.373 508.121 180.373Z" fill="#3F3D56"/>
<path opacity="0.8" d="M477.91 156.371C475.459 145.395 483.293 134.305 495.408 131.599C507.523 128.894 519.331 135.599 521.782 146.575C524.233 157.551 516.204 161.599 504.089 164.304C491.974 167.009 480.36 167.347 477.91 156.371Z" fill="#0081A7"/>
<path d="M310.543 228.304C330.172 228.304 346.085 212.391 346.085 192.761C346.085 173.132 330.172 157.219 310.543 157.219C290.913 157.219 275 173.132 275 192.761C275 212.391 290.913 228.304 310.543 228.304Z" fill="#2F2E41"/>
<path d="M305.144 220.656H294.346V240.002H305.144V220.656Z" fill="#2F2E41"/>
<path d="M326.739 220.656H315.941V240.002H326.739V220.656Z" fill="#2F2E41"/>
<path d="M303.344 243.6C308.314 243.6 312.342 242.089 312.342 240.226C312.342 238.362 308.314 236.852 303.344 236.852C298.375 236.852 294.346 238.362 294.346 240.226C294.346 242.089 298.375 243.6 303.344 243.6Z" fill="#2F2E41"/>
<path d="M324.94 243.151C329.909 243.151 333.938 241.64 333.938 239.777C333.938 237.913 329.909 236.402 324.94 236.402C319.97 236.402 315.941 237.913 315.941 239.777C315.941 241.64 319.97 243.151 324.94 243.151Z" fill="#2F2E41"/>
<path d="M311.442 195.912C318.151 195.912 323.59 190.474 323.59 183.765C323.59 177.056 318.151 171.617 311.442 171.617C304.734 171.617 299.295 177.056 299.295 183.765C299.295 190.474 304.734 195.912 311.442 195.912Z" fill="white"/>
<path d="M311.443 187.813C313.679 187.813 315.492 186 315.492 183.764C315.492 181.528 313.679 179.715 311.443 179.715C309.206 179.715 307.394 181.528 307.394 183.764C307.394 186 309.206 187.813 311.443 187.813Z" fill="#3F3D56"/>
<path opacity="0.8" d="M276.065 159.707C273.195 146.854 282.369 133.867 296.556 130.699C296.556 130.699 298.675 137.167 301.544 150.019C305.144 162.842 306.72 168.996 306.72 168.996C292.534 172.164 278.935 172.56 276.065 159.707Z" fill="#3F3D56"/>
<path opacity="0.8" d="M327.439 148.237C324.572 135.398 310.771 127.551 296.6 130.692L306.486 169.049C306.564 169.032 306.642 169.016 306.721 168.998C320.907 165.83 330.309 161.09 327.439 148.237Z" fill="#0081A7"/>
<path d="M262.391 142.135C262.391 173.776 243.581 184.824 220.378 184.824C197.174 184.824 178.364 173.776 178.364 142.135C178.364 110.494 220.378 70.2422 220.378 70.2422C220.378 70.2422 262.391 110.494 262.391 142.135Z" fill="#F2F2F2"/>
<path d="M218.847 179.984L219.277 153.503L237.185 120.743L219.345 149.349L219.538 137.442L231.88 113.741L219.589 134.291L219.937 112.877L233.153 94.0071L219.992 109.509L220.209 70.2422L218.843 122.225L218.956 120.08L205.519 99.5139L218.74 124.197L217.488 148.113L217.451 147.479L201.961 125.835L217.404 149.721L217.248 152.712L217.22 152.757L217.233 153.003L214.056 213.682H218.299L218.809 182.34L234.214 158.512L218.847 179.984Z" fill="#3F3D56"/>
<path d="M215.861 218.008C223.929 218.008 230.469 216.07 230.469 213.68C230.469 211.289 223.929 209.352 215.861 209.352C207.793 209.352 201.252 211.289 201.252 213.68C201.252 216.07 207.793 218.008 215.861 218.008Z" fill="#3F3D56"/>
<path d="M506.591 111.907C506.591 161.158 477.312 178.354 441.195 178.354C405.077 178.354 375.798 161.158 375.798 111.907C375.798 62.6553 441.195 0 441.195 0C441.195 0 506.591 62.6553 506.591 111.907Z" fill="#F2F2F2"/>
<path d="M438.812 170.82L439.482 129.602L467.356 78.6078L439.587 123.135L439.888 104.602L459.098 67.7084L439.968 99.6968L440.509 66.3635L461.08 36.9917L440.594 61.1218L440.933 0L438.806 80.9146L438.981 77.5762L418.067 45.5634L438.646 83.9843L436.697 121.212L436.639 120.224L412.528 86.5344L436.566 123.715L436.323 128.37L436.279 128.44L436.299 128.823L431.355 223.273H437.96L438.753 174.488L462.732 137.398L438.812 170.82Z" fill="#3F3D56"/>
<path d="M435.006 230.01C447.565 230.01 457.745 226.994 457.745 223.273C457.745 219.552 447.565 216.535 435.006 216.535C422.448 216.535 412.268 219.552 412.268 223.273C412.268 226.994 422.448 230.01 435.006 230.01Z" fill="#3F3D56"/>
</svg>
