<svg width="385" height="267" viewBox="0 0 385 267" fill="none" xmlns="http://www.w3.org/2000/svg">
<path d="M73.0401 57.3185C85.184 57.3185 95.0285 47.4838 95.0285 35.3521C95.0285 23.2204 85.184 13.3857 73.0401 13.3857C60.8963 13.3857 51.0518 23.2204 51.0518 35.3521C51.0518 47.4838 60.8963 57.3185 73.0401 57.3185Z" fill="#0081A7"/>
<path d="M180.022 117.768C180.022 169.599 149.178 187.696 111.131 187.696C73.0837 187.696 42.2402 169.599 42.2402 117.768C42.2402 65.937 111.131 0 111.131 0C111.131 0 180.022 65.937 180.022 117.768Z" fill="#F2F2F2"/>
<path d="M108.621 179.768L109.327 136.39L138.69 82.7254L109.437 129.585L109.755 110.081L129.991 71.2552L109.838 104.919L110.409 69.8397L132.079 38.9296L110.499 64.3234L110.855 0L108.615 85.1527L108.799 81.6398L86.7671 47.9499L108.446 88.3831L106.393 127.561L106.332 126.521L80.9326 91.0675L106.255 130.195L105.998 135.094L105.952 135.168L105.973 135.57L100.765 234.968H107.724L108.559 183.627L133.818 144.595L108.621 179.768Z" fill="#3F3D56"/>
<path d="M385 138.997C385 181.423 359.753 196.236 328.609 196.236C297.466 196.236 272.219 181.423 272.219 138.997C272.219 96.5708 328.609 42.5981 328.609 42.5981C328.609 42.5981 385 96.5708 385 138.997Z" fill="#F2F2F2"/>
<path d="M326.555 189.746L327.132 154.24L351.167 110.313L327.223 148.67L327.483 132.704L344.048 100.924L327.552 128.479L328.018 99.7652L345.756 74.4637L328.092 95.2501L328.384 42.598L326.55 112.299L326.701 109.424L308.666 81.8472L326.412 114.944L324.731 147.013L324.681 146.162L303.891 117.141L324.618 149.169L324.408 153.179L324.37 153.24L324.388 153.569L320.124 234.93H325.82L326.504 192.905L347.18 160.956L326.555 189.746Z" fill="#3F3D56"/>
<path d="M190.54 243.179C295.773 243.179 381.081 238.871 381.081 233.557C381.081 228.243 295.773 223.935 190.54 223.935C85.3078 223.935 0 228.243 0 233.557C0 238.871 85.3078 243.179 190.54 243.179Z" fill="#3F3D56"/>
<path d="M306.615 251.102C324.639 251.102 339.251 250.364 339.251 249.454C339.251 248.544 324.639 247.806 306.615 247.806C288.592 247.806 273.98 248.544 273.98 249.454C273.98 250.364 288.592 251.102 306.615 251.102Z" fill="#3F3D56"/>
<path d="M188.523 267C206.547 267 221.158 266.262 221.158 265.352C221.158 264.442 206.547 263.704 188.523 263.704C170.499 263.704 155.888 264.442 155.888 265.352C155.888 266.262 170.499 267 188.523 267Z" fill="#3F3D56"/>
<path d="M98.9284 255.788C140.106 255.788 173.488 254.102 173.488 252.023C173.488 249.943 140.106 248.257 98.9284 248.257C57.7505 248.257 24.3691 249.943 24.3691 252.023C24.3691 254.102 57.7505 255.788 98.9284 255.788Z" fill="#3F3D56"/>
<path d="M33.3548 221.472C48.3448 221.472 60.4967 209.333 60.4967 194.358C60.4967 179.383 48.3448 167.243 33.3548 167.243C18.3647 167.243 6.21289 179.383 6.21289 194.358C6.21289 209.333 18.3647 221.472 33.3548 221.472Z" fill="#2F2E41"/>
<path d="M28.9814 215.588L20.7363 215.491L20.5623 230.249L28.8073 230.346L28.9814 215.588Z" fill="#2F2E41"/>
<path d="M45.4716 215.782L37.2266 215.685L37.0525 230.443L45.2976 230.54L45.4716 215.782Z" fill="#2F2E41"/>
<path d="M34.3024 230.583C34.3192 229.161 31.2566 227.973 27.4619 227.928C23.6672 227.883 20.5774 228.999 20.5606 230.421C20.5439 231.843 23.6065 233.031 27.4012 233.076C31.1959 233.121 34.2856 232.004 34.3024 230.583Z" fill="#2F2E41"/>
<path d="M50.7956 230.433C50.8123 229.012 47.7497 227.823 43.955 227.779C40.1604 227.734 37.0706 228.85 37.0538 230.272C37.037 231.693 40.0996 232.882 43.8943 232.927C47.689 232.971 50.7788 231.855 50.7956 230.433Z" fill="#2F2E41"/>
<path d="M34.123 196.77C39.2462 196.77 43.3994 192.621 43.3994 187.503C43.3994 182.385 39.2462 178.236 34.123 178.236C28.9998 178.236 24.8467 182.385 24.8467 187.503C24.8467 192.621 28.9998 196.77 34.123 196.77Z" fill="white"/>
<path d="M34.1234 190.592C35.8311 190.592 37.2155 189.209 37.2155 187.503C37.2155 185.797 35.8311 184.414 34.1234 184.414C32.4156 184.414 31.0312 185.797 31.0312 187.503C31.0312 189.209 32.4156 190.592 34.1234 190.592Z" fill="#3F3D56"/>
<path d="M7.32544 168.834C5.24965 159.004 12.3716 149.18 23.2328 146.891C34.094 144.602 44.5815 150.715 46.6573 160.545C48.7331 170.376 41.5112 173.907 30.65 176.196C19.7888 178.485 9.40123 178.664 7.32544 168.834Z" fill="#0081A7" fill-opacity="0.7"/>
<path d="M74.7581 209.484C74.7581 228.388 63.5097 234.988 49.633 234.988C49.3115 234.988 48.9905 234.984 48.6701 234.977C48.0271 234.963 47.3903 234.933 46.7612 234.89C34.2376 234.005 24.5078 227.065 24.5078 209.484C24.5078 191.29 47.7807 168.333 49.5289 166.634L49.5319 166.631C49.5993 166.565 49.633 166.533 49.633 166.533C49.633 166.533 74.7581 190.581 74.7581 209.484Z" fill="#0081A7"/>
<path d="M48.7169 232.096L57.9063 219.268L48.6939 233.504L48.6695 234.977C48.0265 234.963 47.3897 234.933 46.7605 234.89L47.751 215.977L47.7433 215.831L47.7602 215.803L47.8535 214.017L38.6182 199.746L47.8826 212.677L47.9041 213.056L48.6526 198.767L40.746 184.02L48.7491 196.259L49.5282 166.634L49.5313 166.533V166.631L49.4012 189.992L57.2726 180.731L49.369 192.004L49.1609 204.798L56.5103 192.52L49.1303 206.681L49.0139 213.794L59.6836 196.704L48.9741 216.276L48.7169 232.096Z" fill="#3F3D56"/>
<path d="M244.787 221.18C259.777 221.18 271.929 209.04 271.929 194.065C271.929 179.09 259.777 166.95 244.787 166.95C229.797 166.95 217.646 179.09 217.646 194.065C217.646 209.04 229.797 221.18 244.787 221.18Z" fill="#2F2E41"/>
<path d="M247.104 215.616L239.222 218.036L243.562 232.144L251.443 229.724L247.104 215.616Z" fill="#2F2E41"/>
<path d="M262.867 210.777L254.985 213.197L259.325 227.304L267.207 224.884L262.867 210.777Z" fill="#2F2E41"/>
<path d="M250.938 232.751C254.565 231.637 257.167 229.633 256.749 228.274C256.331 226.915 253.051 226.716 249.424 227.83C245.796 228.943 243.194 230.948 243.612 232.307C244.03 233.666 247.31 233.864 250.938 232.751Z" fill="#2F2E41"/>
<path d="M266.6 227.583C270.227 226.47 272.829 224.465 272.411 223.106C271.993 221.747 268.713 221.548 265.086 222.662C261.458 223.776 258.856 225.78 259.275 227.139C259.693 228.498 262.972 228.697 266.6 227.583Z" fill="#2F2E41"/>
<path d="M243.426 196.568C248.549 196.568 252.702 192.419 252.702 187.301C252.702 182.183 248.549 178.034 243.426 178.034C238.303 178.034 234.149 182.183 234.149 187.301C234.149 192.419 238.303 196.568 243.426 196.568Z" fill="white"/>
<path d="M243.426 190.39C245.134 190.39 246.518 189.007 246.518 187.301C246.518 185.595 245.134 184.212 243.426 184.212C241.718 184.212 240.334 185.595 240.334 187.301C240.334 189.007 241.718 190.39 243.426 190.39Z" fill="#3F3D56"/>
<path d="M212.206 177.688C207.228 168.959 211.011 157.432 220.656 151.943C230.3 146.454 242.155 149.08 247.133 157.81C252.111 166.539 246.311 172.103 236.667 177.592C227.022 183.081 217.184 186.417 212.206 177.688Z" fill="#0081A7" fill-opacity="0.7"/>
<path d="M196.381 206.023C196.381 223.376 186.056 229.435 173.318 229.435C173.023 229.435 172.728 229.431 172.434 229.425C171.844 229.412 171.259 229.384 170.681 229.345C159.185 228.532 150.254 222.162 150.254 206.023C150.254 189.322 171.617 168.248 173.222 166.689L173.225 166.686C173.287 166.626 173.318 166.596 173.318 166.596C173.318 166.596 196.381 188.671 196.381 206.023Z" fill="#0081A7"/>
<path d="M172.477 226.78L180.913 215.005L172.456 228.073L172.434 229.425C171.843 229.412 171.259 229.384 170.681 229.345L171.591 211.984L171.583 211.849L171.599 211.824L171.685 210.184L163.207 197.084L171.711 208.955L171.731 209.303L172.418 196.186L165.16 182.649L172.507 193.883L173.222 166.689L173.225 166.596V166.686L173.105 188.13L180.331 179.629L173.076 189.978L172.885 201.722L179.631 190.451L172.857 203.45L172.75 209.979L182.544 194.292L172.713 212.258L172.477 226.78Z" fill="#3F3D56"/>
<path d="M287.083 213.259C287.083 232.162 275.835 238.763 261.958 238.763C261.637 238.763 261.316 238.759 260.995 238.752C260.352 238.738 259.715 238.708 259.086 238.665C246.563 237.779 236.833 230.84 236.833 213.259C236.833 195.065 260.106 172.108 261.854 170.409L261.857 170.406C261.924 170.34 261.958 170.308 261.958 170.308C261.958 170.308 287.083 194.356 287.083 213.259Z" fill="#0081A7"/>
<path d="M261.042 235.871L270.232 223.043L261.019 237.279L260.995 238.752C260.352 238.738 259.715 238.708 259.086 238.665L260.076 219.752L260.069 219.605L260.085 219.578L260.179 217.792L250.943 203.521L260.208 216.452L260.229 216.831L260.978 202.542L253.071 187.795L261.074 200.034L261.853 170.409L261.857 170.308V170.406L261.726 193.767L269.598 184.506L261.694 195.779L261.486 208.573L268.835 196.295L261.455 210.456L261.339 217.568L272.009 200.479L261.299 220.051L261.042 235.871Z" fill="#3F3D56"/>
<path d="M246.511 210.296C247.52 208.172 242.847 203.849 236.075 200.641C229.303 197.432 222.996 196.553 221.988 198.677C220.979 200.8 225.652 205.123 232.424 208.332C239.196 211.54 245.503 212.42 246.511 210.296Z" fill="#2F2E41"/>
<path d="M37.6135 207.815C38.4889 205.633 33.5588 201.606 26.6018 198.82C19.6448 196.035 13.2954 195.545 12.42 197.727C11.5446 199.909 16.4747 203.936 23.4317 206.722C30.3887 209.507 36.7381 209.997 37.6135 207.815Z" fill="#2F2E41"/>
</svg>
