<svg xmlns="http://www.w3.org/2000/svg" width="51" height="55" viewBox="0 0 51 55" fill="none">
<path d="M29.4688 40.9807C22.3744 42.8817 15.1137 38.789 13.2515 31.8394C11.3894 24.8898 15.631 17.715 22.7254 15.814C29.8199 13.9131 37.0806 18.0058 38.9427 24.9554C40.8049 31.905 36.5633 39.0798 29.4688 40.9807Z" fill="#2F2E41"/>
<path d="M25.4539 45.8434L21.4314 46.1914L20.871 39.1181L24.8936 38.7701L25.4539 45.8434Z" fill="#2F2E41"/>
<path d="M33.4991 45.1471L29.4766 45.4951L28.9162 38.4218L32.9387 38.0738L33.4991 45.1471Z" fill="#2F2E41"/>
<path d="M31.8404 47.1115C30.1651 46.3417 29.0505 45.215 29.3509 44.5949C29.6513 43.9748 31.2528 44.0961 32.9281 44.8659C34.6034 45.6357 35.7179 46.7625 35.4175 47.3826C35.1172 48.0027 33.5156 47.8813 31.8404 47.1115Z" fill="#2F2E41"/>
<path d="M23.9629 47.7932C22.2877 47.0234 21.1731 45.8967 21.4735 45.2765C21.7738 44.6564 23.3754 44.7778 25.0507 45.5476C26.7259 46.3174 27.8405 47.4441 27.5401 48.0642C27.2397 48.6843 25.6382 48.563 23.9629 47.7932Z" fill="#2F2E41"/>
<path d="M27.3236 29.3792C24.8989 30.0289 22.4174 28.6301 21.781 26.2549C21.1446 23.8798 22.5942 21.4276 25.0189 20.7779C27.4436 20.1282 29.9251 21.527 30.5615 23.9022C31.198 26.2774 29.7483 28.7295 27.3236 29.3792Z" fill="white"/>
<path d="M27.9471 24.4868C27.1389 24.7033 26.3117 24.2371 26.0996 23.4453C25.8874 22.6536 26.3707 21.8362 27.1789 21.6197C27.9871 21.4031 28.8143 21.8694 29.0265 22.6611C29.2386 23.4528 28.7554 24.2702 27.9471 24.4868Z" fill="#3F3D56"/>
<path d="M12.2956 17.4231C10.8542 12.8163 13.8956 7.77225 19.0888 6.15687C24.282 4.5415 29.6604 6.96652 31.1018 11.5733C32.5432 16.1801 29.178 18.2162 23.9849 19.8316C18.7917 21.447 13.7371 22.0299 12.2956 17.4231Z" fill="#0081A7" fill-opacity="0.7"/>
<path d="M31.4599 26.0103C30.9262 25.0137 33.1278 22.8254 36.3773 21.1226C39.6269 19.4198 42.6938 18.8473 43.2275 19.8439C43.7612 20.8405 41.5596 23.0288 38.31 24.7316C35.0605 26.4344 31.9936 27.0069 31.4599 26.0103Z" fill="#2F2E41"/>
<path d="M7.34542 36.8736C6.81172 35.877 9.01333 33.6887 12.2629 31.9859C15.5124 30.2831 18.5793 29.7106 19.113 30.7072C19.6467 31.7038 17.4451 33.8921 14.1956 35.5949C10.946 37.2977 7.87912 37.8702 7.34542 36.8736Z" fill="#2F2E41"/>
<path d="M23.8978 34.3015C23.9284 34.6905 24.0367 35.069 24.2167 35.4153C24.3967 35.7617 24.6448 36.0691 24.9467 36.32C25.2487 36.5709 25.5986 36.7604 25.9766 36.8776C26.3545 36.9948 26.753 37.0375 27.1494 37.0032C27.5457 36.969 27.9321 36.8584 28.2864 36.6778C28.6408 36.4972 28.9562 36.2502 29.2145 35.9508C29.4729 35.6514 29.6692 35.3056 29.7922 34.933C29.9153 34.5605 29.9626 34.1685 29.9316 33.7796C29.802 32.1443 28.4245 31.9224 26.7583 32.0666C25.0921 32.2107 23.7682 32.6662 23.8978 34.3015Z" fill="white"/>
</svg> 