<svg width="192" height="64" viewBox="0 0 192 64" fill="none" xmlns="http://www.w3.org/2000/svg">
<path d="M31.9647 0C14.3172 0 0 14.333 0 32C0 49.667 14.3172 64 31.9647 64C49.6123 64 63.9295 49.667 63.9295 32C63.9295 14.333 49.6123 0 31.9647 0ZM16.2351 50.8279L27.2518 9.86791H33.3771L22.3605 50.8279H16.2351ZM51.4112 35.7805L48.0661 38.4893L42.7436 32.4465L37.198 38.4893L33.7191 35.9293L38.1198 29.2465L30.8646 26.4037L32.158 21.7749L39.8147 23.7693L40.454 16.1637H44.7952L45.4345 23.7693L52.6898 21.9237L54.1765 26.4037L46.9956 29.2465L51.4112 35.7805Z" fill="#202020"/>
<path d="M95.4331 26.3741C94.9425 24.6178 93.4111 23.0253 90.512 23.0253C87.8805 23.0253 85.8883 24.2755 85.9031 26.0913C85.8883 27.6392 86.9587 28.5769 89.6794 29.1871L94.2437 30.1695C99.2837 31.2709 101.737 33.6076 101.767 37.4178C101.752 42.4932 97.0388 45.9611 90.3485 45.9611C83.792 45.9611 79.6588 43.0588 78.8857 38.1323L85.026 37.5369C85.5612 39.9481 87.4493 41.1983 90.3336 41.1983C93.3219 41.1983 95.3142 39.829 95.3142 37.9983C95.3142 36.4802 94.1694 35.483 91.7163 34.9471L87.152 33.9946C82.0228 32.9378 79.6142 30.3481 79.6291 26.4485C79.6142 21.5071 84.0001 18.3369 90.4377 18.3369C96.6968 18.3369 100.324 21.2244 101.187 25.7639L95.4331 26.3741Z" fill="#202020"/>
<path d="M102.54 32.2088C102.54 23.9483 107.535 18.3223 115.192 18.3223C121.764 18.3223 127.413 22.4451 127.413 31.8367V33.7716H108.784C108.844 38.3558 111.535 41.0348 115.608 41.0348C118.329 41.0348 120.411 39.8441 121.258 37.5818L127.145 38.2367C126.03 42.8953 121.749 45.9316 115.519 45.9316C107.461 45.9465 102.54 40.6032 102.54 32.2088ZM121.377 29.5297C121.347 25.8832 118.909 23.2339 115.281 23.2339C111.52 23.2339 108.992 26.1065 108.814 29.5297H121.377Z" fill="#202020"/>
<path d="M128.811 18.992H134.832V23.5315H135.144C136.259 20.4803 138.935 18.6348 142.518 18.6348C146.116 18.6348 148.718 20.4952 149.744 23.5315H150.026C151.216 20.5548 154.174 18.6348 158.055 18.6348C162.961 18.6348 166.41 21.805 166.41 27.7734V45.738H160.091V28.7706C160.091 25.4664 158.069 23.9631 155.527 23.9631C152.479 23.9631 150.695 26.0469 150.695 29.0683V45.7529H144.51V28.5027C144.51 25.7492 142.682 23.9631 140.021 23.9631C137.3 23.9631 135.114 26.1957 135.114 29.485V45.7529H128.811V18.992Z" fill="#202020"/>
<path d="M167.956 38.5794C167.956 32.5515 172.922 31.0036 178.096 30.438C182.809 29.932 184.712 29.8427 184.712 28.0268V27.9227C184.712 25.2882 183.106 23.7999 180.192 23.7999C177.114 23.7999 175.33 25.3627 174.706 27.1934L168.818 26.3599C170.216 21.478 174.527 18.9775 180.147 18.9775C185.247 18.9775 191 21.1059 191 28.1757V46.0808H184.949V42.4045H184.741C183.596 44.652 181.084 46.6166 176.891 46.6166C171.807 46.6166 167.956 43.8334 167.956 38.5794ZM184.726 36.4808V33.3254C183.909 33.9803 180.608 34.412 178.943 34.6352C176.118 35.0371 174.022 36.0492 174.022 38.4752C174.022 40.7971 175.895 41.9878 178.527 41.9878C182.333 41.9878 184.726 39.4575 184.726 36.4808Z" fill="#202020"/>
</svg>
