<svg width="417" height="247" viewBox="0 0 417 247" fill="none" xmlns="http://www.w3.org/2000/svg">
<path d="M5 14C5 9.58172 8.59473 6 13.029 6H383.971C388.405 6 392 9.58172 392 14V239C392 243.418 388.405 247 383.971 247H13.029C8.59473 247 5 243.418 5 239V14Z" fill="#FAD4E9"/>
<path d="M0 8C0 3.58172 3.58544 0 8.0083 0H377.992C382.415 0 386 3.58172 386 8V233C386 237.418 382.415 241 377.992 241H8.0083C3.58544 241 0 237.418 0 233V8Z" fill="#F8F8F8"/>
<path fill-rule="evenodd" clip-rule="evenodd" d="M377.992 2H8.0083C4.69115 2 2.00207 4.68629 2.00207 8V233C2.00207 236.314 4.69115 239 8.0083 239H377.992C381.309 239 383.998 236.314 383.998 233V8C383.998 4.68629 381.309 2 377.992 2ZM8.0083 0C3.58544 0 0 3.58172 0 8V233C0 237.418 3.58544 241 8.0083 241H377.992C382.415 241 386 237.418 386 233V8C386 3.58172 382.415 0 377.992 0H8.0083Z" fill="#202020"/>
<path fill-rule="evenodd" clip-rule="evenodd" d="M198 53H55V47H198V53Z" fill="#BBC5AA"/>
<path fill-rule="evenodd" clip-rule="evenodd" d="M224 67H55V61H224V67Z" fill="#BBC5AA"/>
<path d="M0 8C0 3.58172 3.58172 0 8 0H33.6635V241H8C3.58172 241 0 237.418 0 233V8Z" fill="#C4C4C4"/>
<path fill-rule="evenodd" clip-rule="evenodd" d="M31.6635 2H8C4.68629 2 2 4.68629 2 8V233C2 236.314 4.68629 239 8 239H31.6635V2ZM8 0C3.58172 0 0 3.58172 0 8V233C0 237.418 3.58172 241 8 241H33.6635V0H8Z" fill="#202020"/>
<circle cx="16.831" cy="19.8921" r="6.88571" fill="#202020"/>
<circle cx="16.831" cy="41.3146" r="6.88571" fill="#202020"/>
<circle cx="16.831" cy="62.7363" r="6.88571" fill="#202020"/>
<circle cx="16.831" cy="84.1588" r="6.88571" fill="#202020"/>
<rect opacity="0.3" x="34" y="131" width="350" height="20" fill="#E58A10"/>
<circle cx="74" cy="141" r="4" fill="#E93B89"/>
<path fill-rule="evenodd" clip-rule="evenodd" d="M126 95H55V89H126V95Z" fill="#BBC5AA"/>
<path fill-rule="evenodd" clip-rule="evenodd" d="M93 81H55V75H93V81Z" fill="#BBC5AA"/>
<path fill-rule="evenodd" clip-rule="evenodd" d="M283 109L85 109L85 103L283 103L283 109Z" fill="#BBC5AA"/>
<path fill-rule="evenodd" clip-rule="evenodd" d="M160.666 123.252L84.9229 123.252L84.9229 117L160.666 117L160.666 123.252Z" fill="#BBC5AA"/>
<path fill-rule="evenodd" clip-rule="evenodd" d="M318 144H104V138H318V144Z" fill="#E58A10"/>
<path fill-rule="evenodd" clip-rule="evenodd" d="M276 165H123V159H276V165Z" fill="#BBC5AA"/>
<path fill-rule="evenodd" clip-rule="evenodd" d="M216 179L123 179L123 173L216 173L216 179Z" fill="#BBC5AA"/>
<path fill-rule="evenodd" clip-rule="evenodd" d="M257 193L104 193L104 187L257 187L257 193Z" fill="#BBC5AA"/>
<g clip-path="url(#clip0_420:3977)">
<path d="M370.759 228.038H337.032C335.674 228.038 334.561 226.917 334.561 225.544V206.867C334.561 205.493 335.674 204.366 337.032 204.366H370.759C372.117 204.366 373.224 205.493 373.224 206.867V225.544C373.224 226.917 372.117 228.038 370.759 228.038Z" fill="#AFADAA"/>
<path d="M345.885 224.917L350.521 207.494H353.098L348.462 224.917H345.885Z" fill="white"/>
<path d="M357.909 210.166L358.178 213.401L361.232 212.616L361.857 214.522L358.835 215.731L360.687 218.517L359.28 219.669L357.04 217.098L354.706 219.669L353.242 218.58L355.094 215.737L352.041 214.528L352.585 212.559L355.807 213.407L356.076 210.172H357.909V210.166Z" fill="white"/>
</g>
<g >
<path d="M306.155 28.4608C306.155 26.2517 307.946 24.4608 310.155 24.4608H409.467C411.676 24.4608 413.467 26.2517 413.467 28.4608V130.045C413.467 132.254 411.676 134.045 409.467 134.045H396.202C395.79 134.045 395.378 134.087 394.975 134.172L328.913 147.982C327.05 148.372 325.3 146.949 325.3 145.046V139.015C325.3 136.27 323.074 134.045 320.329 134.045H310.155C307.946 134.045 306.155 132.254 306.155 130.045V28.4608Z" fill="#202020"/>
</g>
<path d="M371.21 82.8682L348.447 82.9198C348.45 83.7378 348.506 84.6275 348.526 85.5649L347.731 85.5667L340.884 85.5834C340.858 92.8816 343.621 101.32 352.317 101.432C353.693 103.684 355.576 105.734 358.165 107.375L358.183 112.4L351.355 112.416L351.359 113.677L348.521 113.684L346.565 120.49L373.161 120.429L371.354 113.63L368.518 113.637L368.513 112.373L361.685 112.389L361.666 107.333C364.213 105.699 366.055 103.674 367.397 101.371C375.617 100.851 378.17 92.6216 378.116 85.4931L371.269 85.5079L371.072 85.5083C371.121 84.6339 371.167 83.7546 371.205 82.8731L371.21 82.8682ZM375.648 87.7712C375.666 92.7127 373.975 98.3954 368.53 99.0984C369.975 95.687 370.588 91.8138 370.916 87.7821L375.648 87.7712ZM348.282 87.834L348.644 87.8332C348.881 91.417 349.459 95.4695 351.142 99.1872C345.245 98.8433 343.371 92.9515 343.371 87.842L348.283 87.8307L348.282 87.834Z" fill="#F4F4F4"/>
<path fill-rule="evenodd" clip-rule="evenodd" d="M376.283 62.6718H342.555C341.198 62.6718 340.084 61.5512 340.084 60.1773V41.5008C340.084 40.1269 341.198 39 342.555 39H376.283C377.64 39 378.748 40.1269 378.748 41.5008V60.1773C378.748 61.5512 377.64 62.6718 376.283 62.6718ZM351.408 59.5511L356.044 42.1281H358.622L353.986 59.5511H351.408ZM363.702 48.0345L363.433 44.7993V44.8057H361.6L361.331 48.0408L358.109 47.1925L357.564 49.1614L360.618 50.3707L358.766 53.2133L360.23 54.3022L362.563 51.7318L364.803 54.3022L366.211 53.15L364.359 50.3643L367.381 49.1551L366.755 47.2495L363.702 48.0345Z" fill="#F4F4F4"/>
<defs>
<clipPath id="clip0_420:3977">
<rect width="38.6639" height="23.6718" fill="white" transform="translate(334.561 204.366)"/>
</clipPath>
</defs>
</svg>
