<svg width="356" height="214" viewBox="0 0 356 214" fill="none" xmlns="http://www.w3.org/2000/svg">
<g opacity="0.8" >
<rect width="328.276" height="205.172" rx="11.7903" fill="#F4F4F4"/>
<rect x="1.6567" y="1.6567" width="324.962" height="201.859" rx="10.1336" stroke="#202020" stroke-width="3.31339"/>
</g>
<path opacity="0.8" d="M45.4141 53.802C45.4141 47.2904 50.6928 42.0117 57.2044 42.0117H235.552C242.064 42.0117 247.343 47.2904 247.343 53.802V149.432C247.343 155.944 242.064 161.222 235.552 161.222H57.2043C50.6927 161.222 45.4141 155.944 45.4141 149.432V53.802Z" fill="#F4F4F4"/>
<path opacity="0.8" fill-rule="evenodd" clip-rule="evenodd" d="M235.552 45.3251H57.2044C52.5227 45.3251 48.7275 49.1204 48.7275 53.802V149.432C48.7275 154.114 52.5227 157.909 57.2043 157.909H235.552C240.234 157.909 244.029 154.114 244.029 149.432V53.802C244.029 49.1203 240.234 45.3251 235.552 45.3251ZM57.2044 42.0117C50.6928 42.0117 45.4141 47.2904 45.4141 53.802V149.432C45.4141 155.944 50.6927 161.222 57.2043 161.222H235.552C242.064 161.222 247.343 155.944 247.343 149.432V53.802C247.343 47.2904 242.064 42.0117 235.552 42.0117H57.2044Z" fill="#202020"/>
<path fill-rule="evenodd" clip-rule="evenodd" d="M168.61 29.6446H47.0225V23.3928H168.61V29.6446Z" fill="#0081A7"/>
<path fill-rule="evenodd" clip-rule="evenodd" d="M208.612 180H47.0225V173.748H208.612V180Z" fill="#0081A7"/>
<path d="M0 11.7903C0 5.27868 5.27869 0 11.7903 0H28.659V205.172H11.7903C5.27869 205.172 0 199.894 0 193.382V11.7903Z" fill="#C4C4C4"/>
<path fill-rule="evenodd" clip-rule="evenodd" d="M25.3456 3.31339H11.7903C7.10862 3.31339 3.31339 7.10862 3.31339 11.7903V193.382C3.31339 198.064 7.10863 201.859 11.7903 201.859H25.3456V3.31339ZM11.7903 0C5.27869 0 0 5.27868 0 11.7903V193.382C0 199.894 5.27869 205.172 11.7903 205.172H28.659V0H11.7903Z" fill="#202020"/>
<circle cx="14.3289" cy="16.9348" r="5.86207" fill="#2D2A2E"/>
<circle cx="14.3289" cy="35.1717" r="5.86207" fill="#2D2A2E"/>
<circle cx="14.3289" cy="53.4086" r="5.86207" fill="#2D2A2E"/>
<circle cx="14.3289" cy="71.6473" r="5.86207" fill="#2D2A2E"/>
<path fill-rule="evenodd" clip-rule="evenodd" d="M120.585 71.9671H60.0107V65.7154H120.585V71.9671Z" fill="#202020"/>
<path fill-rule="evenodd" clip-rule="evenodd" d="M238.179 71.9671H226.258V65.7154H238.179V71.9671Z" fill="#202020"/>
<path fill-rule="evenodd" clip-rule="evenodd" d="M233.312 119.051H229.501V112.799H233.312V119.051Z" fill="#202020"/>
<path fill-rule="evenodd" clip-rule="evenodd" d="M233.312 135.272H229.501V129.02H233.312V135.272Z" fill="#202020"/>
<path fill-rule="evenodd" clip-rule="evenodd" d="M160.581 119.051H60.0107V112.799H160.581V119.051Z" fill="#202020"/>
<path fill-rule="evenodd" clip-rule="evenodd" d="M120.585 135.272H60.0107V129.02H120.585V135.272Z" fill="#202020"/>
<path fill-rule="evenodd" clip-rule="evenodd" d="M216.665 83.2093L72.2979 83.2093L72.2979 76.9576L216.665 76.9576L216.665 83.2093Z" fill="#565151"/>
<path fill-rule="evenodd" clip-rule="evenodd" d="M136.781 96.7151L72.2979 96.7151L72.2979 90.4634L136.781 90.4634L136.781 96.7151Z" fill="#565151"/>
<g clip-path="url(#clip0_420:3981)">
<path d="M315.642 194.138H286.928C285.772 194.138 284.824 193.184 284.824 192.015V176.115C284.824 174.945 285.772 173.986 286.928 173.986H315.642C316.797 173.986 317.74 174.945 317.74 176.115V192.015C317.74 193.184 316.797 194.138 315.642 194.138Z" fill="#AFADAA"/>
<path d="M294.465 191.482L298.412 176.649H300.606L296.659 191.482H294.465Z" fill="white"/>
<path d="M304.702 178.923L304.931 181.677L307.53 181.009L308.063 182.631L305.49 183.661L307.067 186.032L305.868 187.013L303.962 184.825L301.975 187.013L300.729 186.086L302.305 183.666L299.706 182.637L300.169 180.961L302.912 181.683L303.141 178.929H304.702V178.923Z" fill="white"/>
</g>
<g >
<path d="M261 25.9701C261 23.2252 263.225 21 265.97 21H347.389C350.133 21 352.359 23.2252 352.359 25.9701V109.323C352.359 112.068 350.133 114.293 347.389 114.293H337.646C337.304 114.293 336.964 114.328 336.629 114.398L283.285 125.55C280.198 126.195 277.298 123.839 277.298 120.685V119.263C277.298 116.518 275.073 114.293 272.328 114.293H265.97C263.225 114.293 261 112.068 261 109.323V25.9701Z" fill="#202020"/>
</g>
<path d="M305.2 38.0686C293.6 38.7686 287.5 45.3686 287 57.2686H298.7C298.8 53.1686 301.2 50.0686 305.4 49.5686C309.6 49.1686 313.6 50.1686 314.8 52.9686C316.1 56.0686 313.2 59.6686 311.8 61.1686C309.2 63.9686 305 66.0686 302.8 69.0686C300.7 72.0686 300.3 75.9686 300.1 80.7686H310.4C310.5 77.6686 310.7 74.7686 312.1 72.8686C314.4 69.7686 317.8 68.3686 320.6 65.8686C323.3 63.5686 326.2 60.7686 326.6 56.3686C328.3 43.4686 317.7 37.2686 305.2 38.0686Z" fill="white"/>
<path d="M305.5 97.9687C309.09 97.9687 312 95.1033 312 91.5687C312 88.0341 309.09 85.1687 305.5 85.1687C301.91 85.1687 299 88.0341 299 91.5687C299 95.1033 301.91 97.9687 305.5 97.9687Z" fill="white"/>
<defs>
<clipPath id="clip0_420:3981">
<rect width="32.916" height="20.1527" fill="white" transform="translate(284.824 173.986)"/>
</clipPath>
</defs>
</svg>
