<svg width="543" height="253" viewBox="0 0 543 253" fill="none" xmlns="http://www.w3.org/2000/svg">
<path d="M271.75 252.58C421.463 252.58 542.829 242.525 542.829 230.121C542.829 217.717 421.463 207.662 271.75 207.662C122.038 207.662 0.671387 217.717 0.671387 230.121C0.671387 242.525 122.038 252.58 271.75 252.58Z" fill="#F2F2F2"/>
<path d="M100.067 161.184C100.067 192.825 81.2567 203.873 58.0534 203.873C34.85 203.873 16.04 192.825 16.04 161.184C16.04 129.543 58.0534 89.291 58.0534 89.291C58.0534 89.291 100.067 129.543 100.067 161.184Z" fill="#F2F2F2"/>
<path d="M56.5228 199.033L56.9529 172.552L74.8605 139.792L57.0205 168.398L57.2142 156.491L69.5555 132.79L57.2651 153.34L57.613 131.925L70.8286 113.056L57.6676 128.558L57.8851 89.291L56.519 141.274L56.6315 139.129L43.1952 118.563L56.4162 143.246L55.1642 167.162L55.1269 166.528L39.6367 144.884L55.0798 168.77L54.9234 171.761L54.8953 171.806L54.9083 172.052L51.7318 232.731H55.9752L56.4849 201.389L71.8896 177.561L56.5228 199.033Z" fill="#3F3D56"/>
<path d="M53.5365 237.057C61.6044 237.057 68.1447 235.119 68.1447 232.729C68.1447 230.338 61.6044 228.4 53.5365 228.4C45.4686 228.4 38.9282 230.338 38.9282 232.729C38.9282 235.119 45.4686 237.057 53.5365 237.057Z" fill="#3F3D56"/>
<path d="M542.829 112.02C542.829 161.271 513.55 178.468 477.433 178.468C441.315 178.468 412.036 161.271 412.036 112.02C412.036 62.7686 477.433 0.113281 477.433 0.113281C477.433 0.113281 542.829 62.7686 542.829 112.02Z" fill="#F2F2F2"/>
<path d="M475.05 170.934L475.72 129.715L503.594 78.7211L475.825 123.249L476.127 104.715L495.337 67.8217L476.206 99.8101L476.747 66.4767L497.318 37.105L476.832 61.235L477.171 0.113281L475.045 81.0279L475.22 77.6895L454.305 45.6767L474.885 84.0976L472.936 121.325L472.878 120.337L448.766 86.6477L472.804 123.828L472.561 128.484L472.517 128.554L472.537 128.936L467.593 223.387H474.198L474.991 174.601L498.97 137.512L475.05 170.934Z" fill="#3F3D56"/>
<path d="M471.245 230.121C483.803 230.121 493.983 227.105 493.983 223.384C493.983 219.663 483.803 216.646 471.245 216.646C458.686 216.646 448.506 219.663 448.506 223.384C448.506 227.105 458.686 230.121 471.245 230.121Z" fill="#3F3D56"/>
<path d="M424.459 224.591C433.371 225.699 441.489 219.413 442.592 210.549C443.694 201.686 437.364 193.603 428.452 192.495C419.541 191.387 411.423 197.673 410.32 206.537C409.217 215.4 415.548 223.483 424.459 224.591Z" fill="#2F2E41"/>
<path d="M430.161 229.905L435.133 229.643L434.646 220.817L429.674 221.079L430.161 229.905Z" fill="#2F2E41"/>
<path d="M420.279 230.469L425.251 230.207L424.764 221.382L419.792 221.644L420.279 230.469Z" fill="#2F2E41"/>
<path d="M422.652 232.599C424.557 231.359 425.723 229.775 425.256 229.062C424.789 228.348 422.866 228.775 420.961 230.015C419.055 231.255 417.889 232.838 418.356 233.552C418.823 234.265 420.746 233.839 422.652 232.599Z" fill="#2F2E41"/>
<path d="M432.328 232.05C434.233 230.81 435.399 229.227 434.932 228.513C434.465 227.799 432.542 228.226 430.637 229.466C428.731 230.706 427.565 232.289 428.032 233.003C428.499 233.717 430.422 233.29 432.328 232.05Z" fill="#2F2E41"/>
<path d="M425.12 209.958C428.166 210.337 430.941 208.188 431.318 205.159C431.695 202.13 429.531 199.367 426.485 198.988C423.44 198.61 420.665 200.758 420.288 203.788C419.911 206.817 422.075 209.579 425.12 209.958Z" fill="white"/>
<path d="M423.543 204.053C424.559 204.179 425.483 203.463 425.609 202.453C425.735 201.444 425.013 200.523 423.998 200.397C422.983 200.27 422.058 200.987 421.932 201.996C421.807 203.006 422.528 203.927 423.543 204.053Z" fill="#3F3D56"/>
<path d="M441.319 192.62C442.301 186.713 437.776 181.044 431.212 179.958C424.648 178.873 418.531 182.782 417.549 188.689C416.566 194.597 420.984 196.515 427.548 197.601C434.112 198.686 440.337 198.528 441.319 192.62Z" fill="#0081A7" fill-opacity="0.7"/>
<path d="M419.536 206.564C420.018 205.249 416.981 202.944 412.753 201.415C408.524 199.887 404.705 199.714 404.223 201.029C403.74 202.344 406.777 204.649 411.006 206.178C415.234 207.706 419.053 207.879 419.536 206.564Z" fill="#2F2E41"/>
<path d="M450.643 215.679C451.125 214.364 448.088 212.059 443.859 210.531C439.631 209.002 435.812 208.829 435.329 210.144C434.847 211.459 437.884 213.764 442.112 215.293C446.341 216.822 450.16 216.995 450.643 215.679Z" fill="#2F2E41"/>
<path d="M430.121 215.437C430.148 215.92 430.08 216.404 429.919 216.86C429.759 217.317 429.509 217.738 429.185 218.098C428.86 218.459 428.468 218.752 428.029 218.961C427.59 219.171 427.114 219.292 426.628 219.319C426.142 219.345 425.656 219.276 425.196 219.116C424.737 218.955 424.313 218.706 423.951 218.383C423.588 218.06 423.292 217.669 423.081 217.233C422.87 216.796 422.748 216.323 422.721 215.84C422.607 213.808 424.239 213.297 426.283 213.186C428.326 213.075 430.006 213.405 430.121 215.437Z" fill="white"/>
</svg>
