<svg width="342" height="257" viewBox="0 0 342 257" fill="none" xmlns="http://www.w3.org/2000/svg">
<path d="M257.744 78.7446H86.2197V79.5912H257.744V78.7446Z" fill="#CCCCCC"/>
<path d="M172.269 0.42395H171.423V79.167H172.269V0.42395Z" fill="#CCCCCC"/>
<path d="M244.077 39.3723H99.6162V40.2188H244.077V39.3723Z" fill="#CCCCCC"/>
<path d="M199.165 139.823C199.166 144.129 197.603 148.29 194.767 151.53C194.513 151.822 194.246 152.102 193.975 152.377H168.791C168.52 152.102 168.253 151.822 167.999 151.53C166.336 149.634 165.096 147.405 164.363 144.991C164.363 144.991 164.368 144.991 164.363 144.987C163.857 143.312 163.6 141.572 163.602 139.823C163.6 139.103 163.644 138.383 163.733 137.668C164.259 133.362 166.342 129.397 169.589 126.519C172.835 123.642 177.022 122.05 181.36 122.044C185.699 122.039 189.89 123.619 193.144 126.488C196.398 129.357 198.491 133.317 199.029 137.622C199.119 138.352 199.164 139.087 199.165 139.823Z" fill="#2F2E41"/>
<path d="M158.971 152.377H156.795L158.484 151.531L158.535 151.505L158.547 151.531L158.971 152.377Z" fill="#2F2E41"/>
<path d="M173.798 152.377H171.622L172.045 151.531L172.058 151.505L172.109 151.531L173.798 152.377Z" fill="#2F2E41"/>
<path d="M180.137 141.551C183.494 141.551 186.215 138.83 186.215 135.474C186.215 132.117 183.494 129.396 180.137 129.396C176.781 129.396 174.06 132.117 174.06 135.474C174.06 138.83 176.781 141.551 180.137 141.551Z" fill="white"/>
<path d="M179.499 138.118C180.287 137.33 180.282 136.048 179.489 135.255C178.695 134.462 177.414 134.457 176.626 135.245C175.838 136.033 175.842 137.315 176.636 138.108C177.429 138.901 178.711 138.906 179.499 138.118Z" fill="#3F3D56"/>
<path d="M195.41 120.478C195.678 113.895 190.004 108.319 182.737 108.024C175.471 107.728 169.363 112.826 169.096 119.409C168.829 125.993 173.88 127.488 181.146 127.784C188.413 128.079 195.143 127.061 195.41 120.478Z" fill="#0081A7"/>
<path d="M186.266 146.831C186.362 147.355 186.353 147.892 186.241 148.412C186.128 148.932 185.915 149.425 185.612 149.863C185.309 150.3 184.923 150.674 184.476 150.962C184.029 151.251 183.529 151.448 183.006 151.543C182.482 151.639 181.945 151.63 181.425 151.518C180.905 151.405 180.412 151.192 179.975 150.889C179.537 150.586 179.163 150.2 178.875 149.753C178.587 149.306 178.389 148.806 178.294 148.283L178.293 148.275C177.894 146.073 179.596 145.294 181.798 144.895C184 144.497 185.868 144.63 186.266 146.831Z" fill="white"/>
<path d="M273.854 151.53H65.6061C63.5855 151.53 61.6476 152.332 60.2188 153.761C58.79 155.19 57.9873 157.128 57.9873 159.148C57.9873 161.169 58.79 163.107 60.2188 164.536C61.6476 165.965 63.5855 166.767 65.6061 166.767H273.854C275.874 166.767 277.812 165.965 279.241 164.536C280.67 163.107 281.472 161.169 281.472 159.148C281.472 157.128 280.67 155.19 279.241 153.761C277.812 152.332 275.874 151.53 273.854 151.53Z" fill="#CCCCCC"/>
<path d="M258.193 86.3465V151.953H257.347V86.3465C257.347 84.0736 257.258 81.8218 257.08 79.5912C257.059 79.3076 257.038 79.0282 257.012 78.7447C255.8 65.0218 251.267 51.7997 243.806 40.2189C243.624 39.9353 243.442 39.6559 243.256 39.3723C235.515 27.5984 224.984 17.9206 212.599 11.1999C200.214 4.47922 186.36 0.924064 172.27 0.850771C172.13 0.846539 171.986 0.846535 171.847 0.846535C171.707 0.846535 171.563 0.846539 171.423 0.850771C169.819 0.855004 168.228 0.905796 166.649 1.00315C160.462 1.37254 154.335 2.41861 148.376 4.12263C145.001 5.0865 141.689 6.25982 138.459 7.63575C122.948 14.2588 109.726 25.2951 100.437 39.3723C100.251 39.6559 100.069 39.9353 99.8869 40.2189C92.4256 51.7997 87.8933 65.0218 86.6809 78.7447C86.6555 79.0282 86.6344 79.3076 86.6131 79.5912C86.4354 81.8218 86.3465 84.0736 86.3465 86.3465V151.953H85.5V86.3465C85.5 83.7731 85.6115 81.2292 85.8344 78.715C87.0668 64.6487 91.7559 51.1048 99.4848 39.2877C110.972 21.6164 128.52 8.7521 148.829 3.11525C154.774 1.47079 160.879 0.471754 167.038 0.135449C168.63 0.0465625 170.232 0.00141089 171.847 0C193.424 0.021629 214.212 8.11196 230.128 22.6812C246.043 37.2504 255.935 57.2451 257.859 78.7362C258.079 81.2419 258.19 83.7787 258.193 86.3465Z" fill="#3F3D56"/>
<path d="M147.989 212.512C171.951 212.921 171.947 248.564 147.988 248.97C124.027 248.56 124.03 212.917 147.989 212.512Z" fill="#2F2E41"/>
<path d="M145.221 245.047H139.683V254.969H145.221V245.047Z" fill="#2F2E41"/>
<path d="M156.296 245.047H150.758V254.969H156.296V245.047Z" fill="#2F2E41"/>
<path d="M144.298 253.354C150.282 253.311 150.282 256.858 144.297 256.815C138.314 256.857 138.314 253.311 144.298 253.354Z" fill="#2F2E41"/>
<path d="M155.373 253.123C161.357 253.081 161.357 256.627 155.373 256.584C149.389 256.627 149.389 253.08 155.373 253.123Z" fill="#2F2E41"/>
<path d="M148.45 219.896C156.598 219.932 156.597 232.32 148.45 232.356C140.303 232.319 140.303 219.931 148.45 219.896Z" fill="white"/>
<path d="M148.451 224.049C151.145 224.01 151.145 228.242 148.45 228.202C145.756 228.242 145.756 224.009 148.451 224.049Z" fill="#3F3D56"/>
<path d="M130.307 213.788C126.882 198.173 153.116 192.318 156.655 207.906C158.127 214.497 153.305 216.928 146.029 218.553C138.753 220.177 131.778 220.38 130.307 213.788Z" fill="#CCCCCC"/>
<path d="M155.935 163.574C160.182 152.453 165.534 154.499 161.28 165.618C157.034 176.738 151.681 174.692 155.935 163.574Z" fill="#2F2E41"/>
<path d="M123.765 175.441C128.007 151.854 163.19 157.567 159.752 181.282C155.51 204.868 120.328 199.155 123.765 175.441Z" fill="#2F2E41"/>
<path d="M138.99 192.667H133.452V202.589H138.99V192.667Z" fill="#2F2E41"/>
<path d="M150.066 192.667H144.528V202.589H150.066V192.667Z" fill="#2F2E41"/>
<path d="M138.067 200.974C144.051 200.932 144.051 204.478 138.067 204.435C132.083 204.478 132.083 200.931 138.067 200.974Z" fill="#2F2E41"/>
<path d="M149.143 200.744C155.127 200.701 155.127 204.248 149.143 204.205C143.159 204.247 143.159 200.701 149.143 200.744Z" fill="#2F2E41"/>
<path d="M124.076 161.409C120.651 145.794 146.885 139.939 150.425 155.526C151.897 162.117 147.074 164.548 139.799 166.173C132.523 167.798 125.548 168.001 124.076 161.409Z" fill="#0081A7"/>
<path d="M112.992 165.997C114.28 162.53 131.333 170.618 129.462 173.809C128.174 177.275 111.121 169.188 112.992 165.997Z" fill="#2F2E41"/>
<path d="M205.661 153.368C206.83 152.364 205.186 148.529 201.987 144.803C198.789 141.078 195.247 138.871 194.078 139.875C192.908 140.879 194.553 144.714 197.751 148.44C200.95 152.166 204.491 154.372 205.661 153.368Z" fill="#2F2E41"/>
<path d="M165.063 148.44C168.262 144.714 169.907 140.879 168.737 139.875C167.567 138.871 164.026 141.077 160.828 144.803C157.629 148.529 155.984 152.364 157.154 153.368C158.324 154.372 161.865 152.165 165.063 148.44Z" fill="#2F2E41"/>
<path d="M322.953 57.5651H297.981C296.858 57.5651 295.782 57.1191 294.988 56.3253C294.194 55.5316 293.748 54.455 293.748 53.3324C293.748 52.2098 294.194 51.1332 294.988 50.3394C295.782 49.5457 296.858 49.0997 297.981 49.0997V49.9463C297.083 49.9463 296.221 50.303 295.586 50.938C294.951 51.5731 294.595 52.4343 294.595 53.3324C294.595 54.2305 294.951 55.0917 295.586 55.7268C296.221 56.3618 297.083 56.7185 297.981 56.7185H322.953V57.5651Z" fill="#E6E6E6"/>
<path d="M297.133 79.9983H272.16C271.038 79.9983 269.961 79.5524 269.167 78.7586C268.374 77.9648 267.928 76.8882 267.928 75.7656C267.928 74.6431 268.374 73.5665 269.167 72.7727C269.961 71.9789 271.038 71.533 272.16 71.533V72.3795C271.262 72.3795 270.401 72.7362 269.766 73.3713C269.131 74.0063 268.774 74.8676 268.774 75.7656C268.774 76.6637 269.131 77.525 269.766 78.16C270.401 78.795 271.262 79.1518 272.16 79.1518H297.133V79.9983Z" fill="#E6E6E6"/>
<path d="M329.725 102.008V101.162C330.623 101.162 331.484 100.805 332.119 100.17C332.754 99.5348 333.111 98.6736 333.111 97.7755C333.111 96.8775 332.754 96.0162 332.119 95.3812C331.484 94.7461 330.623 94.3894 329.725 94.3894H304.752V93.5428H329.725C330.847 93.5428 331.924 93.9888 332.718 94.7826C333.511 95.5763 333.957 96.6529 333.957 97.7755C333.957 98.8981 333.511 99.9747 332.718 100.768C331.924 101.562 330.847 102.008 329.725 102.008Z" fill="#E6E6E6"/>
<path d="M337.768 24.9735V24.127C338.666 24.127 339.527 23.7702 340.162 23.1352C340.797 22.5002 341.154 21.6389 341.154 20.7409C341.154 19.8428 340.797 18.9815 340.162 18.3465C339.527 17.7115 338.666 17.3547 337.768 17.3547H312.795V16.5082H337.768C338.89 16.5082 339.967 16.9541 340.761 17.7479C341.554 18.5417 342 19.6183 342 20.7409C342 21.8634 341.554 22.94 340.761 23.7338C339.967 24.5276 338.89 24.9735 337.768 24.9735Z" fill="#E6E6E6"/>
<path d="M298.827 33.0156H273.854C272.731 33.0156 271.655 32.5697 270.861 31.7759C270.067 30.9821 269.621 29.9055 269.621 28.783C269.621 27.6604 270.067 26.5838 270.861 25.79C271.655 24.9962 272.731 24.5503 273.854 24.5503V25.3968C272.956 25.3968 272.094 25.7536 271.459 26.3886C270.824 27.0236 270.468 27.8849 270.468 28.783C270.468 29.681 270.824 30.5423 271.459 31.1773C272.094 31.8124 272.956 32.1691 273.854 32.1691H298.827V33.0156Z" fill="#E6E6E6"/>
<path d="M55.0248 113.436H30.052C28.9294 113.436 27.8528 112.99 27.0591 112.197C26.2653 111.403 25.8193 110.326 25.8193 109.204C25.8193 108.081 26.2653 107.005 27.0591 106.211C27.8528 105.417 28.9294 104.971 30.052 104.971V105.818C29.1539 105.818 28.2927 106.174 27.6576 106.809C27.0226 107.444 26.6659 108.306 26.6659 109.204C26.6659 110.102 27.0226 110.963 27.6576 111.598C28.2927 112.233 29.1539 112.59 30.052 112.59H55.0248V113.436Z" fill="#E6E6E6"/>
<path d="M68.1456 127.828V126.981C69.0437 126.981 69.905 126.624 70.54 125.989C71.175 125.354 71.5318 124.493 71.5318 123.595C71.5318 122.697 71.175 121.836 70.54 121.2C69.905 120.565 69.0437 120.209 68.1456 120.209H43.1729V119.362H68.1456C69.2682 119.362 70.3448 119.808 71.1386 120.602C71.9324 121.396 72.3783 122.472 72.3783 123.595C72.3783 124.717 71.9324 125.794 71.1386 126.588C70.3448 127.382 69.2682 127.828 68.1456 127.828Z" fill="#E6E6E6"/>
<path d="M29.2054 135.87H4.23267C3.1101 135.87 2.0335 135.424 1.23972 134.63C0.445938 133.836 0 132.759 0 131.637C0 130.514 0.445938 129.438 1.23972 128.644C2.0335 127.85 3.1101 127.404 4.23267 127.404V128.251C3.33461 128.251 2.47333 128.607 1.83831 129.242C1.20328 129.878 0.846535 130.739 0.846535 131.637C0.846535 132.535 1.20328 133.396 1.83831 134.031C2.47333 134.666 3.33461 135.023 4.23267 135.023H29.2054V135.87Z" fill="#E6E6E6"/>
<path d="M56.7181 66.4538H31.7454C30.6228 66.4538 29.5462 66.0078 28.7524 65.214C27.9586 64.4202 27.5127 63.3437 27.5127 62.2211C27.5127 61.0985 27.9586 60.0219 28.7524 59.2281C29.5462 58.4343 30.6228 57.9884 31.7454 57.9884V58.8349C30.8473 58.8349 29.986 59.1917 29.351 59.8267C28.716 60.4617 28.3592 61.323 28.3592 62.2211C28.3592 63.1191 28.716 63.9804 29.351 64.6154C29.986 65.2505 30.8473 65.6072 31.7454 65.6072H56.7181V66.4538Z" fill="#E6E6E6"/>
<path d="M69.839 80.8449V79.9983C70.7371 79.9983 71.5983 79.6416 72.2334 79.0065C72.8684 78.3715 73.2251 77.5103 73.2251 76.6122C73.2251 75.7141 72.8684 74.8529 72.2334 74.2178C71.5983 73.5828 70.7371 73.2261 69.839 73.2261H44.8662V72.3795H69.839C70.9616 72.3795 72.0382 72.8255 72.8319 73.6192C73.6257 74.413 74.0717 75.4896 74.0717 76.6122C74.0717 77.7348 73.6257 78.8114 72.8319 79.6051C72.0382 80.3989 70.9616 80.8449 69.839 80.8449Z" fill="#E6E6E6"/>
<path d="M30.8988 88.8869H5.92603C4.80346 88.8869 3.72686 88.4409 2.93308 87.6471C2.1393 86.8534 1.69336 85.7768 1.69336 84.6542C1.69336 83.5316 2.1393 82.455 2.93308 81.6612C3.72686 80.8674 4.80346 80.4215 5.92603 80.4215V81.268C5.02797 81.268 4.16669 81.6248 3.53167 82.2598C2.89664 82.8948 2.53989 83.7561 2.53989 84.6542C2.53989 85.5522 2.89664 86.4135 3.53167 87.0485C4.16669 87.6836 5.02797 88.0403 5.92603 88.0403H30.8988V88.8869Z" fill="#E6E6E6"/>
<path d="M236.607 196.82H211.634C210.511 196.82 209.435 196.374 208.641 195.58C207.847 194.787 207.401 193.71 207.401 192.587C207.401 191.465 207.847 190.388 208.641 189.594C209.435 188.801 210.511 188.355 211.634 188.355V189.201C210.736 189.201 209.875 189.558 209.24 190.193C208.605 190.828 208.248 191.689 208.248 192.587C208.248 193.485 208.605 194.347 209.24 194.982C209.875 195.617 210.736 195.974 211.634 195.974H236.607V196.82Z" fill="#E6E6E6"/>
<path d="M264.542 219.677V218.83C265.44 218.83 266.301 218.473 266.936 217.838C267.571 217.203 267.928 216.342 267.928 215.444C267.928 214.546 267.571 213.685 266.936 213.049C266.301 212.414 265.44 212.058 264.542 212.058H239.569V211.211H264.542C265.665 211.211 266.741 211.657 267.535 212.451C268.329 213.245 268.775 214.321 268.775 215.444C268.775 216.566 268.329 217.643 267.535 218.437C266.741 219.231 265.665 219.677 264.542 219.677Z" fill="#E6E6E6"/>
<path d="M213.75 223.909H188.778C187.655 223.909 186.578 223.463 185.785 222.669C184.991 221.876 184.545 220.799 184.545 219.677C184.545 218.554 184.991 217.477 185.785 216.684C186.578 215.89 187.655 215.444 188.778 215.444V216.29C187.88 216.29 187.018 216.647 186.383 217.282C185.748 217.917 185.391 218.778 185.391 219.677C185.391 220.575 185.748 221.436 186.383 222.071C187.018 222.706 187.88 223.063 188.778 223.063H213.75V223.909Z" fill="#E6E6E6"/>
<path d="M123.171 221.793V220.946C124.069 220.946 124.93 220.59 125.565 219.955C126.2 219.32 126.557 218.458 126.557 217.56C126.557 216.662 126.2 215.801 125.565 215.166C124.93 214.531 124.069 214.174 123.171 214.174H98.1982V213.328H123.171C124.294 213.328 125.37 213.773 126.164 214.567C126.958 215.361 127.404 216.438 127.404 217.56C127.404 218.683 126.958 219.759 126.164 220.553C125.37 221.347 124.294 221.793 123.171 221.793Z" fill="#E6E6E6"/>
<path d="M47.8295 232.375H22.8567C21.7341 232.375 20.6575 231.929 19.8637 231.135C19.07 230.341 18.624 229.264 18.624 228.142C18.624 227.019 19.07 225.943 19.8637 225.149C20.6575 224.355 21.7341 223.909 22.8567 223.909V224.756C21.9586 224.756 21.0974 225.112 20.4623 225.747C19.8273 226.383 19.4706 227.244 19.4706 228.142C19.4706 229.04 19.8273 229.901 20.4623 230.536C21.0974 231.171 21.9586 231.528 22.8567 231.528H47.8295V232.375Z" fill="#E6E6E6"/>
<path d="M216.241 256.924H54.976C54.8637 256.924 54.7561 256.879 54.6767 256.8C54.5973 256.721 54.5527 256.613 54.5527 256.501C54.5527 256.389 54.5973 256.281 54.6767 256.201C54.7561 256.122 54.8637 256.078 54.976 256.078H216.241C216.353 256.078 216.461 256.122 216.54 256.201C216.62 256.281 216.664 256.389 216.664 256.501C216.664 256.613 216.62 256.721 216.54 256.8C216.461 256.879 216.353 256.924 216.241 256.924Z" fill="#3F3D56"/>
<path d="M78.9517 256.598C78.6256 257.347 77.5338 256.7 77.8553 255.959C79.3514 252.457 80.3721 248.77 80.8901 244.996C81.7716 238.523 81.274 231.937 79.43 225.67C79.3622 225.446 79.2944 225.217 79.2268 224.993C79.0658 224.476 78.8965 223.96 78.7188 223.452C76.6916 217.54 73.4178 212.133 69.119 207.596C68.5562 207.004 69.4534 206.107 70.0164 206.699C72.7406 209.55 75.067 212.757 76.9325 216.231C77.8241 217.885 78.6129 219.593 79.2944 221.344C79.5612 222.026 79.8109 222.716 80.0479 223.406C81.4348 227.517 82.262 231.797 82.5071 236.129C82.9216 243.135 81.7046 250.142 78.9517 256.598Z" fill="#3F3D56"/>
<path d="M88.6445 191.91C87.235 197.07 85.8269 202.229 84.4203 207.389C82.9599 212.731 81.5025 218.069 80.0479 223.405C79.8404 224.163 79.6344 224.918 79.4299 225.67C79.3621 225.446 79.2944 225.217 79.2268 224.993C79.0658 224.476 78.8965 223.96 78.7188 223.452C78.9093 222.749 79.0996 222.047 79.2943 221.344C79.5568 220.383 79.8193 219.422 80.0818 218.462C82.5282 209.497 84.9746 200.533 87.4211 191.571C87.4703 191.414 87.5787 191.282 87.7234 191.203C87.8681 191.124 88.0378 191.105 88.1967 191.149C88.3555 191.193 88.491 191.297 88.5746 191.439C88.6582 191.581 88.6832 191.75 88.6445 191.91Z" fill="#3F3D56"/>
<path d="M62.5347 193.759C61.7946 195.383 61.0479 197.028 60.7276 198.783C60.4074 200.539 60.5532 202.445 61.5027 203.956C62.3102 205.111 63.3888 206.05 64.6438 206.69C66.416 207.701 68.7203 208.415 70.4151 207.279C72.1269 206.133 72.3088 203.541 71.3498 201.717C70.3908 199.893 68.609 198.67 66.8709 197.564C65.1327 196.457 63.7705 195.582 62.6434 193.857L62.5347 193.759Z" fill="#0081A7"/>
<path d="M92.6933 177.214C90.9979 177.77 89.2827 178.336 87.775 179.291C86.2672 180.245 84.9644 181.645 84.4972 183.367C84.1957 184.744 84.2367 186.173 84.6165 187.53C85.0748 189.518 86.1119 191.696 88.0956 192.172C90.0992 192.653 92.1279 191.03 92.8186 189.089C93.5093 187.147 93.2007 185.008 92.836 182.98C92.4713 180.952 92.191 179.358 92.6951 177.36L92.6933 177.214Z" fill="#0081A7"/>
<path d="M62.2695 213.857C62.7405 215.578 63.2197 217.319 64.0974 218.873C64.9752 220.427 66.3078 221.798 68.0045 222.351C69.3641 222.721 70.7937 222.752 72.1679 222.44C74.1763 222.082 76.4036 221.156 76.9787 219.198C77.5596 217.221 76.0401 215.114 74.1359 214.327C72.2317 213.54 70.0798 213.741 68.0361 214.003C65.9924 214.266 64.3858 214.466 62.4157 213.862L62.2695 213.857Z" fill="#0081A7"/>
<path d="M67.3486 236.29C67.8196 238.011 68.2988 239.752 69.1765 241.306C70.0543 242.86 71.3869 244.231 73.0836 244.784C74.4432 245.154 75.8728 245.185 77.247 244.874C79.2554 244.515 81.4827 243.589 82.0578 241.632C82.6387 239.655 81.1192 237.547 79.215 236.76C77.3108 235.973 75.1589 236.174 73.1152 236.436C71.0715 236.699 69.4649 236.899 67.4948 236.295L67.3486 236.29Z" fill="#0081A7"/>
<path d="M95.1862 221.475C94.7152 223.197 94.2361 224.938 93.3583 226.492C92.4805 228.045 91.1479 229.417 89.4512 229.97C88.0916 230.34 86.662 230.371 85.2878 230.059C83.2795 229.701 81.0521 228.774 80.477 226.817C79.8962 224.84 81.4156 222.733 83.3198 221.946C85.224 221.158 87.376 221.359 89.4197 221.622C91.4634 221.885 93.0699 222.085 95.04 221.481L95.1862 221.475Z" fill="#0081A7"/>
<path d="M100.265 198.619C99.7943 200.34 99.3152 202.082 98.4374 203.635C97.5596 205.189 96.227 206.56 94.5303 207.113C93.1707 207.483 91.7411 207.514 90.3669 207.203C88.3586 206.845 86.1312 205.918 85.5561 203.961C84.9753 201.984 86.4947 199.876 88.3989 199.089C90.3032 198.302 92.4551 198.503 94.4988 198.766C96.5425 199.028 98.149 199.228 100.119 198.625L100.265 198.619Z" fill="#0081A7"/>
</svg>
