<svg width="446" height="277" viewBox="0 0 446 277" fill="none" xmlns="http://www.w3.org/2000/svg">
<path d="M5 44C5 39.5817 8.59473 36 13.029 36H383.971C388.405 36 392 39.5817 392 44V269C392 273.418 388.405 277 383.971 277H13.029C8.59473 277 5 273.418 5 269V44Z" fill="#FAD4E9"/>
<path d="M0 38C0 33.5817 3.58544 30 8.0083 30H377.992C382.415 30 386 33.5817 386 38V263C386 267.418 382.415 271 377.992 271H8.0083C3.58544 271 0 267.418 0 263V38Z" fill="#F8F8F8"/>
<rect opacity="0.3" x="34" y="157.155" width="182.996" height="96.8804" fill="#E58A10"/>
<rect opacity="0.3" x="217.296" y="157.296" width="166.408" height="96.4085" fill="#8C70B9" stroke="#8C70B9" stroke-width="0.5915"/>
<circle cx="49.7772" cy="170.253" r="4.81724" fill="#E93B89"/>
<path fill-rule="evenodd" clip-rule="evenodd" d="M129.421 57.7907H58.8418V51.1664H129.421V57.7907Z" fill="#BBC5AA"/>
<path fill-rule="evenodd" clip-rule="evenodd" d="M142.29 75.1795L67.4209 75.1794L67.4209 68.5551L142.29 68.5552L142.29 75.1795Z" fill="#BBC5AA"/>
<path fill-rule="evenodd" clip-rule="evenodd" d="M94.0042 110.017H58.8418V103.393H94.0042V110.017Z" fill="#BBC5AA"/>
<path fill-rule="evenodd" clip-rule="evenodd" d="M86.1381 94.2845H67.4209V87.6602H86.1381V94.2845Z" fill="#BBC5AA"/>
<path fill-rule="evenodd" clip-rule="evenodd" d="M171.83 123.876L73.9043 123.876L73.9043 117.251L171.83 117.251L171.83 123.876Z" fill="#BBC5AA"/>
<path fill-rule="evenodd" clip-rule="evenodd" d="M104.852 140.523L67.4209 140.523L67.4209 133.898L104.852 133.898L104.852 140.523Z" fill="#BBC5AA"/>
<path fill-rule="evenodd" clip-rule="evenodd" d="M188.844 157.169H83.3564V150.545H188.844V157.169Z" fill="#BBC5AA"/>
<path fill-rule="evenodd" clip-rule="evenodd" d="M143.039 173.816H67.4209V167.192H143.039V173.816Z" fill="#E58A10"/>
<path fill-rule="evenodd" clip-rule="evenodd" d="M106.025 190.277H74.0498V183.652H106.025V190.277Z" fill="#E58A10"/>
<path fill-rule="evenodd" clip-rule="evenodd" d="M136.05 206.887L74.0492 207.11L74.0439 200.486L136.045 200.262L136.05 206.887Z" fill="#E58A10"/>
<path fill-rule="evenodd" clip-rule="evenodd" d="M176.604 224.226H59.2314V217.602H176.604V224.226Z" fill="#E58A10"/>
<path fill-rule="evenodd" clip-rule="evenodd" d="M125.911 240.787H59.2314V234.163H125.911V240.787Z" fill="#E58A10"/>
<path fill-rule="evenodd" clip-rule="evenodd" d="M316.156 57.7907H240.182V51.1664H316.156V57.7907Z" fill="#BBC5AA"/>
<path fill-rule="evenodd" clip-rule="evenodd" d="M330.007 75.1795L249.416 75.1794L249.416 68.5551L330.007 68.5552L330.007 75.1795Z" fill="#BBC5AA"/>
<path fill-rule="evenodd" clip-rule="evenodd" d="M278.032 110.017H240.182V103.393H278.032V110.017Z" fill="#BBC5AA"/>
<path fill-rule="evenodd" clip-rule="evenodd" d="M269.564 94.2845H249.416V87.6602H269.564V94.2845Z" fill="#BBC5AA"/>
<path fill-rule="evenodd" clip-rule="evenodd" d="M361.806 123.876L256.396 123.876L256.396 117.251L361.806 117.251L361.806 123.876Z" fill="#BBC5AA"/>
<path fill-rule="evenodd" clip-rule="evenodd" d="M289.708 140.523L249.416 140.523L249.416 133.898L289.708 133.898L289.708 140.523Z" fill="#BBC5AA"/>
<path fill-rule="evenodd" clip-rule="evenodd" d="M380.119 157.169H266.569V150.545H380.119V157.169Z" fill="#BBC5AA"/>
<path fill-rule="evenodd" clip-rule="evenodd" d="M330.814 173.816H249.416V167.192H330.814V173.816Z" fill="#8C70B9"/>
<path fill-rule="evenodd" clip-rule="evenodd" d="M290.971 190.277H256.552V183.652H290.971V190.277Z" fill="#8C70B9"/>
<path fill-rule="evenodd" clip-rule="evenodd" d="M323.291 206.887L256.552 207.11L256.546 200.486L323.285 200.262L323.291 206.887Z" fill="#8C70B9"/>
<path fill-rule="evenodd" clip-rule="evenodd" d="M366.945 224.226H240.602V217.602H366.945V224.226Z" fill="#8C70B9"/>
<path fill-rule="evenodd" clip-rule="evenodd" d="M312.378 240.787H240.602V234.163H312.378V240.787Z" fill="#8C70B9"/>
<path fill-rule="evenodd" clip-rule="evenodd" d="M378.875 32.0003H7.12525C4.29598 32.0003 2.00239 34.2915 2.00239 37.1179V263.882C2.00239 266.708 4.29597 269 7.12525 269H378.875C381.704 269 383.998 266.708 383.998 263.882V37.1179C383.998 34.2915 381.704 32.0003 378.875 32.0003ZM7.12525 30C3.19009 30 0 33.1868 0 37.1179V263.882C0 267.813 3.19008 271 7.12525 271H378.875C382.81 271 386 267.813 386 263.882V37.1179C386 33.1868 382.81 30 378.875 30H7.12525Z" fill="#202020"/>
<g clip-path="url(#clip0_189:4318)">
<path d="M370.183 257.683H336.507C335.152 257.683 334.04 256.564 334.04 255.193V236.545C334.04 235.173 335.152 234.048 336.507 234.048H370.183C371.538 234.048 372.644 235.173 372.644 236.545V255.193C372.644 256.564 371.538 257.683 370.183 257.683Z" fill="#AFADAA"/>
<path fill-rule="evenodd" clip-rule="evenodd" d="M349.975 237.172L345.347 254.568H347.92L352.549 237.172H349.975ZM357.621 243.07L357.352 239.839V239.846H355.522L355.254 243.076L352.037 242.229L351.493 244.195L354.541 245.402L352.693 248.24L354.154 249.328L356.484 246.761L358.72 249.328L360.126 248.177L358.277 245.396L361.294 244.188L360.669 242.286L357.621 243.07Z" fill="white"/>
</g>
<path d="M0 37.1068C0 33.1818 3.18182 30 7.1068 30H33.6111V270.625H7.1068C3.18183 270.625 0 267.443 0 263.518V37.1068Z" fill="#C4C4C4"/>
<path fill-rule="evenodd" clip-rule="evenodd" d="M31.6139 31.9972H7.1068C4.28485 31.9972 1.9972 34.2848 1.9972 37.1068V263.518C1.9972 266.34 4.28485 268.628 7.1068 268.628H31.6139V31.9972ZM7.1068 30C3.18182 30 0 33.1818 0 37.1068V263.518C0 267.443 3.18183 270.625 7.1068 270.625H33.6111V30H7.1068Z" fill="#202020"/>
<circle cx="16.8057" cy="49.8611" r="6.875" fill="#202020"/>
<circle cx="16.8057" cy="71.2503" r="6.875" fill="#202020"/>
<circle cx="16.8057" cy="92.6387" r="6.875" fill="#202020"/>
<circle cx="16.8057" cy="114.028" r="6.875" fill="#202020"/>
<g>
<path d="M355.967 110.333C355.967 107.019 358.653 104.333 361.967 104.333H435.255C438.568 104.333 441.255 107.019 441.255 110.333V168.741C441.255 172.055 438.568 174.741 435.255 174.741H425.193C424.588 174.741 423.986 174.833 423.409 175.013L378.966 188.853C375.104 190.055 371.182 187.169 371.182 183.124V180.741C371.182 177.427 368.496 174.741 365.182 174.741H361.967C358.653 174.741 355.967 172.055 355.967 168.741V110.333Z" fill="#0081A7"/>
</g>
<path d="M389.282 145.528V132.89C391.892 132.203 393.861 129.822 393.861 126.983C393.861 123.641 391.114 120.893 387.726 120.893C384.337 120.893 381.636 123.641 381.636 126.983C381.636 129.822 383.605 132.203 386.215 132.89V145.528C383.605 146.214 381.636 148.595 381.636 151.434C381.636 154.777 384.383 157.524 387.726 157.524C391.068 157.524 393.815 154.777 393.815 151.434C393.861 148.595 391.892 146.214 389.282 145.528Z" fill="#F4F4F4"/>
<path d="M413.687 145.528V131.562C413.687 128.22 410.94 125.472 407.598 125.472H402.103L404.53 123.046L402.378 120.893L397.341 125.93C396.746 126.525 396.746 127.487 397.341 128.082L402.378 133.119L404.53 130.967L402.103 128.54H407.598C409.292 128.54 410.665 129.914 410.665 131.608V145.573C408.055 146.26 406.087 148.641 406.087 151.48C406.087 154.868 408.834 157.57 412.176 157.57C415.519 157.57 418.266 154.777 418.266 151.434C418.266 148.595 416.297 146.214 413.687 145.528Z" fill="#F4F4F4"/>
<g>
<path d="M256.742 6C256.742 2.6863 259.428 0 262.742 0H435.395C438.708 0 441.395 2.68629 441.395 6V64.7437C441.395 68.0574 438.708 70.7437 435.395 70.7437H368.522C368.103 70.7437 367.686 70.7876 367.276 70.8747L296.931 85.8185C293.198 86.6113 289.684 83.765 289.684 79.9494V76.7437C289.684 73.43 286.998 70.7437 283.684 70.7437H262.742C259.428 70.7437 256.742 68.0574 256.742 64.7437V6Z" fill="#0081A7"/>
</g>
<path d="M322.091 34.3635C322.097 31.2704 321.33 28.2249 319.86 25.5035C318.39 22.7821 316.264 20.4711 313.674 18.7805C311.083 17.0899 308.112 16.0733 305.029 15.8229C301.946 15.5726 298.849 16.0966 296.02 17.3471C293.191 18.5977 290.72 20.5353 288.83 22.9839C286.94 25.4325 285.692 28.3145 285.199 31.368C284.706 34.4215 284.984 37.5498 286.007 40.4687C287.031 43.3876 288.767 46.0045 291.059 48.0817C291.14 48.189 291.243 48.2787 291.36 48.3455C294.723 51.2931 299.043 52.9181 303.515 52.9181C307.987 52.9181 312.306 51.2931 315.67 48.3455H315.679C315.796 48.2787 315.899 48.189 315.98 48.0817C317.9 46.3485 319.436 44.2324 320.488 41.8696C321.541 39.5069 322.087 36.95 322.091 34.3635ZM303.526 17.753C306.765 17.7547 309.932 18.7028 312.638 20.4807C315.344 22.2586 317.472 24.7887 318.759 27.7599C320.047 30.7312 320.437 34.0139 319.884 37.2043C319.33 40.3947 317.856 43.3536 315.642 45.7172C314.587 43.6262 311.656 40.3041 303.526 40.3041C295.397 40.3041 292.466 43.6262 291.411 45.7172C289.197 43.3536 287.723 40.3947 287.169 37.2043C286.615 34.0139 287.006 30.7312 288.294 27.7599C289.581 24.7887 291.709 22.2586 294.415 20.4807C297.121 18.7028 300.288 17.7547 303.526 17.753ZM295.553 29.7321C295.55 28.1544 296.014 26.6109 296.888 25.2972C297.761 23.9835 299.005 22.9585 300.462 22.3521C301.918 21.7456 303.522 21.5849 305.07 21.8904C306.618 22.1958 308.04 22.9536 309.157 24.0679C310.274 25.1821 311.036 26.6028 311.345 28.1499C311.654 29.697 311.497 31.3011 310.894 32.7592C310.292 34.2172 309.27 35.4635 307.958 36.3405C306.646 37.2174 305.104 37.6856 303.526 37.6856C301.416 37.6835 299.392 36.8455 297.898 35.355C296.404 33.8644 295.561 31.8426 295.553 29.7321Z" fill="#F4F4F4"/>
<line x1="338.233" y1="19.529" x2="419.828" y2="19.529" stroke="#F4F4F4" stroke-width="4" stroke-linecap="round"/>
<line x1="338.233" y1="33.2353" x2="419.828" y2="33.2353" stroke="#F4F4F4" stroke-width="4" stroke-linecap="round"/>
<line x1="338.233" y1="46.9418" x2="419.828" y2="46.9418" stroke="#F4F4F4" stroke-width="4" stroke-linecap="round"/>
<defs>
<clipPath id="clip0_189:4318">
<rect width="38.6037" height="23.6349" fill="white" transform="translate(334.04 234.048)"/>
</clipPath>
</defs>
</svg>
