<svg width="306" height="209" viewBox="0 0 306 209" fill="none" xmlns="http://www.w3.org/2000/svg">
<path d="M305.382 7.09375H47.1104V129.912H305.382V7.09375Z" fill="#E6E6E6"/>
<path d="M297.996 17.6289H54.4951V120.1H297.996V17.6289Z" fill="white"/>
<path d="M305.271 0H47V10.9958H305.271V0Z" fill="#CBCBCB"/>
<path d="M55.1538 8.50183C56.2769 8.50183 57.1874 7.58937 57.1874 6.4638C57.1874 5.33823 56.2769 4.42578 55.1538 4.42578C54.0306 4.42578 53.1201 5.33823 53.1201 6.4638C53.1201 7.58937 54.0306 8.50183 55.1538 8.50183Z" fill="white"/>
<path d="M62.8725 8.50183C63.9957 8.50183 64.9062 7.58937 64.9062 6.4638C64.9062 5.33823 63.9957 4.42578 62.8725 4.42578C61.7494 4.42578 60.8389 5.33823 60.8389 6.4638C60.8389 7.58937 61.7494 8.50183 62.8725 8.50183Z" fill="white"/>
<path d="M70.5923 8.50183C71.7154 8.50183 72.6259 7.58937 72.6259 6.4638C72.6259 5.33823 71.7154 4.42578 70.5923 4.42578C69.4691 4.42578 68.5586 5.33823 68.5586 6.4638C68.5586 7.58937 69.4691 8.50183 70.5923 8.50183Z" fill="white"/>
<path d="M229.103 33.207H194.809V35.7902H229.103V33.207Z" fill="#E6E6E6"/>
<path d="M247.766 40.7891H194.809V43.3722H247.766V40.7891Z" fill="#E6E6E6"/>
<path d="M238.518 48.0117H195.358V50.5949H238.518V48.0117Z" fill="#E6E6E6"/>
<path d="M220.004 55.9375H194.809V58.5207H220.004V55.9375Z" fill="#E6E6E6"/>
<path d="M232.835 63.6758H194.809V66.2589H232.835V63.6758Z" fill="#E6E6E6"/>
<path d="M183.377 32.3945H179.178V36.6028H183.377V32.3945Z" fill="#E6E6E6"/>
<path d="M183.377 39.9766H179.178V44.1849H183.377V39.9766Z" fill="#E6E6E6"/>
<path d="M183.377 47.1992H179.178V51.4075H183.377V47.1992Z" fill="#E6E6E6"/>
<path d="M183.377 55.125H179.178V59.3333H183.377V55.125Z" fill="#E6E6E6"/>
<path d="M183.377 62.8633H179.178V67.0716H183.377V62.8633Z" fill="#E6E6E6"/>
<path d="M229.103 71.4648H194.809V74.048H229.103V71.4648Z" fill="#E6E6E6"/>
<path d="M247.766 79.0469H194.809V81.63H247.766V79.0469Z" fill="#E6E6E6"/>
<path d="M238.518 86.2695H195.358V88.8527H238.518V86.2695Z" fill="#E6E6E6"/>
<path d="M220.004 94.1953H194.809V96.7785H220.004V94.1953Z" fill="#E6E6E6"/>
<path d="M232.835 101.934H194.809V104.517H232.835V101.934Z" fill="#E6E6E6"/>
<path d="M183.377 70.6523H179.178V74.8607H183.377V70.6523Z" fill="#E6E6E6"/>
<path d="M183.377 78.2344H179.178V82.4427H183.377V78.2344Z" fill="#E6E6E6"/>
<path d="M183.377 85.457H179.178V89.6654H183.377V85.457Z" fill="#E6E6E6"/>
<path d="M183.377 93.3828H179.178V97.5911H183.377V93.3828Z" fill="#E6E6E6"/>
<path d="M183.377 101.125H179.178V105.333H183.377V101.125Z" fill="#E6E6E6"/>
<path d="M120.613 91.7266H86.3193V94.3097H120.613V91.7266Z" fill="#E6E6E6"/>
<path d="M124.89 98.4414H81.7305V101.025H124.89V98.4414Z" fill="#E6E6E6"/>
<path d="M125.756 59.1434C125.754 63.0258 124.748 66.8415 122.835 70.2178C120.923 73.5941 118.169 76.4156 114.843 78.4067C111.518 80.3978 107.733 81.4905 103.86 81.5781C99.9873 81.6656 96.1577 80.745 92.7457 78.9062L92.7414 78.9018C89.2562 77.0202 86.331 74.2463 84.2639 70.8628C82.1968 67.4793 81.0617 63.6071 80.9742 59.6408C80.8867 55.6745 81.85 51.7558 83.7658 48.284C85.6817 44.8123 88.4817 41.9116 91.8805 39.8774C95.2794 37.8433 99.1555 36.7485 103.114 36.7045C107.073 36.6605 110.972 37.669 114.415 39.6271C117.858 41.5853 120.721 44.4231 122.714 47.8515C124.706 51.2798 125.755 55.1761 125.756 59.1434V59.1434Z" fill="#E6E6E6"/>
<path d="M103.478 58.0521C106.84 58.0521 109.565 55.3209 109.565 51.9518C109.565 48.5828 106.84 45.8516 103.478 45.8516C100.116 45.8516 97.3906 48.5828 97.3906 51.9518C97.3906 55.3209 100.116 58.0521 103.478 58.0521Z" fill="white"/>
<path d="M113.871 70.6572C107.066 73.0509 99.6462 73.0221 92.8598 70.5756L92.8555 70.5726L97.3904 61.6016H109.565L113.871 70.6572Z" fill="white"/>
<path d="M175.343 114.843C164.733 114.843 156.102 105.654 156.102 94.3589C156.102 83.064 164.733 73.875 175.343 73.875C185.953 73.875 194.585 83.064 194.585 94.3589C194.585 105.654 185.953 114.843 175.343 114.843ZM175.343 79.0508C167.581 79.0508 161.266 85.9179 161.266 94.3589C161.266 102.8 167.581 109.667 175.343 109.667C183.105 109.667 189.42 102.8 189.42 94.3589C189.42 85.9179 183.105 79.0508 175.343 79.0508Z" fill="#0081A7"/>
<path d="M193.564 150.541H157.121C153.908 150.537 150.827 149.256 148.554 146.979C146.282 144.702 145.004 141.614 145 138.393V102.57C145.002 100.366 145.878 98.2517 147.433 96.6926C148.989 95.1334 151.098 94.2564 153.298 94.2539H197.386C199.587 94.2564 201.696 95.1334 203.252 96.6926C204.807 98.2517 205.682 100.366 205.685 102.57V138.393C205.681 141.614 204.403 144.702 202.131 146.979C199.858 149.256 196.777 150.537 193.564 150.541Z" fill="#3F3D56"/>
<path d="M182.444 114.634C182.445 113.369 182.109 112.126 181.472 111.034C180.834 109.942 179.918 109.041 178.817 108.422C177.716 107.803 176.47 107.489 175.208 107.513C173.946 107.537 172.713 107.898 171.636 108.558C170.56 109.218 169.678 110.154 169.082 111.269C168.486 112.385 168.198 113.639 168.247 114.903C168.295 116.167 168.679 117.396 169.359 118.461C170.039 119.527 170.99 120.392 172.115 120.967V132.102H178.571V120.967C179.736 120.372 180.715 119.466 181.398 118.348C182.082 117.23 182.444 115.945 182.444 114.634Z" fill="white"/>
<path d="M48.3358 187.616C31.2456 187.616 17.3913 173.837 17.3913 156.84C17.3913 139.844 31.2456 126.065 48.3358 126.065C65.4259 126.065 79.2803 139.844 79.2803 156.84C79.2803 173.837 65.4259 187.616 48.3358 187.616Z" fill="#2F2E41"/>
<path d="M36.3843 196.257L27.1338 194.592L30.1342 178.109L39.3847 179.774L36.3843 196.257Z" fill="#2F2E41"/>
<path d="M54.8853 199.588L45.6348 197.923L48.6351 181.44L57.8856 183.105L54.8853 199.588Z" fill="#2F2E41"/>
<path d="M49.9746 203.057C46.6729 200.276 44.8464 197.023 45.8949 195.792C46.9435 194.561 50.4701 195.817 53.7718 198.598C57.0734 201.379 58.9 204.631 57.8514 205.863C56.8028 207.094 53.2763 205.838 49.9746 203.057Z" fill="#2F2E41"/>
<path d="M31.8584 199.795C28.5567 197.015 26.7302 193.762 27.7787 192.531C28.8273 191.299 32.3539 192.555 35.6555 195.336C38.9572 198.117 40.7838 201.37 39.7352 202.601C38.6866 203.833 35.1601 202.576 31.8584 199.795Z" fill="#2F2E41"/>
<path d="M50.5022 159.831C44.6612 159.831 39.9262 155.122 39.9262 149.313C39.9262 143.504 44.6612 138.795 50.5022 138.795C56.3431 138.795 61.0781 143.504 61.0781 149.313C61.0781 155.122 56.3431 159.831 50.5022 159.831Z" fill="white"/>
<path d="M54.8496 149.049C52.9026 149.049 51.3243 147.479 51.3243 145.543C51.3243 143.606 52.9026 142.037 54.8496 142.037C56.7966 142.037 58.375 143.606 58.375 145.543C58.375 147.479 56.7966 149.049 54.8496 149.049Z" fill="#3F3D56"/>
<path d="M23.9253 123.361C23.46 111.967 33.3335 102.317 45.9784 101.806C58.6234 101.295 69.2514 110.118 69.7167 121.511C70.1821 132.904 61.3922 135.493 48.7473 136.004C36.1023 136.515 24.3907 134.754 23.9253 123.361Z" fill="#0081A7" fill-opacity="0.7"/>
<path d="M61.8277 154.672C61.2283 152.072 67.4945 148.424 75.8236 146.526C84.1527 144.627 91.3906 145.196 91.99 147.796C92.5893 150.397 86.3231 154.044 77.994 155.943C69.6649 157.841 62.427 157.273 61.8277 154.672Z" fill="#2F2E41"/>
<path d="M1.08555 164.718C0.486201 162.117 6.75239 158.47 15.0815 156.571C23.4106 154.673 30.6485 155.241 31.2478 157.842C31.8472 160.442 25.581 164.09 17.2519 165.988C8.92279 167.887 1.68489 167.318 1.08555 164.718Z" fill="#2F2E41"/>
<path d="M39.8375 168.968C39.6719 169.875 39.6876 170.804 39.8835 171.705C40.0795 172.605 40.4519 173.458 40.9795 174.215C41.5071 174.973 42.1795 175.619 42.9583 176.118C43.7372 176.616 44.6072 176.957 45.5186 177.121C46.4301 177.285 47.3651 177.269 48.2703 177.074C49.1755 176.878 50.0331 176.508 50.7941 175.982C51.5551 175.457 52.2046 174.788 52.7055 174.013C53.2063 173.238 53.5488 172.373 53.7132 171.466C54.4069 167.656 51.4443 166.307 47.6127 165.617C43.781 164.928 40.5311 165.158 39.8375 168.968Z" fill="white"/>
</svg>
