<?xml version="1.0" encoding="UTF-8"?>
<svg width="5092px" height="2444px" viewBox="0 0 5092 2444" version="1.1" xmlns="http://www.w3.org/2000/svg" xmlns:xlink="http://www.w3.org/1999/xlink">
    <title>sema-logo-black</title>
    <g id="Collateral" stroke="none" stroke-width="1" fill="none" fill-rule="evenodd">
        <g id="Sema-logo-black" transform="translate(-467.000000, -370.000000)" fill="#000000">
            <g id="sema-logo-black" transform="translate(467.000000, 370.000000)">
                <path d="M4981,0 C5042.30361,-1.126129e-14 5092,49.6963928 5092,111 L5092,2333 C5092,2394.30361 5042.30361,2444 4981,2444 L111,2444 C49.6963928,2444 7.50752664e-15,2394.30361 0,2333 L0,111 C-7.50752664e-15,49.6963928 49.6963928,1.126129e-14 111,0 L4981,0 Z M4966,102 L126,102 C112.745166,102 102,112.745166 102,126 L102,126 L102,2318 C102,2331.25483 112.745166,2342 126,2342 L126,2342 L4966,2342 C4979.25483,2342 4990,2331.25483 4990,2318 L4990,2318 L4990,126 C4990,112.745166 4979.25483,102 4966,102 L4966,102 Z" id="Rectangle-2"></path>
                <path d="M3976.239,1684.56462 C3967.80897,1684.51014 3959.39423,1683.83529 3951.064,1682.541 C3942.78232,1681.27314 3934.57145,1679.57956 3926.464,1677.467 C3919.116,1675.567 3911.703,1673.33 3904.431,1670.814 C3898.237,1668.671 3892.194,1666.335 3886.954,1664.058 C3878.4027,1660.35339 3870.05007,1656.20611 3861.93,1651.633 C3854.12002,1647.22716 3846.56592,1642.3824 3839.304,1637.122 C3832.21699,1631.97676 3825.4436,1626.41285 3819.02,1620.46 C3812.64681,1614.54364 3806.63844,1608.24607 3801.028,1601.602 C3795.36474,1594.88168 3790.10517,1587.8313 3785.277,1580.488 C3780.32326,1572.93873 3775.79585,1565.11817 3771.716,1557.063 C3767.47133,1548.66743 3763.65901,1540.06018 3760.294,1531.275 C3756.861,1522.339 3753.719,1512.846 3750.957,1503.06 C3748.77156,1494.99228 3747.11702,1486.79005 3746.004,1478.506 C3744.6561,1468.84766 3743.79369,1459.12778 3743.42,1449.383 C3743.00144,1439.45511 3743.14634,1429.51148 3743.854,1419.6 C3744.4334,1410.64939 3745.80612,1401.76788 3747.956,1393.06 C3750.28482,1384.06822 3753.19084,1375.2359 3756.656,1366.618 C3759.89922,1358.5768 3763.6953,1350.7698 3768.017,1343.253 C3772.15393,1336.07995 3776.79107,1329.20727 3781.894,1322.686 C3786.89777,1316.311 3792.32682,1310.28158 3798.144,1304.639 C3803.97486,1298.99702 3810.1461,1293.71778 3816.623,1288.831 C3823.22739,1283.85684 3830.08995,1279.23506 3837.182,1274.985 C3852.14415,1266.12138 3867.78431,1258.45579 3883.956,1252.06 L3948.956,1231.06 C3967.156,1223.834 3985.427,1217.337 4003.1,1211.054 C4024.081,1203.595 4045.776,1195.882 4066.956,1187.06 C4106.305,1170.669 4139.022,1156.801 4171.956,1140.06 C4179.47,1136.24 4203.903,1122.916 4211.956,1116.06 L4211.956,1057.06 C4211.73272,1050.18155 4211.13182,1043.32055 4210.156,1036.508 C4209.73,1033.065 4209.289,1029.508 4208.956,1026.061 C4208.056,1021.654 4207.207,1017.174 4206.384,1012.842 L4206.384,1012.835 C4204.829,1004.648 4203.221,996.184 4201.277,988.158 C4199.45366,980.276006 4197.00594,972.551621 4193.957,965.058 C4188.49845,951.734074 4181.92407,938.895091 4174.304,926.678 C4170.6641,920.914935 4166.69971,915.363322 4162.43,910.05 C4158.23913,904.845016 4153.70928,899.922316 4148.87,895.314 C4139.04105,885.96121 4127.87136,878.127602 4115.73,872.072 C4109.25021,868.847735 4102.54533,866.097201 4095.668,863.842 C4078.42225,858.122558 4060.35281,855.280246 4042.184,855.429 C4030.006,855.429 4019.209,856.684 4010.958,859.057 C3997.40592,862.974832 3984.57447,869.052886 3972.958,877.057 C3968.82008,879.989953 3964.88757,883.202447 3961.188,886.672 C3957.51407,890.126119 3954.0562,893.803069 3950.834,897.682 C3944.2669,905.679755 3938.48082,914.288051 3933.555,923.389 C3928.3093,933.04845 3923.60926,942.994388 3919.477,953.18 C3914.886,964.28 3910.577,976.03 3906.958,986.056 C3903.519,995.596 3901.397,1004.956 3899.345,1014.003 C3897.88245,1021.04317 3896.0631,1028.00448 3893.894,1034.86 C3891.453,1042.067 3888.612,1047.533 3884.956,1052.06 C3879.65493,1058.66703 3872.80881,1063.86739 3865.022,1067.202 C3857.3702,1070.41971 3849.14039,1072.03592 3840.84,1071.951 C3818.793,1071.951 3795.463,1061.651 3779.955,1045.059 C3775.87966,1040.72787 3772.03629,1036.18419 3768.441,1031.447 C3764.73211,1026.67616 3761.55183,1021.51697 3758.956,1016.06 C3756.15411,1009.97445 3754.11789,1003.56485 3752.894,996.978 C3751.8757,991.352455 3751.67094,985.609784 3752.286,979.926 C3752.88648,974.693838 3754.21115,969.570505 3756.222,964.703 C3758.22682,959.899682 3760.76651,955.337568 3763.793,951.103 C3775.907,933.972 3795.217,920.703 3812.254,908.988 L3812.266,908.98 C3814.237,907.625 3816.1,906.345 3817.955,905.056 C3832.974,894.627 3848.401,884.503 3863.807,874.968 C3879.213,865.433 3895.177,856.126 3911.227,847.327 C3927.222,838.557 3943.887,829.969 3960.76,821.801 C3977.508,813.693 3995.069,805.701 4012.954,798.057 L4079.954,774.057 L4111.954,766.057 C4128.73202,766.166917 4145.47512,767.602385 4162.027,770.35 C4177.1113,772.869131 4191.95051,776.683236 4206.38,781.75 C4219.78198,786.47773 4232.7282,792.409629 4245.06,799.473 C4256.76381,806.200171 4267.82788,813.983584 4278.114,822.726 C4297.9393,839.662 4314.65677,859.92804 4327.514,882.612 C4340.30528,905.219231 4349.55983,929.651634 4354.956,955.06 C4364.197,997.76 4364.956,1048.96 4364.956,1102.06 L4364.956,1404.06 C4364.956,1407.706 4364.941,1411.412 4364.927,1414.997 L4364.927,1415.06 C4364.865,1430.785 4364.801,1447.04 4365.914,1461.852 C4366.40719,1468.99138 4367.30866,1476.09666 4368.614,1483.133 C4369.79119,1489.59684 4371.57955,1495.93429 4373.955,1502.06 C4379.333,1515.6 4385.015,1525.36 4391.835,1532.78 C4399.84582,1541.51748 4410.36974,1547.55491 4421.956,1550.06 C4426.42228,1551.03439 4430.98504,1551.49671 4435.556,1551.438 C4445.34491,1551.27846 4455.08467,1550.0165 4464.591,1547.676 C4473.43,1545.576 4481.791,1542.724 4486.96,1540.06 C4490.454,1538.26 4500.514,1533.237 4504.96,1531.06 C4508.287,1539.377 4511.67,1548.089 4514.942,1556.514 L4514.961,1556.563 C4518.238,1565.001 4521.626,1573.727 4524.961,1582.063 L4406.961,1653.063 C4398.717,1657.877 4389.045,1664.058 4380.512,1669.51 C4368.812,1676.985 4358.712,1683.439 4355.961,1684.062 C4341.375,1682.976 4318.496,1677.593 4304.961,1672.062 C4298.75721,1669.53245 4292.74769,1666.55042 4286.981,1663.14 C4281.49433,1659.88524 4276.25512,1656.23033 4271.306,1652.205 C4266.50322,1648.28904 4261.98328,1644.03845 4257.78,1639.485 C4253.63084,1634.9807 4249.77904,1630.2113 4246.249,1625.207 C4239.19743,1615.10518 4233.2627,1604.2681 4228.549,1592.886 C4223.73893,1581.27099 4219.86232,1569.29105 4216.956,1557.06 C4207.908,1561.622 4199.597,1567.869 4191.556,1573.912 C4186.483,1577.726 4181.237,1581.669 4175.956,1585.06 C4165.269,1591.919 4154.416,1599.217 4142.925,1606.943 C4120.116,1622.28 4096.525,1638.143 4072.454,1651.701 C4060.70013,1658.40377 4048.59097,1664.46335 4036.18,1669.853 C4029.98,1672.508 4023.88,1674.86 4018.027,1676.846 C4011.868,1678.937 4005.788,1680.691 3999.956,1682.06 C3992.17173,1683.79622 3984.21419,1684.63503 3976.239,1684.56462 Z M4211.955,1182.06 C4211.4425,1182.1865 4210.9409,1182.3537 4210.455,1182.56 C4209.9691,1182.76631 4209.46751,1182.93351 4208.955,1183.06 C4194.896,1191.125 4173.57,1200.883 4152.946,1210.319 C4146.294,1213.36 4140.004,1216.24 4133.956,1219.06 C4123.864,1223.766 4113.636,1228.407 4103.745,1232.895 L4103.737,1232.895 L4103.737,1232.895 C4087.603,1240.216 4070.919,1247.787 4055.127,1255.516 C4037.227,1264.278 4022.771,1272.088 4009.64,1280.098 C3995.40312,1288.64237 3981.89651,1298.34838 3969.258,1309.117 C3963.06741,1314.44473 3957.17073,1320.10474 3951.594,1326.072 C3945.99617,1332.07404 3940.7736,1338.41539 3935.956,1345.06 C3931.16913,1351.72222 3927.01508,1358.81704 3923.548,1366.252 C3919.61878,1374.60763 3916.53219,1383.3341 3914.334,1392.302 C3911.96059,1401.93338 3910.73441,1411.81164 3910.68002,1421.731 C3910.63694,1432.32226 3912.07556,1442.86757 3914.955,1453.06 C3918.45755,1464.83843 3923.14833,1476.23032 3928.955,1487.06 C3934.65872,1497.95821 3941.60496,1508.15945 3949.655,1517.46 C3957.57445,1526.59686 3966.76889,1534.54517 3976.955,1541.06 C3982.91959,1544.84707 3989.14216,1548.21164 3995.577,1551.129 C4001.57713,1553.84042 4007.76604,1556.11305 4014.095,1557.929 C4020.11547,1559.64738 4026.25112,1560.93299 4032.455,1561.776 C4038.47003,1562.58606 4044.53267,1562.98901 4050.602,1562.98901 L4050.612,1562.98901 C4061.12114,1562.94387 4071.59889,1561.83827 4081.886,1559.689 C4092.14674,1557.53377 4102.23111,1554.61088 4112.054,1550.945 C4121.85669,1547.29164 4131.46415,1543.13443 4140.838,1538.49 C4149.1,1534.438 4157.97,1529.718 4167.955,1524.06 C4172.944,1521.233 4181.994,1515.401 4190.475,1509.548 C4196.441,1505.43 4207.164,1497.813 4211.955,1493.061 L4211.955,1182.06 Z" id="Shape" fill-rule="nonzero"></path>
                <path d="M3636.956,1661.06 L3213.956,1661.06 L3213.956,1607.06 C3256.549,1607.139 3311.338,1599.2 3329.956,1574.06 C3354.797,1540.517 3351.956,1473.594 3351.956,1416.06 L3351.956,1181.06 C3351.956,1134.309 3352.991,1084.375 3346.956,1043.06 C3339.693,993.34 3320.342,946.084 3291.956,922.06 C3276.517,908.993 3258.84,896.676 3236.956,891.06 C3109.946,858.465 3015.366,941.121 2953.956,988.06 C2964.946,1026.924 2961.956,1085.125 2961.956,1135.06 L2961.956,1407.06 C2961.956,1465.479 2955.579,1538.76 2980.956,1573.06 C2999.217,1597.738 3047.537,1606.516 3088.956,1607.06 L3088.956,1661.06 L2663.956,1661.06 L2663.956,1607.06 C2708.38,1607.24 2764.323,1598.99 2783.956,1573.06 C2815.356,1531.584 2803.956,1430.303 2803.956,1360.06 L2803.956,1176.06 C2803.965,1038.638 2797.334,924.834 2693.956,892.06 C2600.39,862.397 2518.635,911.786 2465.956,949.06 C2457.341,955.16 2418.32,980.405 2414.956,987.06 L2414.956,1499.06 C2415.021,1514.007 2418.556,1540.511 2422.956,1554.06 C2435.551,1592.86 2474.515,1605.109 2528.956,1607.06 L2528.956,1661.06 L2108.956,1661.06 L2108.956,1607.06 C2154.135,1607.191 2214.839,1599.444 2234.956,1573.06 C2260.456,1539.616 2256.786,1478.038 2256.956,1416.06 L2256.956,1084.06 C2256.956,1030.597 2260.98,953.56 2240.956,926.06 C2223.861,902.58 2167.756,891.249 2136.956,889.06 L2136.956,843.06 L2138.956,843.06 L2226.956,825.06 C2291.843,806.39 2355.556,788.295 2411.956,761.06 L2411.956,922.06 C2412.623,922.06 2413.289,921.06 2413.956,921.06 C2437.62,904.395 2460.292,887.725 2483.956,871.06 C2538.614,832.249 2580.489,795.529 2659.956,775.06 C2691.956,766.817 2732.12,763.413 2766.956,771.06 C2786.931,775.445 2811.43,783.816 2826.956,793.06 C2860.737,813.172 2890.41,839.748 2911.956,872.06 C2917.856,880.905 2937.277,916.4 2941.956,930.06 C2953.656,918.528 2973.404,905.636 2986.956,896.06 C3022.011,871.292 3066.251,842.225 3104.956,821.06 C3138.371,798.821 3159.674,785.923 3204.956,773.06 C3262.161,756.81 3331.313,772.129 3371.956,793.06 C3440.148,828.178 3475.387,887.128 3496.956,969.06 C3508.294,1012.128 3506.956,1064.694 3506.956,1118.06 L3506.956,1329.06 C3507.211,1469.487 3499.248,1540.78 3526.956,1575.06 C3543.999,1596.145 3567.256,1599.82 3598.956,1604.06 L3635.956,1608.06 L3636.956,1661.06 Z" id="Path" fill-rule="nonzero"></path>
                <path d="M1677.565,1684.745 C1660.09502,1684.67042 1642.6535,1683.32756 1625.378,1680.727 C1608.33635,1678.20481 1591.45559,1674.6949 1574.821,1670.215 C1559.68925,1666.18699 1544.80223,1661.2902 1530.234,1655.549 C1523.594,1652.909 1517.303,1650.164 1511.534,1647.388 C1505.802,1644.63 1500.561,1641.83 1495.955,1639.065 C1468.878,1622.808 1446.068,1606.279 1426.209,1588.527 C1416.18063,1579.57586 1406.68095,1570.04947 1397.758,1559.996 C1388.88843,1549.96838 1380.6305,1539.41596 1373.029,1528.396 C1365.22012,1517.03848 1358.06679,1505.24391 1351.604,1493.07 C1344.76341,1480.14766 1338.57531,1466.89034 1333.063,1453.348 C1321.749,1425.697 1311.901,1394.527 1302.956,1358.06 C1299.80198,1344.45585 1297.61353,1330.64577 1296.407,1316.733 C1294.91,1301.214 1294.097,1284.4 1293.99,1266.759 C1293.769,1230.302 1296.598,1194.185 1301.956,1165.059 C1306.24295,1140.94365 1312.07225,1117.1281 1319.408,1093.759 C1323.023,1082.459 1327.041,1071.468 1331.35,1061.094 C1335.782,1050.423 1340.696,1039.983 1345.956,1030.063 C1353.417,1015.992 1361.337,1002.224 1369.495,989.142 C1377.653,976.06 1386.25,963.342 1395.072,951.297 C1403.894,939.252 1413.162,927.585 1422.627,916.603 C1432.092,905.621 1442.011,895.027 1452.099,885.135 C1462.187,875.243 1472.738,865.755 1483.428,856.972 C1494.138,848.172 1505.283,839.834 1516.554,832.188 C1527.854,824.522 1539.583,817.346 1551.416,810.859 C1563.288,804.351 1575.581,798.359 1587.955,793.059 C1610.81,783.265 1636.55,776.82 1660.955,771.059 L1705.955,766.059 C1707.56,766.038 1709.178,766.026557 1710.778,766.026557 C1728.58158,765.997665 1746.35766,767.42644 1763.928,770.299 C1780.24848,772.990436 1796.31111,777.062046 1811.943,782.47 C1826.76373,787.620437 1841.12446,794.009674 1854.873,801.57 C1868.15455,808.893711 1880.82601,817.27302 1892.765,826.627 C1916.02004,844.975757 1936.52049,866.568004 1953.639,890.743 C1970.44058,914.421287 1984.31415,940.046333 1994.957,967.059 C1998.6643,976.667846 2001.83583,986.474906 2004.457,996.435 C2007.94202,1009.3449 2010.62745,1022.45746 2012.498,1035.698 C2014.54588,1049.49492 2015.22285,1063.46069 2014.519,1077.391 C2013.619,1091.871 2010.74,1104.208 2005.959,1114.058 C2004.32478,1117.10778 2001.94609,1119.69493 1999.044,1121.579 C1995.34036,1124.0638 1991.34884,1126.08995 1987.157,1127.613 C1978.631,1130.876 1967.184,1133.686 1953.134,1135.964 C1927.451,1140.128 1898.134,1141.801 1876.734,1143.022 C1870.169,1143.396 1864.501,1143.722 1859.963,1144.059 L1744.963,1153.059 L1711.963,1154.059 L1619.963,1159.059 L1554.963,1162.059 L1452.963,1166.059 L1451.963,1178.059 L1454.963,1226.059 C1457.302,1237.959 1459.083,1249.798 1460.805,1261.246 C1463.955,1282.186 1466.931,1301.965 1472.963,1321.058 C1476.997,1333.825 1481.418,1346.166 1486.104,1357.739 C1490.894,1369.567 1496.113,1380.971 1501.618,1391.634 C1507.10486,1402.29059 1513.14338,1412.65398 1519.709,1422.682 C1526.1177,1432.45601 1533.08564,1441.85165 1540.578,1450.822 C1548.00451,1459.69488 1555.97202,1468.10055 1564.435,1475.991 C1572.97241,1483.93383 1582.00486,1491.32733 1591.478,1498.127 C1601.21877,1505.10183 1611.38518,1511.46218 1621.918,1517.171 C1632.94183,1523.13177 1644.30755,1528.43731 1655.956,1533.06 C1669.52579,1538.29977 1683.56292,1542.23782 1697.878,1544.821 C1705.854,1546.311 1714.002,1547.462 1722.096,1548.243 C1730.572,1549.06 1739.032,1549.475 1747.24,1549.475 C1761.92801,1549.57312 1776.58407,1548.0933 1790.956,1545.061 C1794.107,1544.37 1797.323,1543.683 1800.433,1543.018 C1817.923,1539.277 1836.006,1535.409 1851.956,1529.061 C1867.45217,1522.92207 1882.57158,1515.87175 1897.235,1507.947 C1911.40635,1500.29606 1925.01477,1491.64551 1937.957,1482.061 C1940.288,1480.045 1942.699,1477.973 1944.826,1476.145 L1944.826,1476.145 C1954.997,1467.403 1964.604,1459.145 1973.952,1450.065 C1978.424,1457.265 1984.904,1465.304 1991.171,1473.082 C1996.352,1479.513 2001.245,1485.582 2004.952,1491.064 C1998.752,1497.787 1992.242,1505.253 1985.352,1513.158 C1973.352,1526.921 1960.944,1541.152 1947.952,1554.064 C1937.008,1564.332 1923.721,1575.646 1911.997,1585.629 L1911.99,1585.635 L1911.948,1585.671 C1908.08,1588.965 1904.426,1592.071 1900.948,1595.065 C1886.705,1605.712 1874.68,1614.206 1863.102,1621.797 C1850.45016,1630.14793 1837.38233,1637.85085 1823.949,1644.876 C1809.97694,1652.15727 1795.56467,1658.56068 1780.796,1664.049 C1764.50677,1670.08085 1747.85874,1675.0955 1730.948,1679.064 C1715.078,1682.832 1697.114,1684.745 1677.565,1684.745 Z M1671.525,839.758 C1657.56089,839.819305 1643.63698,841.259629 1629.956,844.058 C1621.91296,845.703109 1614.01519,847.992148 1606.339,850.903 C1598.93547,853.673647 1591.78186,857.07097 1584.956,861.058 C1557.556,877.322 1535.324,899.358 1516.992,928.414 C1501.392,953.145 1488.351,983.214 1475.956,1023.058 C1469.76857,1043.29208 1465.41763,1064.04271 1462.956,1085.058 L1721.956,1081.058 C1727.815,1080.871 1734.056,1080.783 1741.598,1080.783 C1747.418,1080.783 1753.379,1080.837 1758.639,1080.883 L1758.664,1080.883 L1758.964,1080.883 L1758.978,1080.883 C1764.602,1080.934 1769.914,1080.983 1775.178,1080.983 C1786.192,1080.983 1798.902,1080.799 1809.664,1079.435 C1820.455,1078.067 1828.073,1075.653 1832.956,1072.054 C1837.904,1068.406 1841.322,1061.542 1843.114,1051.654 C1844.637,1043.254 1844.987,1032.745 1844.152,1020.43 C1843.36365,1009.55263 1841.9244,998.732248 1839.842,988.027 C1838.35029,979.930684 1836.38457,971.92892 1833.955,964.063 C1831.38582,956.233276 1828.34424,948.566541 1824.847,941.105 C1821.23811,933.40258 1817.14353,925.937212 1812.588,918.754 C1803.22598,903.887517 1791.75041,890.46252 1778.522,878.901 C1757.15291,860.214119 1731.12115,847.664412 1703.192,842.585 C1692.74358,840.686806 1682.14443,839.740925 1671.525,839.758 L1671.525,839.758 Z" id="Shape" fill-rule="nonzero"></path>
                <path d="M1120.956,1014.06 L1069.956,1026.06 C1048.393,949.16 988.956,856.239 912.956,836.06 C827.065,813.255 768.99,855.63 745.956,911.06 C739.541,926.496 734.02,953.545 736.956,979.06 C748.239,1077.114 850.119,1114.303 936.956,1152.06 C1005.326,1181.788 1070.838,1219.508 1112.956,1276.06 C1142.918,1316.29 1168.051,1377.526 1154.956,1444.06 C1150.275,1467.841 1145.684,1490.074 1136.956,1510.06 C1099.447,1595.946 1019.19,1649.251 915.956,1674.06 C879.025,1682.935 820.202,1687.511 775.956,1681.06 C750.495,1677.348 723.734,1672.36 700.956,1665.06 C665.373,1653.66 607.578,1629.728 592.956,1608.06 C562.885,1563.498 568.798,1452.791 568.956,1380.06 L619.956,1373.06 C625.314,1398.7 636.683,1423.96 645.956,1445.06 C673.946,1508.76 726.55,1574.273 781.956,1599.06 C795.691,1605.205 810.24,1610.929 825.956,1614.06 C910.49,1630.901 961.319,1590.528 984.956,1550.06 C993.419,1535.571 1000.196,1519.241 1002.956,1500.06 C1008.23,1463.407 998.077,1429.447 989.956,1411.06 C963.225,1350.539 890.233,1318.801 823.956,1288.06 C750.039,1253.776 651.319,1192.242 615.956,1107.06 C606.848,1085.12 599.836,1058.892 598.956,1031.06 C597.824895,994.691889 604.650617,958.515566 618.956,925.06 C660.772,828.441 745.392,786.454 830.956,772.06 C905.995,759.436 991.822,769.389 1040.956,788.06 C1052.879,792.591 1069.033,796.042 1077.956,803.06 C1084.124,820.947 1088.521,846.535 1093.956,867.06 C1105.745,911.579 1114.596,964.195 1120.956,1014.06 Z" id="Path" fill-rule="nonzero"></path>
            </g>
        </g>
    </g>
</svg>