<svg width="57" height="15" viewBox="0 0 57 15" fill="none" xmlns="http://www.w3.org/2000/svg">
<path d="M7.35242 4.693C6.80525 3.01534 5.82058 1.886 4.43575 1.886C4.1838 1.88038 3.93342 1.92708 3.70044 2.02314C3.46745 2.1192 3.25693 2.26255 3.08216 2.44411C2.90739 2.62568 2.77218 2.84152 2.68507 3.078C2.59797 3.31448 2.56085 3.56645 2.57608 3.818C2.57608 5.09434 3.70658 5.75 4.98292 6.29717C7.13425 7.17217 8.59258 8.22917 8.59258 10.1612C8.59258 12.75 6.14958 14.0987 3.88858 14.0987C2.43025 14.0987 1.11775 13.5527 0.607916 13.1152C0.0969164 12.6777 0.170416 10.7818 0.170416 9.761L0.899583 9.65134C1.40942 11.5098 2.68575 13.1513 4.39958 13.1513C4.66127 13.1563 4.92132 13.109 5.16451 13.0123C5.4077 12.9155 5.62915 12.7712 5.8159 12.5878C6.00265 12.4044 6.15095 12.1857 6.25211 11.9443C6.35328 11.7029 6.40529 11.4437 6.40508 11.182C6.40508 9.90684 5.60242 9.25 4.18025 8.59434C2.75808 7.9375 0.607916 6.84434 0.607916 4.65567C0.607916 2.46934 2.32058 0.97367 4.94558 0.97367C5.81163 0.958581 6.67051 1.13298 7.46208 1.48467C7.74208 2.47634 7.94858 3.48784 8.08158 4.511L7.35242 4.693ZM20.7329 11.3278C18.9456 13.5888 16.9774 14.0987 16.1024 14.0987C12.6024 14.0987 10.5608 11.2555 10.5608 8.04717C10.5454 6.20374 11.2219 4.42157 12.4566 3.05267C13.6233 1.739 15.1551 0.97367 16.6134 0.97367C18.9818 0.97367 20.8788 3.08884 20.8788 5.3125C20.8788 5.89584 20.7329 6.11517 20.2219 6.22367C19.7121 6.33334 16.2121 6.58884 12.8218 6.69734C12.8568 10.5625 15.0454 12.1667 17.0509 12.1667C18.2752 12.1296 19.4376 11.6199 20.2943 10.7445L20.7329 11.3278ZM12.9664 5.53184L17.7789 5.45834C18.2899 5.45834 18.4358 5.27634 18.4358 4.875C18.4719 3.41667 17.5246 2.03067 15.9566 2.03067C14.3886 2.03067 13.3678 3.23467 12.9664 5.53067V5.53184ZM38.0509 13.7708V13.0055C39.7274 12.8597 40.0191 12.75 40.0191 10.7083V5.96817C40.0191 3.9265 39.3261 2.65134 37.5399 2.65134C36.5191 2.65134 35.4248 3.23467 34.3316 4.14584C34.4144 4.54134 34.4518 4.945 34.4413 5.34867V10.8903C34.4413 12.6777 34.6956 12.8597 36.2636 13.0055V13.7708H30.1759V13.0055C31.9259 12.8597 32.1803 12.7138 32.1803 10.818V5.932C32.1803 3.818 31.4511 2.65134 29.7011 2.65134C28.5718 2.65134 27.4774 3.41667 26.6024 4.14584V10.818C26.6024 12.6765 26.8218 12.8597 28.2428 13.0055V13.7708H22.2274V13.0055C24.0871 12.8597 24.3426 12.6765 24.3426 10.818V4.94734C24.3426 3.125 24.2691 2.97917 22.6276 2.72367V2.068C23.9848 1.84834 25.3084 1.45628 26.5663 0.901337V3.1985C27.1858 2.79717 27.8053 2.28617 28.6441 1.74017C29.3345 1.27072 30.1431 1.00509 30.9774 0.97367C32.3634 0.97367 33.5663 1.84867 34.1496 3.307C34.899 2.72569 35.6911 2.20155 36.5191 1.739C37.1316 1.27782 37.8685 1.01119 38.6343 0.97367C40.8579 0.97367 42.2428 2.54167 42.2428 5.34867V10.818C42.2428 12.75 42.4621 12.8597 44.1024 13.0055V13.7708H38.0498H38.0509ZM54.4204 14.0987C53.9238 14.0653 53.4508 13.874 53.0706 13.5527C52.7409 13.1942 52.5143 12.7532 52.4149 12.2763C51.2483 13.0417 49.8996 14.0987 49.0608 14.0987C48.6077 14.0987 48.1591 14.0089 47.7409 13.8344C47.3227 13.66 46.9433 13.4044 46.6246 13.0824C46.3058 12.7604 46.0541 12.3784 45.8839 11.9585C45.7137 11.5386 45.6285 11.0891 45.6331 10.636C45.6331 9.25 46.3634 8.33767 47.9314 7.82784C49.4983 7.318 51.7231 6.47917 52.3414 5.96817V5.45834C52.3414 3.41667 51.3579 2.25 49.9358 2.25C49.6963 2.24473 49.4584 2.29084 49.2383 2.38522C49.0181 2.47961 48.8207 2.62008 48.6594 2.79717C48.2954 3.16117 48.0399 3.818 47.8218 4.693C47.7862 4.88612 47.681 5.05951 47.5263 5.18033C47.3715 5.30116 47.1777 5.36105 46.9818 5.34867C46.6641 5.31644 46.3674 5.17555 46.1416 4.9498C45.9159 4.72405 45.775 4.42729 45.7428 4.10967C45.7428 3.67217 46.1079 3.3805 46.6551 2.97917C47.2011 2.57784 49.3151 1.3015 50.9204 0.97367C51.7624 0.957168 52.5851 1.227 53.2538 1.739C54.2373 2.579 54.5289 3.74567 54.5289 5.239V10.5263C54.5289 11.8015 55.0399 12.2028 55.5136 12.2028C55.8753 12.2075 56.2299 12.106 56.5344 11.9112L56.8261 12.6403L54.4204 14.0987ZM52.3414 6.91667C51.7581 7.2445 50.3733 7.82784 49.7899 8.1195C49.2066 8.41117 48.0399 9.1765 48.0399 10.1973C48.0251 10.4763 48.0668 10.7553 48.1623 11.0178C48.2578 11.2803 48.4052 11.5208 48.5958 11.725C48.7864 11.9292 49.0162 12.0929 49.2715 12.2063C49.5268 12.3196 49.8023 12.3804 50.0816 12.3848C50.9216 12.2826 51.7104 11.9265 52.3426 11.364V6.91667H52.3414Z" fill="#3A393A"/>
</svg>
