<svg width="392" height="247" viewBox="0 0 392 247" fill="none" xmlns="http://www.w3.org/2000/svg">
<path d="M5 14C5 9.58172 8.59473 6 13.029 6H383.971C388.405 6 392 9.58172 392 14V239C392 243.418 388.405 247 383.971 247H13.029C8.59473 247 5 243.418 5 239V14Z" fill="#FAD4E9"/>
<path d="M0 8C0 3.58172 3.58544 0 8.0083 0H377.992C382.415 0 386 3.58172 386 8V233C386 237.418 382.415 241 377.992 241H8.0083C3.58544 241 0 237.418 0 233V8Z" fill="#F8F8F8"/>
<path fill-rule="evenodd" clip-rule="evenodd" d="M378.875 2.00031H7.12525C4.29598 2.00031 2.00239 4.29153 2.00239 7.11788V233.882C2.00239 236.708 4.29597 239 7.12525 239H378.875C381.704 239 383.998 236.708 383.998 233.882V7.11787C383.998 4.29152 381.704 2.00031 378.875 2.00031ZM7.12525 0C3.19009 0 0 3.18678 0 7.11788V233.882C0 237.813 3.19008 241 7.12525 241H378.875C382.81 241 386 237.813 386 233.882V7.11787C386 3.18678 382.81 0 378.875 0H7.12525Z" fill="#202020"/>
<g clip-path="url(#clip0_189:4291)">
<path d="M370.183 227.683H336.507C335.152 227.683 334.04 226.564 334.04 225.193V206.545C334.04 205.173 335.152 204.048 336.507 204.048H370.183C371.538 204.048 372.644 205.173 372.644 206.545V225.193C372.644 226.564 371.538 227.683 370.183 227.683Z" fill="#AFADAA"/>
<path fill-rule="evenodd" clip-rule="evenodd" d="M349.975 207.172L345.347 224.568H347.92L352.549 207.172H349.975ZM357.621 213.07L357.352 209.839V209.846H355.522L355.254 213.076L352.037 212.229L351.493 214.195L354.541 215.402L352.693 218.24L354.154 219.328L356.484 216.761L358.72 219.328L360.126 218.177L358.277 215.396L361.294 214.188L360.669 212.286L357.621 213.07Z" fill="white"/>
</g>
<path d="M0 7.1068C0 3.18183 3.18182 0 7.1068 0H33.6111V240.625H7.1068C3.18183 240.625 0 237.443 0 233.518V7.1068Z" fill="#C4C4C4"/>
<path fill-rule="evenodd" clip-rule="evenodd" d="M31.6139 1.9972H7.1068C4.28485 1.9972 1.9972 4.28485 1.9972 7.1068V233.518C1.9972 236.34 4.28485 238.628 7.1068 238.628H31.6139V1.9972ZM7.1068 0C3.18182 0 0 3.18183 0 7.1068V233.518C0 237.443 3.18183 240.625 7.1068 240.625H33.6111V0H7.1068Z" fill="#202020"/>
<circle cx="16.8057" cy="19.8611" r="6.875" fill="#202020"/>
<circle cx="16.8057" cy="41.2503" r="6.875" fill="#202020"/>
<circle cx="16.8057" cy="62.6387" r="6.875" fill="#202020"/>
<circle cx="16.8057" cy="84.0278" r="6.875" fill="#202020"/>
<path fill-rule="evenodd" clip-rule="evenodd" d="M245.045 65.5772L154.654 150.778L152.599 148.598L242.991 63.3972L245.045 65.5772Z" fill="#BBC5AA"/>
<path fill-rule="evenodd" clip-rule="evenodd" d="M270.872 72.8347L293.719 148.466L290.851 149.333L268.004 73.701L270.872 72.8347Z" fill="#BBC5AA"/>
<path fill-rule="evenodd" clip-rule="evenodd" d="M244.209 65.9728L184.937 73.5722L184.556 70.6007L243.828 63.0013L244.209 65.9728Z" fill="#BBC5AA"/>
<path fill-rule="evenodd" clip-rule="evenodd" d="M140.136 112.111L135.803 138.898L132.846 138.419L137.179 111.633L140.136 112.111Z" fill="#BBC5AA"/>
<path fill-rule="evenodd" clip-rule="evenodd" d="M276.528 174.111L161.505 173.323L161.525 170.327L276.549 171.115L276.528 174.111Z" fill="#BBC5AA"/>
<path d="M325.951 171.203C325.96 166.935 324.902 162.733 322.874 158.979C320.845 155.224 317.911 152.036 314.338 149.703C310.764 147.371 306.664 145.968 302.411 145.623C298.157 145.277 293.885 146 289.982 147.726C286.079 149.451 282.669 152.124 280.061 155.503C277.454 158.881 275.732 162.857 275.052 167.07C274.372 171.283 274.755 175.599 276.167 179.626C277.579 183.653 279.975 187.264 283.137 190.13C283.249 190.278 283.39 190.401 283.552 190.494C288.192 194.56 294.152 196.802 300.322 196.802C306.492 196.802 312.452 194.56 317.092 190.494H317.105C317.267 190.401 317.408 190.278 317.52 190.13C320.169 187.738 322.288 184.819 323.74 181.559C325.192 178.299 325.945 174.771 325.951 171.203ZM300.338 148.286C304.806 148.288 309.175 149.596 312.909 152.049C316.643 154.502 319.579 157.993 321.355 162.092C323.131 166.191 323.67 170.72 322.906 175.122C322.142 179.524 320.108 183.606 317.054 186.867C315.598 183.983 311.554 179.399 300.338 179.399C289.122 179.399 285.078 183.983 283.622 186.867C280.568 183.606 278.534 179.524 277.77 175.122C277.006 170.72 277.545 166.191 279.321 162.092C281.097 157.993 284.033 154.502 287.767 152.049C291.501 149.596 295.87 148.288 300.338 148.286ZM289.338 164.813C289.332 162.636 289.973 160.507 291.178 158.694C292.384 156.882 294.1 155.468 296.11 154.631C298.119 153.794 300.332 153.572 302.467 153.994C304.603 154.415 306.566 155.461 308.107 156.998C309.648 158.535 310.698 160.495 311.125 162.63C311.551 164.765 311.335 166.978 310.503 168.989C309.672 171.001 308.262 172.721 306.452 173.93C304.643 175.14 302.515 175.786 300.338 175.786C297.426 175.783 294.634 174.627 292.572 172.571C290.511 170.514 289.348 167.725 289.338 164.813Z" fill="#4F4F4F"/>
<path d="M164.121 170.96C164.132 165.273 162.723 159.674 160.02 154.672C157.318 149.669 153.408 145.42 148.646 142.312C143.884 139.204 138.422 137.335 132.754 136.875C127.087 136.415 121.394 137.378 116.193 139.677C110.992 141.976 106.449 145.538 102.974 150.04C99.5001 154.541 97.2057 159.839 96.2995 165.453C95.3933 171.066 95.904 176.817 97.7853 182.183C99.6666 187.549 102.859 192.36 107.072 196.179C107.222 196.376 107.41 196.541 107.625 196.664C113.808 202.083 121.749 205.07 129.97 205.07C138.192 205.07 146.133 202.083 152.316 196.664H152.334C152.549 196.541 152.737 196.376 152.887 196.179C156.417 192.993 159.24 189.102 161.174 184.759C163.109 180.415 164.113 175.715 164.121 170.96ZM129.992 140.423C135.945 140.426 141.767 142.169 146.742 145.438C151.718 148.706 155.629 153.358 157.996 158.82C160.363 164.282 161.081 170.317 160.063 176.182C159.045 182.047 156.335 187.487 152.266 191.832C150.326 187.988 144.937 181.881 129.992 181.881C115.047 181.881 109.658 187.988 107.718 191.832C103.65 187.487 100.939 182.047 99.9212 176.182C98.9031 170.317 99.6216 164.282 101.988 158.82C104.355 153.358 108.266 148.706 113.242 145.438C118.217 142.169 124.039 140.426 129.992 140.423ZM115.335 162.445C115.328 159.545 116.181 156.707 117.787 154.292C119.394 151.877 121.68 149.993 124.358 148.878C127.036 147.763 129.984 147.468 132.829 148.029C135.675 148.591 138.29 149.984 140.344 152.032C142.397 154.081 143.797 156.692 144.365 159.537C144.934 162.381 144.645 165.33 143.537 168.01C142.429 170.691 140.55 172.982 138.139 174.594C135.728 176.206 132.893 177.067 129.992 177.067C126.112 177.063 122.391 175.523 119.645 172.782C116.898 170.042 115.348 166.325 115.335 162.445Z" fill="#E0E0E0"/>
<path d="M187.045 77.1075C187.058 70.7356 185.478 64.4615 182.45 58.8551C179.421 53.2488 175.04 48.488 169.704 45.0053C164.368 41.5225 158.247 39.4281 151.895 38.9125C145.544 38.3968 139.165 39.4761 133.337 42.0524C127.509 44.6288 122.417 48.6204 118.524 53.6647C114.631 58.709 112.06 64.6461 111.044 70.9366C110.029 77.2271 110.601 83.6717 112.709 89.6848C114.818 95.6979 118.395 101.089 123.116 105.368C123.284 105.589 123.495 105.774 123.736 105.912C130.664 111.984 139.563 115.332 148.776 115.332C157.989 115.332 166.888 111.984 173.816 105.912H173.836C174.077 105.774 174.288 105.589 174.456 105.368C178.411 101.798 181.575 97.4383 183.743 92.5709C185.911 87.7035 187.036 82.436 187.045 77.1075ZM148.8 42.8886C155.471 42.892 161.995 44.8452 167.571 48.5078C173.146 52.1704 177.529 57.3827 180.181 63.5037C182.833 69.6247 183.638 76.3873 182.498 82.9598C181.357 89.5323 178.32 95.628 173.76 100.497C171.586 96.1896 165.547 89.3458 148.8 89.3458C132.053 89.3458 126.014 96.1896 123.841 100.497C119.281 95.628 116.244 89.5323 115.103 82.9598C113.962 76.3873 114.767 69.6247 117.419 63.5037C120.071 57.3827 124.454 52.1704 130.03 48.5078C135.605 44.8452 142.129 42.892 148.8 42.8886ZM132.375 67.5665C132.367 64.3162 133.324 61.1367 135.124 58.4303C136.924 55.7239 139.486 53.6124 142.487 52.363C145.487 51.1137 148.791 50.7827 151.98 51.4119C155.169 52.0411 158.099 53.6022 160.4 55.8977C162.701 58.1932 164.27 61.1198 164.907 64.307C165.544 67.4943 165.221 70.7989 163.979 73.8025C162.737 76.8061 160.632 79.3738 157.93 81.1804C155.228 82.987 152.051 83.9513 148.8 83.9513C144.452 83.9471 140.283 82.2207 137.205 79.1501C134.127 76.0794 132.39 71.9144 132.375 67.5665Z" fill="#BDBDBD"/>
<path d="M289.018 50.2461C289.026 45.9787 287.968 41.7767 285.94 38.022C283.912 34.2674 280.978 31.0789 277.404 28.7464C273.831 26.4139 269.731 25.0113 265.477 24.6659C261.224 24.3206 256.951 25.0434 253.048 26.7689C249.145 28.4943 245.735 31.1676 243.128 34.5459C240.52 37.9242 238.798 41.9004 238.118 46.1133C237.438 50.3262 237.822 54.6423 239.233 58.6694C240.645 62.6966 243.041 66.3071 246.203 69.1731C246.316 69.321 246.457 69.4448 246.618 69.537C251.258 73.6038 257.218 75.8458 263.388 75.8458C269.558 75.8458 275.518 73.6038 280.158 69.537H280.172C280.333 69.4448 280.474 69.321 280.587 69.1731C283.236 66.7817 285.354 63.8621 286.806 60.6023C288.258 57.3425 289.012 53.8147 289.018 50.2461ZM263.404 27.3289C267.872 27.3312 272.241 28.6392 275.975 31.0921C279.709 33.5451 282.645 37.0359 284.421 41.1353C286.197 45.2346 286.736 49.7638 285.972 54.1655C285.208 58.5673 283.174 62.6497 280.12 65.9107C278.665 63.0258 274.62 58.4424 263.404 58.4424C252.188 58.4424 248.144 63.0258 246.688 65.9107C243.635 62.6497 241.601 58.5673 240.836 54.1655C240.072 49.7638 240.612 45.2346 242.388 41.1353C244.164 37.0359 247.099 33.5451 250.833 31.0921C254.567 28.6392 258.937 27.3312 263.404 27.3289ZM252.404 43.8562C252.399 41.6795 253.039 39.55 254.245 37.7375C255.45 35.925 257.166 34.5108 259.176 33.6741C261.186 32.8374 263.398 32.6157 265.534 33.0371C267.669 33.4585 269.632 34.504 271.173 36.0414C272.714 37.5787 273.765 39.5387 274.191 41.6733C274.618 43.8079 274.402 46.021 273.57 48.0327C272.738 50.0443 271.328 51.7639 269.519 52.9738C267.709 54.1837 265.581 54.8296 263.404 54.8296C260.492 54.8267 257.7 53.6706 255.639 51.614C253.577 49.5575 252.414 46.7682 252.404 43.8562Z" fill="#828282"/>
<defs>
<clipPath id="clip0_189:4291">
<rect width="38.6037" height="23.6349" fill="white" transform="translate(334.04 204.048)"/>
</clipPath>
</defs>
</svg>
