<svg width="24" height="24" viewBox="0 0 24 24" fill="none" xmlns="http://www.w3.org/2000/svg">
<path d="M11.0062 15.9999C11.0062 16.5522 11.4542 16.9999 12.0069 16.9999C12.5595 16.9999 13.0075 16.5522 13.0075 15.9999C13.0075 15.4477 12.5595 14.9999 12.0069 14.9999C11.4542 14.9999 11.0062 15.4477 11.0062 15.9999Z" fill="currentColor"/>
<path d="M11.2993 8.29283C11.487 8.1053 11.7415 7.99994 12.0069 7.99994C12.2722 7.99994 12.5268 8.1053 12.7144 8.29283C12.9021 8.48037 13.0075 8.73472 13.0075 8.99994V12.9999C13.0075 13.2652 12.9021 13.5195 12.7144 13.707C12.5268 13.8946 12.2722 13.9999 12.0069 13.9999C11.7415 13.9999 11.487 13.8946 11.2993 13.707C11.1117 13.5195 11.0062 13.2652 11.0062 12.9999V8.99994C11.0062 8.73472 11.1117 8.48037 11.2993 8.29283Z" fill="currentColor"/>
<path fill-rule="evenodd" clip-rule="evenodd" d="M22.5734 16.2999L14.8987 3.57994C14.5883 3.09475 14.1607 2.69546 13.6554 2.41888C13.15 2.14229 12.5831 1.99731 12.0069 1.99731C11.4307 1.99731 10.8638 2.14229 10.3584 2.41888C9.85299 2.69546 9.42543 3.09475 9.11509 3.57994L1.44036 16.2999C1.16925 16.7516 1.02189 17.2666 1.01311 17.7932C1.00433 18.3199 1.13443 18.8395 1.39033 19.2999C1.68619 19.8182 2.11444 20.2487 2.6313 20.5474C3.14816 20.846 3.7351 21.0022 4.33214 20.9999H19.6816C20.2747 21.0063 20.859 20.8561 21.3755 20.5647C21.892 20.2732 22.3225 19.8508 22.6234 19.3399C22.8868 18.8747 23.0211 18.3476 23.0123 17.8131C23.0035 17.2787 22.852 16.7563 22.5734 16.2999ZM20.8723 18.3499C20.7521 18.5565 20.5776 18.7263 20.3677 18.8409C20.1578 18.9555 19.9205 19.0105 19.6816 18.9999H4.33214C4.09322 19.0105 3.85597 18.9555 3.64608 18.8409C3.43619 18.7263 3.26167 18.5565 3.14141 18.3499C3.05359 18.1979 3.00735 18.0255 3.00735 17.8499C3.00735 17.6744 3.05359 17.502 3.14141 17.3499L10.8261 4.61994C10.9642 4.43764 11.1427 4.2898 11.3476 4.18801C11.5524 4.08622 11.7781 4.03325 12.0069 4.03325C12.2357 4.03325 12.4613 4.08622 12.6662 4.18801C12.871 4.2898 13.0495 4.43764 13.1876 4.61994L20.8623 17.3399C20.9535 17.4923 21.0025 17.6661 21.0043 17.8436C21.0061 18.0211 20.9605 18.1959 20.8723 18.3499Z" fill="currentColor"/>
</svg>
