<svg width="24" height="24" viewBox="0 0 24 24" fill="none" xmlns="http://www.w3.org/2000/svg">
<path fill-rule="evenodd" clip-rule="evenodd" d="M14.8987 3.57994L22.5734 16.2999C22.852 16.7563 23.0035 17.2787 23.0123 17.8131C23.0211 18.3476 22.8868 18.8747 22.6234 19.3399C22.3225 19.8508 21.892 20.2732 21.3755 20.5647C20.859 20.8561 20.2747 21.0063 19.6816 20.9999H4.33214C3.7351 21.0022 3.14816 20.846 2.6313 20.5474C2.11444 20.2487 1.68619 19.8182 1.39033 19.2999C1.13443 18.8395 1.00433 18.3199 1.01311 17.7932C1.02189 17.2666 1.16925 16.7516 1.44036 16.2999L9.11509 3.57994C9.42543 3.09475 9.85299 2.69546 10.3584 2.41888C10.8638 2.14229 11.4307 1.99731 12.0069 1.99731C12.5831 1.99731 13.15 2.14229 13.6554 2.41888C14.1607 2.69546 14.5883 3.09475 14.8987 3.57994ZM12.007 8C11.7416 8 11.4871 8.10536 11.2994 8.29289C11.1118 8.48043 11.0063 8.73478 11.0063 9V13C11.0063 13.2652 11.1118 13.5196 11.2994 13.7071C11.4871 13.8946 11.7416 14 12.007 14C12.2723 14 12.5269 13.8946 12.7145 13.7071C12.9022 13.5196 13.0076 13.2652 13.0076 13V9C13.0076 8.73478 12.9022 8.48043 12.7145 8.29289C12.5269 8.10536 12.2723 8 12.007 8ZM12.007 17C11.4543 17 11.0063 16.5523 11.0063 16C11.0063 15.4477 11.4543 15 12.007 15C12.5596 15 13.0076 15.4477 13.0076 16C13.0076 16.5523 12.5596 17 12.007 17Z" fill="currentColor"/>
</svg>
