<svg width="24" height="24" viewBox="0 0 24 24" fill="none" xmlns="http://www.w3.org/2000/svg">
<path fill-rule="evenodd" clip-rule="evenodd" d="M22.56 16.3007L14.89 3.58067C14.5798 3.09549 14.1525 2.69619 13.6475 2.41961C13.1424 2.14302 12.5758 1.99805 12 1.99805C11.4241 1.99805 10.8576 2.14302 10.3525 2.41961C9.84743 2.69619 9.42012 3.09549 9.10998 3.58067L1.43998 16.3007C1.16903 16.7523 1.02177 17.2674 1.01299 17.794C1.00421 18.3206 1.13423 18.8402 1.38998 19.3007C1.68566 19.8189 2.11364 20.2494 2.63018 20.5481C3.14672 20.8468 3.7333 21.0029 4.32998 21.0007H19.67C20.2627 21.007 20.8467 20.8569 21.3629 20.5654C21.879 20.2739 22.3092 19.8515 22.61 19.3407C22.8732 18.8754 23.0074 18.3483 22.9986 17.8139C22.9898 17.2794 22.8384 16.757 22.56 16.3007ZM20.86 18.3507C20.7398 18.5573 20.5654 18.727 20.3556 18.8416C20.1459 18.9562 19.9088 19.0112 19.67 19.0007H4.32998C4.0912 19.0112 3.85409 18.9562 3.64434 18.8416C3.43458 18.727 3.26016 18.5573 3.13998 18.3507C3.05221 18.1987 3.006 18.0262 3.006 17.8507C3.006 17.6751 3.05221 17.5027 3.13998 17.3507L10.82 4.62067C10.958 4.43838 11.1363 4.29053 11.3411 4.18874C11.5458 4.08695 11.7713 4.03398 12 4.03398C12.2286 4.03398 12.4541 4.08695 12.6589 4.18874C12.8636 4.29053 13.042 4.43838 13.18 4.62067L20.85 17.3407C20.9411 17.493 20.9901 17.6668 20.9919 17.8443C20.9936 18.0218 20.9481 18.1966 20.86 18.3507ZM11 16.0007C11 16.553 11.4477 17.0007 12 17.0007C12.5523 17.0007 13 16.553 13 16.0007C13 15.4484 12.5523 15.0007 12 15.0007C11.4477 15.0007 11 15.4484 11 16.0007ZM11.2929 8.29356C11.4804 8.10603 11.7348 8.00067 12 8.00067C12.2652 8.00067 12.5195 8.10603 12.7071 8.29356C12.8946 8.4811 13 8.73546 13 9.00067V13.0007C13 13.2659 12.8946 13.5202 12.7071 13.7078C12.5195 13.8953 12.2652 14.0007 12 14.0007C11.7348 14.0007 11.4804 13.8953 11.2929 13.7078C11.1053 13.5202 11 13.2659 11 13.0007V9.00067C11 8.73546 11.1053 8.4811 11.2929 8.29356Z" fill="#DE3617"/>
</svg>
