<svg width="24" height="24" viewBox="0 0 24 24" fill="none" xmlns="http://www.w3.org/2000/svg">
<path fill-rule="evenodd" clip-rule="evenodd" d="M12 1C5.92487 1 1 5.92487 1 12C1 18.0751 5.92487 23 12 23C18.0751 23 23 18.0751 23 12C23 5.92487 18.0751 1 12 1ZM17.6727 9.73995C18.0813 9.36844 18.1114 8.73599 17.7399 8.32733C17.3684 7.91868 16.736 7.88856 16.3273 8.26007L10.0329 14.6187L7.70711 12.2929C7.31658 11.9024 6.68342 11.9024 6.29289 12.2929C5.90237 12.6834 5.90237 13.3166 6.29289 13.7071L9.29289 16.7071C9.67034 17.0846 10.2777 17.099 10.6727 16.7399L17.6727 9.73995Z" fill="currentColor"/>
</svg>
