<svg width="22" height="22" viewBox="0 0 22 22" fill="none" xmlns="http://www.w3.org/2000/svg">
<path fill-rule="evenodd" clip-rule="evenodd" d="M10.6625 3.91253C10.4638 4.12579 10.3556 4.40786 10.3608 4.69931C10.3659 4.99076 10.484 5.26883 10.6901 5.47496C10.8962 5.68108 11.1743 5.79914 11.4657 5.80429C11.7572 5.80943 12.0393 5.70125 12.2525 5.50253L14.1275 3.62753C14.4062 3.3488 14.7371 3.12769 15.1013 2.97685C15.4655 2.82599 15.8558 2.74835 16.25 2.74835C16.6442 2.74835 17.0345 2.82599 17.3987 2.97685C17.7629 3.12769 18.0938 3.3488 18.3725 3.62753C18.6512 3.90626 18.8723 4.23716 19.0232 4.60133C19.174 4.96552 19.2517 5.35585 19.2517 5.75003C19.2517 6.14422 19.174 6.53453 19.0232 6.89872C18.8723 7.26289 18.6512 7.59379 18.3725 7.87253L14.6225 11.6225C14.3438 11.9015 14.0131 12.1227 13.6489 12.2737C13.2847 12.4247 12.8943 12.5024 12.5 12.5024C12.1058 12.5024 11.7154 12.4247 11.3512 12.2737C10.987 12.1227 10.6561 11.9015 10.3775 11.6225C10.1643 11.4238 9.88219 11.3156 9.59074 11.3208C9.29929 11.3259 9.02122 11.444 8.81509 11.6501C8.60897 11.8562 8.49091 12.1343 8.48576 12.4257C8.48062 12.7172 8.58881 12.9993 8.78753 13.2125C9.27505 13.7001 9.85382 14.0869 10.4908 14.3507C11.1278 14.6146 11.8105 14.7503 12.5 14.7503C13.1895 14.7503 13.8722 14.6146 14.5093 14.3507C15.1462 14.0869 15.725 13.7001 16.2125 13.2125L19.9625 9.46253C20.9471 8.4779 21.5003 7.14248 21.5003 5.75003C21.5003 4.35757 20.9471 3.02215 19.9625 2.03753C18.9779 1.0529 17.6425 0.499756 16.25 0.499756C14.8576 0.499756 13.5221 1.0529 12.5375 2.03753L10.6625 3.91253ZM3.62753 18.3725C3.34859 18.0938 3.12731 17.7631 2.97635 17.3989C2.82538 17.0347 2.74766 16.6442 2.74766 16.25C2.74766 15.8558 2.82538 15.4654 2.97635 15.1012C3.12731 14.737 3.34859 14.4061 3.62753 14.1275L7.37753 10.3775C7.65614 10.0986 7.98701 9.87731 8.3512 9.72635C8.7154 9.57538 9.10577 9.49766 9.50003 9.49766C9.89428 9.49766 10.2847 9.57538 10.6489 9.72635C11.013 9.87731 11.3439 10.0986 11.6225 10.3775C11.8358 10.5763 12.1179 10.6844 12.4093 10.6793C12.7008 10.6741 12.9788 10.5561 13.185 10.35C13.3911 10.1438 13.5091 9.86576 13.5143 9.57431C13.5194 9.28286 13.4113 9.00079 13.2125 8.78753C12.725 8.29996 12.1462 7.9132 11.5092 7.64933C10.8722 7.38547 10.1895 7.24964 9.50003 7.24964C8.81054 7.24964 8.1278 7.38547 7.49081 7.64933C6.85382 7.9132 6.27505 8.29996 5.78753 8.78753L2.03753 12.5375C1.0529 13.5221 0.499756 14.8576 0.499756 16.25C0.499756 17.6425 1.0529 18.9779 2.03753 19.9625C3.02215 20.9471 4.35757 21.5003 5.75003 21.5003C7.14248 21.5003 8.4779 20.9471 9.46253 19.9625L11.3375 18.0875C11.5363 17.8742 11.6444 17.5922 11.6393 17.3008C11.6341 17.0093 11.5161 16.7312 11.31 16.5251C11.1038 16.319 10.8258 16.2008 10.5343 16.1957C10.2429 16.1906 9.96079 16.2988 9.74753 16.4975L7.87253 18.3725C7.59391 18.6514 7.26304 18.8728 6.89885 19.0237C6.53465 19.1747 6.14428 19.2524 5.75003 19.2524C5.35577 19.2524 4.9654 19.1747 4.6012 19.0237C4.23701 18.8728 3.90614 18.6514 3.62753 18.3725Z" fill="#0081A7"/>
</svg>
