<svg width="24" height="24" viewBox="0 0 24 24" fill="none" xmlns="http://www.w3.org/2000/svg">
<path d="M2 20.9999H10C10.2652 20.9999 10.5196 20.8946 10.7071 20.707C10.8946 20.5195 11 20.2651 11 19.9999C11 19.7347 10.8946 19.4803 10.7071 19.2928C10.5196 19.1053 10.2652 18.9999 10 18.9999H3.071C3.31366 17.3347 4.14714 15.8124 5.41925 14.7108C6.69136 13.6093 8.31724 13.002 10 12.9999C11.1775 13.0101 12.3214 12.6081 13.2336 11.8634C14.1457 11.1187 14.7686 10.0784 14.9943 8.92271C15.2199 7.76701 15.0341 6.56878 14.4691 5.53569C13.904 4.5026 12.9953 3.69975 11.9005 3.26629C10.8057 2.83283 9.59368 2.79608 8.47459 3.1624C7.3555 3.52871 6.39984 4.27502 5.77322 5.27197C5.14661 6.26892 4.88855 7.45369 5.04375 8.62094C5.19895 9.78818 5.75765 10.8643 6.623 11.6629C4.96321 12.3362 3.54177 13.489 2.54021 14.974C1.53864 16.459 1.00242 18.2088 1 19.9999C1 20.2651 1.10536 20.5195 1.29289 20.707C1.48043 20.8946 1.73478 20.9999 2 20.9999ZM10 4.99992C10.5933 4.99992 11.1734 5.17587 11.6667 5.50551C12.1601 5.83516 12.5446 6.30369 12.7716 6.85187C12.9987 7.40005 13.0581 8.00325 12.9424 8.58519C12.8266 9.16713 12.5409 9.70168 12.1213 10.1212C11.7018 10.5408 11.1672 10.8265 10.5853 10.9423C10.0033 11.058 9.40013 10.9986 8.85195 10.7716C8.30377 10.5445 7.83524 10.16 7.50559 9.66663C7.17595 9.17328 7 8.59326 7 7.99992C7 7.20427 7.31607 6.44121 7.87868 5.8786C8.44129 5.31599 9.20435 4.99992 10 4.99992ZM23 13.4999V18.4999C23 18.6325 22.9473 18.7597 22.8536 18.8535C22.7598 18.9472 22.6326 18.9999 22.5 18.9999H21.5V20.9999L19 18.9999H14.5C14.3674 18.9999 14.2402 18.9472 14.1464 18.8535C14.0527 18.7597 14 18.6325 14 18.4999V13.4999C14 13.3673 14.0527 13.2401 14.1464 13.1464C14.2402 13.0526 14.3674 12.9999 14.5 12.9999H22.5C22.6326 12.9999 22.7598 13.0526 22.8536 13.1464C22.9473 13.2401 23 13.3673 23 13.4999Z" fill="currentColor"/>
</svg>
