<svg width="25" height="24" viewBox="0 0 25 24" fill="none" xmlns="http://www.w3.org/2000/svg">
<g clip-path="url(#clip0_20610_8395)">
<path d="M20.8175 4.36056C19.2613 3.64636 17.6191 3.13662 15.932 2.84406C15.9167 2.84149 15.901 2.84371 15.8871 2.85042C15.8731 2.85714 15.8615 2.86802 15.854 2.88156C15.6425 3.25656 15.4085 3.74706 15.245 4.13106C13.4264 3.85507 11.5766 3.85507 9.75801 4.13106C9.57563 3.70329 9.3693 3.28613 9.14001 2.88156C9.13231 2.86816 9.12074 2.85741 9.10682 2.85072C9.0929 2.84403 9.07728 2.8417 9.06201 2.84406C7.37451 3.13506 5.73201 3.64506 4.17651 4.36056C4.1632 4.36564 4.15206 4.37518 4.14501 4.38756C1.03401 9.03606 0.180509 13.5706 0.599009 18.0481C0.600509 18.0691 0.614009 18.0901 0.630509 18.1036C2.4421 19.4455 4.4684 20.47 6.62301 21.1336C6.63822 21.1384 6.65457 21.1382 6.66967 21.1331C6.68478 21.1279 6.69786 21.1181 6.70701 21.1051C7.16901 20.4751 7.58001 19.8106 7.93401 19.1116C7.94139 19.0972 7.94391 19.0808 7.94121 19.0648C7.93851 19.0489 7.93072 19.0342 7.91901 19.0231C7.91126 19.0157 7.90206 19.0101 7.89201 19.0066C7.24575 18.7582 6.61985 18.4598 6.02001 18.1141C6.00325 18.1046 5.99079 18.089 5.98521 18.0706C5.97962 18.0521 5.98134 18.0323 5.99001 18.0151C5.99511 18.0039 6.00283 17.9941 6.01251 17.9866C6.13851 17.8921 6.26451 17.7931 6.38451 17.6941C6.39511 17.6855 6.40783 17.6801 6.4213 17.6782C6.43478 17.6764 6.4485 17.6782 6.46101 17.6836C10.3895 19.4776 14.642 19.4776 18.5225 17.6836C18.5355 17.6779 18.5497 17.676 18.5637 17.6778C18.5777 17.6797 18.591 17.6853 18.602 17.6941C18.722 17.7931 18.848 17.8921 18.974 17.9866C18.9842 17.994 18.9924 18.0039 18.9979 18.0153C19.0033 18.0267 19.0059 18.0393 19.0053 18.0519C19.0047 18.0646 19.001 18.0768 18.9945 18.0877C18.988 18.0985 18.9789 18.1076 18.968 18.1141C18.3695 18.4629 17.7428 18.761 17.0945 19.0051C17.0842 19.0088 17.0748 19.0148 17.067 19.0226C17.0592 19.0303 17.0533 19.0397 17.0495 19.0501C17.046 19.0601 17.0446 19.0707 17.0454 19.0813C17.0462 19.0918 17.0491 19.1022 17.054 19.1116C17.414 19.8091 17.8265 20.4751 18.2795 21.1051C18.2887 21.1181 18.3017 21.1279 18.3168 21.1331C18.3319 21.1382 18.3483 21.1384 18.3635 21.1336C20.5217 20.4721 22.5513 19.4474 24.365 18.1036C24.3741 18.0973 24.3816 18.089 24.3871 18.0794C24.3926 18.0698 24.3958 18.0591 24.3965 18.0481C24.8975 12.8716 23.558 8.37456 20.8475 4.38906C20.8448 4.38248 20.8407 4.37654 20.8355 4.37163C20.8304 4.36672 20.8242 4.36295 20.8175 4.36056ZM8.52051 15.3211C7.33701 15.3211 6.36351 14.2351 6.36351 12.9031C6.36351 11.5696 7.31901 10.4836 8.52051 10.4836C9.73101 10.4836 10.6955 11.5786 10.6775 12.9031C10.6775 14.2351 9.72201 15.3211 8.52051 15.3211ZM16.4945 15.3211C15.3125 15.3211 14.3375 14.2351 14.3375 12.9031C14.3375 11.5696 15.293 10.4836 16.4945 10.4836C17.705 10.4836 18.671 11.5786 18.6515 12.9031C18.6515 14.2351 17.705 15.3211 16.4945 15.3211Z" fill="white"/>
</g>
<defs>
<clipPath id="clip0_20610_8395">
<rect width="24" height="24" fill="white" transform="translate(0.5)"/>
</clipPath>
</defs>
</svg>
