<svg xmlns="http://www.w3.org/2000/svg" width="25" height="20" fill="none" viewBox="0 0 25 20">
  <path d="M20.817 2.36A19.84 19.84 0 0 0 15.932.845a.075.075 0 0 0-.078.038c-.211.375-.445.865-.609 1.25a18.285 18.285 0 0 0-5.487 0A12.387 12.387 0 0 0 9.14.881a.077.077 0 0 0-.078-.038c-1.687.291-3.33.801-4.885 1.517a.061.061 0 0 0-.032.027C1.034 7.036.181 11.57.599 16.048a.084.084 0 0 0 .032.056 19.917 19.917 0 0 0 5.992 3.03.075.075 0 0 0 .084-.029c.462-.63.873-1.294 1.227-1.993a.075.075 0 0 0-.042-.105 13.319 13.319 0 0 1-1.872-.893.075.075 0 0 1-.03-.099.076.076 0 0 1 .023-.028c.126-.095.252-.194.372-.293a.075.075 0 0 1 .076-.01c3.928 1.794 8.181 1.794 12.062 0a.078.078 0 0 1 .079.01c.12.1.246.198.372.293a.076.076 0 0 1-.006.127c-.599.349-1.225.647-1.873.891a.075.075 0 0 0-.05.076.08.08 0 0 0 .009.03c.36.698.773 1.364 1.226 1.994a.074.074 0 0 0 .037.028.075.075 0 0 0 .046 0 19.855 19.855 0 0 0 6.002-3.03.074.074 0 0 0 .032-.055c.5-5.176-.839-9.673-3.55-13.659a.05.05 0 0 0-.03-.028ZM8.521 13.322c-1.184 0-2.157-1.086-2.157-2.418 0-1.333.955-2.42 2.157-2.42 1.21 0 2.174 1.096 2.156 2.42 0 1.332-.955 2.418-2.156 2.418Zm7.973 0c-1.181 0-2.156-1.086-2.156-2.418 0-1.333.955-2.42 2.156-2.42 1.211 0 2.177 1.096 2.157 2.42 0 1.332-.946 2.418-2.157 2.418Z" fill="currentColor" />
</svg>
