<svg width="11" height="20" viewBox="0 0 11 20" fill="none" xmlns="http://www.w3.org/2000/svg">
<path d="M4 2C4 3.10457 3.10457 4 2 4C0.89543 4 0 3.10457 0 2C0 0.89543 0.89543 0 2 0C3.10457 0 4 0.89543 4 2Z" fill="#161616"/>
<path d="M4 10C4 11.1046 3.10457 12 2 12C0.89543 12 0 11.1046 0 10C0 8.89543 0.89543 8 2 8C3.10457 8 4 8.89543 4 10Z" fill="#161616"/>
<path d="M4 18C4 19.1046 3.10457 20 2 20C0.89543 20 0 19.1046 0 18C0 16.8954 0.89543 16 2 16C3.10457 16 4 16.8954 4 18Z" fill="#161616"/>
<path d="M11 2C11 3.10457 10.1046 4 9 4C7.89543 4 7 3.10457 7 2C7 0.89543 7.89543 0 9 0C10.1046 0 11 0.89543 11 2Z" fill="#161616"/>
<path d="M11 10C11 11.1046 10.1046 12 9 12C7.89543 12 7 11.1046 7 10C7 8.89543 7.89543 8 9 8C10.1046 8 11 8.89543 11 10Z" fill="#161616"/>
<path d="M11 18C11 19.1046 10.1046 20 9 20C7.89543 20 7 19.1046 7 18C7 16.8954 7.89543 16 9 16C10.1046 16 11 16.8954 11 18Z" fill="#161616"/>
</svg>
