<svg width="24" height="24" viewBox="0 0 24 24" fill="none" xmlns="http://www.w3.org/2000/svg">
<path fill-rule="evenodd" clip-rule="evenodd" d="M12.061 6.58758L19.2938 13.4823C19.6276 13.0526 19.9352 12.6048 20.215 12.1411C20.124 11.9915 20.0036 11.8011 19.8547 11.5814C19.4705 11.0148 18.9015 10.2614 18.1629 9.51108C16.6822 8.00686 14.6166 6.60952 12.061 6.58758ZM21.1667 12.1429L21.912 11.7879C22.0329 12.0182 22.029 12.29 21.9016 12.517C21.3684 13.467 20.7325 14.3614 20.0043 15.1856C19.854 15.3558 19.6355 15.458 19.4023 15.4675C19.169 15.477 18.9422 15.3929 18.7771 15.2355L9.66047 6.54508C9.44674 6.34134 9.36567 6.04332 9.44865 5.76637C9.53163 5.48942 9.76563 5.27702 10.0601 5.21138C10.6963 5.06956 11.3476 4.99863 12.001 5.00002C12.0013 5.00002 12.0016 5.00002 12.002 5.00002L12 5.79367V5.00002C12.0003 5.00002 12.0006 5.00002 12.001 5.00002C15.2501 5.00037 17.7464 6.7672 19.3788 8.42546C20.2026 9.26239 20.8316 10.0963 21.2547 10.7202C21.4668 11.033 21.6285 11.295 21.7384 11.481C21.7933 11.574 21.8354 11.6482 21.8644 11.7004C21.8789 11.7264 21.8901 11.7471 21.8981 11.7618L21.9075 11.7794L21.9104 11.7848L21.912 11.7879C21.9122 11.7882 21.912 11.7879 21.1667 12.1429ZM6.54425 6.79781C6.87603 6.55653 7.34407 6.58627 7.63926 6.86739L10.8193 9.89602C10.8213 9.89785 10.8232 9.89969 10.8251 9.90154L14.3534 13.2618C14.3553 13.2636 14.3573 13.2655 14.3592 13.2674L17.5393 16.296C17.7093 16.4579 17.7976 16.6818 17.7815 16.9103C17.7654 17.1388 17.6464 17.3495 17.4552 17.4883C15.8892 18.6252 13.9824 19.255 12.0136 19.2856L12 19.2857C8.75041 19.2857 6.25373 17.5187 4.62122 15.8603C3.79736 15.0233 3.16839 14.1894 2.74528 13.5655C2.53321 13.2528 2.37149 12.9908 2.26164 12.8048C2.20669 12.7117 2.16462 12.6375 2.13563 12.5854C2.12113 12.5593 2.1099 12.5387 2.10195 12.524L2.09249 12.5063L2.08962 12.5009L2.08864 12.4991C2.08849 12.4988 2.08798 12.4978 2.83333 12.1429L2.08798 12.4978C1.96688 12.2671 1.97101 11.9948 2.09904 11.7676C3.19179 9.82813 4.70742 8.13364 6.54425 6.79781ZM3.78548 12.1454C3.87637 12.2949 3.9966 12.485 4.14535 12.7044C4.52953 13.2709 5.09847 14.0243 5.83711 14.7747C7.32829 16.2895 9.4126 17.6959 11.9932 17.6984C13.2811 17.6773 14.5364 17.3432 15.6428 16.7346L13.7081 14.892C13.5758 14.971 13.4376 15.0412 13.2943 15.102C12.8854 15.2755 12.444 15.3688 11.9964 15.3764C11.5489 15.3839 11.1043 15.3055 10.6892 15.1458C10.2742 14.9861 9.89714 14.7485 9.58062 14.447C9.26409 14.1456 9.01456 13.7865 8.84691 13.3912C8.67926 12.9959 8.59693 12.5725 8.60482 12.1463C8.61272 11.72 8.71069 11.2996 8.89287 10.9102C8.95671 10.7738 9.03044 10.6421 9.11337 10.5161L6.98925 8.49312C5.70859 9.52491 4.62446 10.7605 3.78548 12.1454ZM10.3566 11.7001C10.3031 11.8528 10.2742 12.0127 10.2712 12.1743C10.2673 12.3874 10.3084 12.5991 10.3923 12.7967C10.4761 12.9944 10.6009 13.1739 10.7591 13.3246C10.9174 13.4754 11.1059 13.5942 11.3134 13.674C11.521 13.7539 11.7433 13.7931 11.967 13.7893C12.1367 13.7865 12.3046 13.759 12.4649 13.708L10.3566 11.7001Z" fill="currentColor"/>
<path fill-rule="evenodd" clip-rule="evenodd" d="M2.24408 2.24408C2.56951 1.91864 3.09715 1.91864 3.42259 2.24408L21.7559 20.5774C22.0814 20.9028 22.0814 21.4305 21.7559 21.7559C21.4305 22.0814 20.9028 22.0814 20.5774 21.7559L2.24408 3.42259C1.91864 3.09715 1.91864 2.56951 2.24408 2.24408Z" fill="currentColor"/>
</svg>
