<svg width="24" height="24" viewBox="0 0 24 24" fill="none" xmlns="http://www.w3.org/2000/svg">
<path d="M21.9131 11.6C19.8938 6.91 16.0952 4 11.9966 4C7.89801 4 4.09933 6.91 2.08004 11.6C2.02499 11.7262 1.99658 11.8623 1.99658 12C1.99658 12.1377 2.02499 12.2738 2.08004 12.4C4.09933 17.09 7.89801 20 11.9966 20C16.0952 20 19.8938 17.09 21.9131 12.4C21.9682 12.2738 21.9966 12.1377 21.9966 12C21.9966 11.8623 21.9682 11.7262 21.9131 11.6ZM11.9966 18C8.82769 18 5.82873 15.71 4.09933 12C5.82873 8.29 8.82769 6 11.9966 6C15.1655 6 18.1644 8.29 19.8938 12C18.1644 15.71 15.1655 18 11.9966 18ZM11.9966 8C11.2057 8 10.4326 8.2346 9.77508 8.67412C9.11751 9.11365 8.605 9.73836 8.30235 10.4693C7.99971 11.2002 7.92052 12.0044 8.07481 12.7804C8.22909 13.5563 8.60992 14.269 9.16914 14.8284C9.72836 15.3878 10.4408 15.7688 11.2165 15.9231C11.9921 16.0775 12.7961 15.9983 13.5268 15.6955C14.2574 15.3928 14.8819 14.8801 15.3213 14.2223C15.7607 13.5645 15.9952 12.7911 15.9952 12C15.9952 10.9391 15.5739 9.92172 14.824 9.17157C14.0741 8.42143 13.0571 8 11.9966 8ZM11.9966 14C11.6012 14 11.2146 13.8827 10.8858 13.6629C10.557 13.4432 10.3008 13.1308 10.1495 12.7654C9.99814 12.3999 9.95855 11.9978 10.0357 11.6098C10.1128 11.2219 10.3033 10.8655 10.5829 10.5858C10.8625 10.3061 11.2187 10.1156 11.6065 10.0384C11.9944 9.96126 12.3964 10.0009 12.7617 10.1522C13.127 10.3036 13.4393 10.56 13.6589 10.8889C13.8786 11.2178 13.9959 11.6044 13.9959 12C13.9959 12.5304 13.7852 13.0391 13.4103 13.4142C13.0354 13.7893 12.5268 14 11.9966 14Z" fill="currentColor"/>
</svg>
