<svg xmlns="http://www.w3.org/2000/svg" width="12" height="8" viewBox="0 0 12 8" fill="currentColor">
  <path fill-rule="evenodd" clip-rule="evenodd" d="M4.66674 6.66667H7.33341C7.50333 6.66686 7.66676 6.73192 7.79032 6.84857C7.91388 6.96521 7.98823 7.12464 7.99819 7.29426C8.00815 7.46389 7.95296 7.63092 7.8439 7.76122C7.73484 7.89152 7.58014 7.97526 7.41141 7.99533L7.33341 8H4.66674C4.49682 7.99981 4.33339 7.93475 4.20983 7.8181C4.08627 7.70146 4.01192 7.54203 4.00196 7.3724C3.992 7.20278 4.04719 7.03575 4.15625 6.90545C4.26531 6.77514 4.42001 6.6914 4.58874 6.67133L4.66674 6.66667H7.33341H4.66674ZM3.33341 3.33333H8.66674C8.83666 3.33352 9.0001 3.39859 9.12365 3.51523C9.24721 3.63188 9.32156 3.7913 9.33152 3.96093C9.34148 4.13056 9.28629 4.29759 9.17723 4.42789C9.06817 4.55819 8.91347 4.64193 8.74474 4.662L8.66674 4.66667H3.33341C3.16349 4.66648 3.00005 4.60141 2.8765 4.48477C2.75294 4.36812 2.67859 4.2087 2.66863 4.03907C2.65867 3.86944 2.71386 3.70241 2.82292 3.57211C2.93198 3.44181 3.08668 3.35807 3.25541 3.338L3.33341 3.33333H8.66674H3.33341ZM1.33341 0H10.6667C10.8367 0.000188472 11.0001 0.0652526 11.1237 0.181899C11.2472 0.298545 11.3216 0.457969 11.3315 0.627597C11.3415 0.797224 11.2863 0.964253 11.1772 1.09455C11.0682 1.22486 10.9135 1.3086 10.7447 1.32867L10.6667 1.33333H1.33341C1.16349 1.33314 1.00005 1.26808 0.876496 1.15143C0.752939 1.03479 0.678585 0.875365 0.668627 0.705737C0.658669 0.536109 0.713858 0.369081 0.822918 0.238778C0.931978 0.108476 1.08668 0.0247357 1.25541 0.00466665L1.33341 0H10.6667H1.33341Z" fill="currentColor"/>
</svg>