<svg width="24" height="24" viewBox="0 0 24 24" fill="none" xmlns="http://www.w3.org/2000/svg">
<path fill-rule="evenodd" clip-rule="evenodd" d="M11.9664 1C5.91131 1 1 6.04826 1 12.2721C1 17.2512 4.16208 21.4697 8.46789 22.9911C9.00612 23.0602 9.20795 22.7144 9.20795 22.4378C9.20795 22.1612 9.20795 21.4697 9.20795 20.5015C6.18043 21.193 5.50764 18.9801 5.50764 18.9801C5.0367 17.6662 4.29664 17.3204 4.29664 17.3204C3.28746 16.6289 4.36391 16.6289 4.36391 16.6289C5.44037 16.698 6.04587 17.8045 6.04587 17.8045C7.05505 19.5333 8.60245 19.0493 9.20795 18.7726C9.27523 18.0119 9.61162 17.5279 9.88073 17.2513C7.45871 16.9746 4.90214 16.0065 4.90214 11.6498C4.90214 10.405 5.30581 9.43682 6.04587 8.60697C5.97859 8.39951 5.57492 7.22388 6.18043 5.70249C6.18043 5.70249 7.12232 5.42587 9.20795 6.87811C10.0826 6.60149 11.0245 6.53234 11.9664 6.53234C12.9083 6.53234 13.8502 6.67065 14.7248 6.87811C16.8104 5.42587 17.7523 5.70249 17.7523 5.70249C18.3578 7.22388 17.9541 8.39951 17.8869 8.67612C18.5596 9.43682 19.0306 10.4741 19.0306 11.7189C19.0306 16.0756 16.474 16.9746 14.052 17.2513C14.4557 17.597 14.792 18.2886 14.792 19.3259C14.792 20.8473 14.792 22.0229 14.792 22.4378C14.792 22.7144 14.9939 23.0602 15.5321 22.9911C19.9052 21.4697 23 17.2512 23 12.2721C22.9327 6.04826 18.0214 1 11.9664 1Z" fill="currentColor"/>
</svg>
