<svg width="24" height="24" viewBox="0 0 24 24" fill="none" xmlns="http://www.w3.org/2000/svg">
<path d="M14.3645 2.4894C15.1222 2.1663 15.9344 2 16.7546 2C17.5747 2 18.3869 2.1663 19.1446 2.4894C19.9022 2.81244 20.5905 3.2859 21.1702 3.88273C21.7502 4.47937 22.2105 5.18805 22.5244 5.96769C22.8384 6.74746 23 7.58326 23 8.42732C23 9.27139 22.8384 10.1072 22.5244 10.887C22.2105 11.6667 21.7504 12.3751 21.1704 12.9718L12.679 21.7105C12.3038 22.0965 11.6956 22.0965 11.3205 21.7105L2.8291 12.9718C1.65795 11.7665 1 10.1318 1 8.42732C1 6.72283 1.65795 5.08815 2.8291 3.88289C4.00025 2.67764 5.58867 2.00053 7.24493 2.00053C8.90119 2.00053 10.4896 2.67764 11.6608 3.88289L11.9997 4.23174L12.3386 3.88306C12.9183 3.28615 13.6069 2.81247 14.3645 2.4894Z" fill="currentColor"/>
</svg>
