<svg width="24" height="24" viewBox="0 0 24 24" fill="none" xmlns="http://www.w3.org/2000/svg">
<path fill-rule="evenodd" clip-rule="evenodd" d="M19.3333 6.04167C19.3333 6.80114 18.7176 7.41667 17.9583 7.41667C17.199 7.41667 16.5833 6.80114 16.5833 6.04167C16.5833 5.28219 17.199 4.66667 17.9583 4.66667C18.7178 4.66667 19.3333 5.28219 19.3333 6.04167ZM12 15.6667C9.97494 15.6667 8.33333 14.0251 8.33333 12C8.33333 9.97494 9.97494 8.33333 12 8.33333C14.0251 8.33333 15.6667 9.97494 15.6667 12C15.6667 14.0251 14.0251 15.6667 12 15.6667ZM12 6.5C8.96241 6.5 6.5 8.96241 6.5 12C6.5 15.0376 8.96241 17.5 12 17.5C15.0376 17.5 17.5 15.0376 17.5 12C17.5 8.96241 15.0376 6.5 12 6.5ZM12.0001 2.83333C14.9856 2.83333 15.3392 2.84469 16.5181 2.8985C17.6083 2.94829 18.2004 3.13033 18.5943 3.28355C19.1162 3.48638 19.4886 3.72869 19.88 4.12003C20.2713 4.5112 20.5136 4.88367 20.7165 5.40569C20.8695 5.79964 21.0517 6.39172 21.1015 7.48188C21.1553 8.66096 21.1667 9.01456 21.1667 12.0001C21.1667 14.9856 21.1553 15.3392 21.1015 16.5181C21.0517 17.6083 20.8697 18.2004 20.7165 18.5943C20.5136 19.1162 20.2713 19.4886 19.88 19.88C19.4888 20.2713 19.1163 20.5136 18.5943 20.7165C18.2004 20.8695 17.6083 21.0517 16.5181 21.1015C15.3392 21.1553 14.9856 21.1667 12.0001 21.1667C9.01438 21.1667 8.66078 21.1553 7.48188 21.1015C6.39172 21.0517 5.79964 20.8697 5.40569 20.7165C4.88384 20.5136 4.51137 20.2713 4.12003 19.88C3.72887 19.4888 3.48638 19.1163 3.28355 18.5943C3.13051 18.2004 2.94829 17.6083 2.8985 16.5181C2.84469 15.339 2.83333 14.9854 2.83333 12.0001C2.83333 9.01456 2.84469 8.66096 2.8985 7.48188C2.94829 6.39172 3.13033 5.79964 3.28355 5.40569C3.48638 4.88384 3.72869 4.51137 4.12003 4.12003C4.5112 3.72869 4.88367 3.48638 5.40569 3.28355C5.79964 3.13051 6.39172 2.94829 7.48188 2.8985C8.66096 2.84469 9.01456 2.83333 12.0001 2.83333ZM12 1C9.01264 1 8.63795 1.01272 7.46473 1.06617C6.29392 1.11963 5.49419 1.30559 4.79466 1.5775C4.07123 1.85852 3.45781 2.23475 2.84628 2.84628C2.23475 3.45781 1.85852 4.07123 1.5775 4.79466C1.30559 5.49436 1.11963 6.29392 1.06617 7.46473C1.01272 8.63795 1 9.01264 1 12C1 14.9874 1.01272 15.362 1.06617 16.5353C1.11963 17.7061 1.30559 18.5056 1.5775 19.2053C1.85852 19.9288 2.23475 20.5422 2.84628 21.1537C3.45781 21.7652 4.07123 22.1413 4.79466 22.4225C5.49436 22.6944 6.29392 22.8804 7.46473 22.9338C8.63795 22.9873 9.01264 23 12 23C14.9874 23 15.362 22.9873 16.5353 22.9338C17.7061 22.8804 18.5056 22.6944 19.2053 22.4225C19.9288 22.1413 20.5422 21.7652 21.1537 21.1537C21.7652 20.5422 22.1413 19.9288 22.4225 19.2053C22.6944 18.5056 22.8804 17.7061 22.9338 16.5353C22.9873 15.362 23 14.9874 23 12C23 9.01264 22.9873 8.63795 22.9338 7.46473C22.8804 6.29392 22.6944 5.49436 22.4225 4.79466C22.1413 4.07123 21.7652 3.45781 21.1537 2.84628C20.5422 2.23475 19.9288 1.85869 19.2053 1.5775C18.5056 1.30559 17.7061 1.11963 16.5353 1.06617C15.362 1.01272 14.9874 1 12 1Z" fill="currentColor"/>
</svg>
