<svg width="24" height="24" viewBox="0 0 24 24" fill="none" xmlns="http://www.w3.org/2000/svg">
<path d="M0 4C0 1.79086 1.79086 0 4 0H20C22.2091 0 24 1.79086 24 4V20C24 22.2091 22.2091 24 20 24H4C1.79086 24 0 22.2091 0 20V4Z" fill="white"/>
<path d="M9.21063 9.33366L9.66663 9.33366C10.232 9.33366 10.73 9.67499 11.0313 10.1917C11.2188 9.75048 11.4731 9.3408 11.7853 8.97699C11.2426 8.37433 10.4933 8.00033 9.66663 8.00033L9.21063 8.00033C9.07349 7.61156 8.81945 7.27473 8.48335 7.03602C8.14725 6.79731 7.74554 6.66841 7.33329 6.66699C6.23063 6.66699 5.33329 7.56432 5.33329 8.66699C5.33329 9.76966 6.23062 10.667 7.33329 10.667C7.74554 10.6656 8.14725 10.5367 8.48335 10.298C8.81945 10.0593 9.07349 9.72243 9.21063 9.33366ZM6.66663 8.66699C6.6743 8.49534 6.7479 8.33326 6.87208 8.21451C6.99626 8.09576 7.16147 8.02948 7.33329 8.02948C7.50512 8.02948 7.67032 8.09576 7.7945 8.21451C7.91869 8.33326 7.99228 8.49534 7.99996 8.66699C7.99228 8.83864 7.91869 9.00072 7.7945 9.11947C7.67032 9.23823 7.50512 9.3045 7.33329 9.3045C7.16147 9.3045 6.99626 9.23823 6.87208 9.11947C6.7479 9.00072 6.6743 8.83864 6.66663 8.66699ZM14.79 14.667L14.556 14.667C13.8993 14.667 13.3213 14.3103 12.9826 13.7703C12.8014 14.2104 12.5541 14.6202 12.2493 14.9857C12.8346 15.6097 13.6506 16.0003 14.5553 16.0003L14.7893 16.0003C14.9264 16.3891 15.1805 16.7259 15.5166 16.9646C15.8527 17.2033 16.2544 17.3322 16.6666 17.3337C17.7693 17.3337 18.6666 16.4363 18.6666 15.3337C18.6666 14.231 17.7693 13.3337 16.6666 13.3337C15.7986 13.3337 15.066 13.893 14.79 14.667ZM17.3333 15.3337C17.3334 15.4657 17.2944 15.5948 17.2211 15.7047C17.1478 15.8145 17.0436 15.9001 16.9216 15.9507C16.7997 16.0013 16.6654 16.0146 16.5359 15.9889C16.4064 15.9631 16.2875 15.8996 16.1941 15.8062C16.1007 15.7128 16.0371 15.5939 16.0114 15.4644C15.9857 15.3348 15.999 15.2006 16.0496 15.0786C16.1001 14.9567 16.1858 14.8525 16.2956 14.7792C16.4055 14.7059 16.5346 14.6669 16.6666 14.667C17.034 14.667 17.3333 14.9657 17.3333 15.3337ZM9.22396 15.957C11.166 15.6837 12.6666 14.0163 12.6666 12.0003C12.6673 11.3849 12.8806 10.7885 13.2705 10.3123C13.6603 9.83608 14.2028 9.50919 14.806 9.38699C14.951 9.76297 15.2063 10.0864 15.5383 10.3148C15.8704 10.5432 16.2636 10.6659 16.6666 10.667C17.7693 10.667 18.6666 9.76966 18.6666 8.66699C18.6666 7.56433 17.7693 6.66699 16.6666 6.66699C15.7826 6.66699 15.04 7.24699 14.776 8.04366C12.834 8.31699 11.3333 9.98433 11.3333 12.0003C11.3326 12.6158 11.1193 13.2121 10.7295 13.6883C10.3396 14.1646 9.79716 14.4915 9.19396 14.6137C9.04888 14.2377 8.79361 13.9143 8.46159 13.6859C8.12956 13.4575 7.73629 13.3347 7.33329 13.3337C6.23062 13.3337 5.33329 14.231 5.33329 15.3337C5.33329 16.4363 6.23062 17.3337 7.33329 17.3337C8.21729 17.3337 8.95996 16.7537 9.22396 15.957ZM17.3333 8.66699C17.3334 8.79904 17.2944 8.92815 17.2211 9.03799C17.1478 9.14784 17.0436 9.23348 16.9216 9.28407C16.7997 9.33466 16.6654 9.34793 16.5359 9.3222C16.4064 9.29647 16.2875 9.2329 16.1941 9.13953C16.1007 9.04617 16.0371 8.9272 16.0114 8.79769C15.9857 8.66817 15.999 8.53394 16.0496 8.41197C16.1001 8.29001 16.1858 8.18579 16.2956 8.11251C16.4055 8.03924 16.5346 8.00019 16.6666 8.00033C17.034 8.00033 17.3333 8.29899 17.3333 8.66699ZM6.66663 15.3337C6.6743 15.162 6.7479 14.9999 6.87208 14.8812C6.99626 14.7624 7.16147 14.6961 7.33329 14.6961C7.50512 14.6961 7.67032 14.7624 7.7945 14.8812C7.91869 14.9999 7.99228 15.162 7.99996 15.3337C7.99228 15.5053 7.91869 15.6674 7.7945 15.7861C7.67032 15.9049 7.50512 15.9712 7.33329 15.9712C7.16147 15.9712 6.99626 15.9049 6.87208 15.7861C6.7479 15.6674 6.6743 15.5053 6.66663 15.3337Z" fill="#212B36"/>
<path d="M4 1H20V-1H4V1ZM23 4V20H25V4H23ZM20 23H4V25H20V23ZM1 20V4H-1V20H1ZM4 23C2.34315 23 1 21.6569 1 20H-1C-1 22.7614 1.23858 25 4 25V23ZM23 20C23 21.6569 21.6569 23 20 23V25C22.7614 25 25 22.7614 25 20H23ZM20 1C21.6569 1 23 2.34315 23 4H25C25 1.23858 22.7614 -1 20 -1V1ZM4 -1C1.23858 -1 -1 1.23858 -1 4H1C1 2.34315 2.34315 1 4 1V-1Z" fill="#B7C0C6"/>
</svg>
