<svg width="24" height="24" viewBox="0 0 24 24" fill="none" xmlns="http://www.w3.org/2000/svg">
<path fill-rule="evenodd" clip-rule="evenodd" d="M20.3121 1C21.7956 1 23 2.20441 23 3.68787V20.3121C23 21.7956 21.7956 23 20.3121 23H3.68787C2.20441 23 1 21.7956 1 20.3121V3.68787C1 2.20441 2.20437 1 3.68787 1H20.3121ZM7.89481 19.1877V9.48895H4.67043V19.1877H7.89481ZM19.5195 19.1877V13.6259C19.5195 10.6467 17.9289 9.26087 15.8078 9.26087C14.0975 9.26087 13.3314 10.2015 12.9024 10.8621V9.48895H9.67887C9.72163 10.3991 9.67887 19.1877 9.67887 19.1877H12.9024V13.7713C12.9024 13.4813 12.9233 13.1915 13.0087 12.9843C13.2413 12.4053 13.7721 11.8055 14.6627 11.8055C15.8287 11.8055 16.2958 12.6952 16.2958 13.9985V19.1877H19.5195ZM6.30441 4.81227C5.20123 4.81227 4.48047 5.53754 4.48047 6.48814C4.48047 7.41876 5.17931 8.16401 6.26174 8.16401H6.28254C7.40681 8.16401 8.10664 7.41876 8.10664 6.48814C8.0858 5.53888 7.40879 4.81434 6.30441 4.81227Z" fill="currentColor"/>
</svg>
