<svg width="24" height="24" viewBox="0 0 24 24" fill="none" xmlns="http://www.w3.org/2000/svg">
<path fill-rule="evenodd" clip-rule="evenodd" d="M10.5021 1.40264C10.9577 1.14014 11.4742 1.00195 12 1.00195C12.5258 1.00195 13.0424 1.14015 13.4979 1.40267L13.5 1.40388L20.5 5.40387C20.8697 5.61735 21.1887 5.90669 21.4365 6.25161C21.4971 6.31213 21.5509 6.38149 21.5958 6.45916C21.6345 6.52615 21.6647 6.59577 21.6865 6.66672C21.8918 7.07992 21.9995 7.53576 22 7.99888V16.0009C21.9995 16.527 21.8606 17.0437 21.5973 17.4992C21.334 17.9547 20.9556 18.3329 20.5 18.5959L20.4961 18.5981L13.5 22.5959L13.4982 22.597C13.1811 22.7798 12.8343 22.9023 12.4755 22.9599C12.3341 23.0365 12.1721 23.08 12 23.08C11.8279 23.08 11.6659 23.0365 11.5245 22.9599C11.1657 22.9023 10.819 22.7798 10.5019 22.597L10.5 22.5959L3.50386 18.5981L3.5 18.5959C3.04439 18.3329 2.66597 17.9547 2.40269 17.4992C2.13941 17.0437 2.00054 16.527 2 16.0009V7.99888C2.00048 7.53503 2.10849 7.07848 2.3145 6.66476C2.33627 6.59449 2.36618 6.52553 2.40458 6.45916C2.4492 6.38202 2.50255 6.31308 2.56265 6.25285C2.81057 5.90738 3.12981 5.61761 3.5 5.40388L3.50386 5.40165L10.5021 1.40264ZM13 20.5782L19.5 16.8639L19.5016 16.863C19.6527 16.7753 19.7783 16.6496 19.8658 16.4983C19.9535 16.3465 19.9998 16.1742 20 15.9989V8.53753L13 12.5868V20.5782ZM11 12.5866V20.5782L4.5 16.8639L4.49842 16.863C4.34726 16.7753 4.22169 16.6496 4.13423 16.4983C4.04654 16.3466 4.00025 16.1745 4 15.9993V8.53731L11 12.5866ZM12.5 3.13594L18.9611 6.82798L12.0002 10.8546L5.03909 6.82788L11.4961 3.13815L11.5 3.13593C11.652 3.04816 11.8245 3.00195 12 3.00195C12.1755 3.00195 12.348 3.04817 12.5 3.13594Z" fill="currentColor"/>
</svg>
