<svg width="24" height="24" viewBox="0 0 24 24" fill="none" xmlns="http://www.w3.org/2000/svg">
<path d="M1 11.9999C1 14.1755 1.64514 16.3022 2.85383 18.1112C4.06253 19.9201 5.7805 21.33 7.79048 22.1626C9.80047 22.9951 12.0122 23.213 14.146 22.7885C16.2798 22.3641 18.2398 21.3164 19.7782 19.7781C21.3166 18.2397 22.3642 16.2797 22.7886 14.1459C23.2131 12.0121 22.9952 9.80036 22.1627 7.79037C21.3301 5.78038 19.9202 4.06242 18.1113 2.85372C16.3023 1.64503 14.1756 0.999888 12 0.999888C9.91718 0.992934 7.87597 1.58288 6.118 2.69989L4.707 1.28889C4.56691 1.14884 4.38838 1.05354 4.19405 1.0151C3.99972 0.976663 3.79836 0.996803 3.61549 1.07297C3.43263 1.14914 3.2765 1.2779 3.16693 1.44292C3.05735 1.60795 2.99925 1.8018 3 1.99989V5.99989C3 6.2651 3.10536 6.51946 3.29289 6.70699C3.48043 6.89453 3.73478 6.99989 4 6.99989H8C8.19775 6.99985 8.39105 6.94117 8.55546 6.83129C8.71987 6.72141 8.84801 6.56524 8.92368 6.38254C8.99935 6.19984 9.01915 5.99881 8.98058 5.80486C8.94202 5.6109 8.84681 5.43274 8.707 5.29289L7.58 4.16589C8.92669 3.39903 10.4503 2.99711 12 2.99989C13.78 2.99989 15.5201 3.52773 17.0001 4.51666C18.4802 5.50559 19.6337 6.9112 20.3149 8.55574C20.9961 10.2003 21.1743 12.0099 20.8271 13.7557C20.4798 15.5015 19.6226 17.1052 18.364 18.3638C17.1053 19.6225 15.5016 20.4797 13.7558 20.827C12.01 21.1742 10.2004 20.996 8.55585 20.3148C6.91131 19.6336 5.50571 18.4801 4.51677 17C3.52784 15.52 3 13.7799 3 11.9999C3 11.7347 2.89464 11.4803 2.70711 11.2928C2.51957 11.1052 2.26522 10.9999 2 10.9999C1.73478 10.9999 1.48043 11.1052 1.29289 11.2928C1.10536 11.4803 1 11.7347 1 11.9999Z" fill="currentColor"/>
</svg>
