<svg width="22" height="14" viewBox="0 0 22 14" fill="none" xmlns="http://www.w3.org/2000/svg">
<path fill-rule="evenodd" clip-rule="evenodd" d="M1.40301 14H20.597C21.3569 14 22 13.3356 22 12.5505V1.44948C22 0.644215 21.3764 0 20.597 0H1.40301C0.623561 0 0 0.644215 0 1.44948V12.5505C0 13.3558 0.623561 14 1.40301 14ZM4.125 12.2812L6.70868 1.96875H9.71094L7.10812 12.2812H4.125ZM14.8577 2.65625L15.0938 5.59491L17.7617 4.87877L18.3047 6.6074L15.6604 7.69396L17.2895 10.2128L16.0618 11.25L14.1023 8.9287L12.0482 11.25L10.7734 10.2622L12.3788 7.69396L9.71094 6.6074L10.1831 4.82938L13.0162 5.59491L13.2523 2.65625H14.8577Z" fill="white"/>
</svg>
