<svg width="24" height="24" viewBox="0 0 24 24" fill="none" xmlns="http://www.w3.org/2000/svg">
<path fill-rule="evenodd" clip-rule="evenodd" d="M2.40301 19H21.597C22.3569 19 23 18.3356 23 17.5505V6.44948C23 5.64422 22.3764 5 21.597 5H2.40301C1.62356 5 1 5.64422 1 6.44948L1 17.5505C1 18.3558 1.62356 19 2.40301 19ZM5.125 17.2812L7.70868 6.96875H10.7109L8.10812 17.2812H5.125ZM15.8577 7.65625L16.0938 10.5949L18.7617 9.87877L19.3047 11.6074L16.6604 12.694L18.2895 15.2128L17.0618 16.25L15.1023 13.9287L13.0482 16.25L11.7734 15.2622L13.3788 12.694L10.7109 11.6074L11.1831 9.82938L14.0162 10.5949L14.2523 7.65625H15.8577Z" fill="currentColor"/>
</svg>
