<svg width="28" height="28" viewBox="0 0 28 28" fill="none" xmlns="http://www.w3.org/2000/svg">
<path fill-rule="evenodd" clip-rule="evenodd" d="M14 0C6.2707 0 0 6.2707 0 14C0 21.7293 6.2707 28 14 28C21.7293 28 28 21.7293 28 14C28 6.2707 21.7293 0 14 0ZM7.1107 22.2372L11.9358 4.31721H14.6186L9.79349 22.2372H7.1107ZM22.5172 15.654L21.0521 16.8391L18.7209 14.1953L16.2921 16.8391L14.7684 15.7191L16.6958 12.7953L13.5181 11.5516L14.0847 9.52651L17.4381 10.3991L17.7181 7.07163H19.6195L19.8995 10.3991L23.0772 9.59163L23.7284 11.5516L20.5833 12.7953L22.5172 15.654Z" fill="#202020"/>
</svg>
