<svg width="24" height="24" viewBox="0 0 24 24" fill="none" xmlns="http://www.w3.org/2000/svg">
<path d="M1.29379 5.29202L5.29379 1.29202C5.48252 1.10999 5.73519 1.00937 5.99739 1.01183C6.25959 1.01429 6.51033 1.11964 6.69561 1.30518C6.88089 1.49072 6.98588 1.74161 6.98797 2.00381C6.99006 2.26601 6.88908 2.51855 6.70679 2.70702L4.41379 5.00002H8.99979C9.265 5.00002 9.51936 5.10538 9.70689 5.29291C9.89443 5.48045 9.99979 5.7348 9.99979 6.00002C9.99979 6.26524 9.89443 6.51959 9.70689 6.70713C9.51936 6.89466 9.265 7.00002 8.99979 7.00002H4.41379L6.70679 9.29302C6.8023 9.38527 6.87848 9.49561 6.93089 9.61761C6.9833 9.73962 7.01088 9.87084 7.01204 10.0036C7.01319 10.1364 6.98789 10.2681 6.93761 10.391C6.88733 10.5139 6.81307 10.6255 6.71918 10.7194C6.62529 10.8133 6.51364 10.8876 6.39074 10.9378C6.26784 10.9881 6.13616 11.0134 6.00339 11.0123C5.87061 11.0111 5.73939 10.9835 5.61738 10.9311C5.49538 10.8787 5.38503 10.8025 5.29279 10.707L1.29279 6.70702C1.19988 6.61408 1.1262 6.50374 1.07596 6.38231C1.02572 6.26087 0.999907 6.13073 1 5.99931C1.00009 5.8679 1.02609 5.73779 1.0765 5.61643C1.12691 5.49506 1.20074 5.38483 1.29379 5.29202ZM20.4438 8.60702C19.6879 8.19721 18.8395 7.98822 17.9798 8.00002H14.0328V4.11102C14.0416 3.38589 13.7949 2.68078 13.336 2.11928C12.8771 1.55778 12.2352 1.1757 11.5228 1.04002C10.8216 0.92647 10.1027 1.06084 9.48979 1.42002C9.26157 1.55528 9.09643 1.77566 9.0307 2.03268C8.96497 2.2897 9.00403 2.5623 9.13929 2.79052C9.27455 3.01874 9.49493 3.18388 9.75195 3.24961C10.009 3.31534 10.2816 3.27628 10.5098 3.14102C10.7181 3.01612 10.9648 2.97133 11.2038 3.01502C11.4477 3.07458 11.6634 3.21665 11.8145 3.41713C11.9656 3.61761 12.0427 3.86418 12.0328 4.11502V9.00002C12.0328 9.26524 12.1381 9.51959 12.3257 9.70713C12.5132 9.89466 12.7676 10 13.0328 10H17.9798C18.4963 9.98832 19.0072 10.1092 19.4638 10.351C19.9895 10.6378 20.4154 11.0779 20.6846 11.6128C20.9538 12.1477 21.0537 12.7519 20.9708 13.345L20.5488 16.287C20.337 17.7405 19.6619 19.0869 18.6238 20.126C18.3457 20.404 18.0155 20.6243 17.652 20.7743C17.2885 20.9243 16.899 21.001 16.5058 21H10.4378C10.0446 21.001 9.65506 20.9243 9.29159 20.7743C8.92812 20.6243 8.59786 20.404 8.31979 20.126L5.29379 17.11C5.1906 17.0067 5.11129 16.8821 5.06141 16.7449C5.01153 16.6077 4.9923 16.4612 5.00507 16.3158C5.01784 16.1703 5.0623 16.0295 5.13533 15.9031C5.20836 15.7766 5.30818 15.6677 5.42779 15.584C5.64342 15.4542 5.89706 15.4022 6.14638 15.4368C6.39571 15.4713 6.62564 15.5904 6.79779 15.774L8.31179 17.283C8.45175 17.4225 8.62992 17.5175 8.82379 17.5558C9.01767 17.5941 9.21856 17.5742 9.4011 17.4984C9.58363 17.4227 9.73963 17.2945 9.84939 17.1302C9.95915 16.9658 10.0177 16.7726 10.0178 16.575V10C10.0178 9.7348 9.91243 9.48045 9.72489 9.29291C9.53736 9.10538 9.283 9.00002 9.01779 9.00002C8.75257 9.00002 8.49822 9.10538 8.31068 9.29291C8.12314 9.48045 8.01779 9.7348 8.01779 10V14.182C7.50383 13.7361 6.85694 13.4725 6.17769 13.4321C5.49844 13.3918 4.8249 13.577 4.26179 13.959C3.90633 14.212 3.61035 14.5395 3.39446 14.9187C3.17858 15.2978 3.048 15.7195 3.01182 16.1543C2.97564 16.5891 3.03474 17.0266 3.18499 17.4362C3.33525 17.8458 3.57304 18.2177 3.88179 18.526L6.90879 21.542C7.37172 22.0059 7.92188 22.3735 8.52756 22.6238C9.13323 22.874 9.78245 23.0019 10.4378 23H16.5058C17.1612 23.0017 17.8106 22.8737 18.4164 22.6235C19.0222 22.3733 19.5725 22.0057 20.0358 21.542C21.3801 20.1963 22.2542 18.4524 22.5278 16.57L22.9498 13.628C23.0921 12.6356 22.9284 11.6233 22.4807 10.7263C22.033 9.82921 21.3224 9.08994 20.4438 8.60702Z" fill="currentColor"/>
</svg>
