<svg width="16" height="16" viewBox="0 0 16 16" fill="none" xmlns="http://www.w3.org/2000/svg">
<path fill-rule="evenodd" clip-rule="evenodd" d="M7.99984 0.666626C3.94975 0.666626 0.666504 3.94987 0.666504 7.99996C0.666504 12.05 3.94975 15.3333 7.99984 15.3333C12.0499 15.3333 15.3332 12.05 15.3332 7.99996C15.3332 3.94987 12.0499 0.666626 7.99984 0.666626ZM4.25469 3.31204C5.28114 2.49095 6.58315 1.99996 7.99984 1.99996C11.3135 1.99996 13.9998 4.68625 13.9998 7.99996C13.9998 9.41664 13.5088 10.7187 12.6878 11.7451L4.25469 3.31204ZM3.31189 4.25486C2.49081 5.2813 1.99984 6.58329 1.99984 7.99996C1.99984 11.3137 4.68613 14 7.99984 14C9.4165 14 10.7185 13.509 11.7449 12.6879L3.31189 4.25486Z" fill="#192129"/>
</svg>
