<svg width="24" height="24" viewBox="0 0 24 24" fill="none" xmlns="http://www.w3.org/2000/svg">
<path fill-rule="evenodd" clip-rule="evenodd" d="M24 4.36692C23.117 4.76923 22.1688 5.04077 21.1718 5.16154C22.1883 4.53692 22.9692 3.54769 23.3376 2.36923C22.3856 2.94692 21.3323 3.36846 20.2108 3.59385C19.3121 2.61308 18.0323 2 16.6152 2C13.8957 2 11.6924 4.26 11.6924 7.04846C11.6924 7.44385 11.7352 7.83 11.8192 8.19923C7.72693 7.98846 4.09902 5.97846 1.66992 2.92385C1.24681 3.67 1.00375 4.53692 1.00375 5.46231C1.00375 7.21461 1.87322 8.75923 3.19355 9.66538C2.3871 9.63846 1.62791 9.41231 0.963991 9.03385C0.963241 9.05462 0.963241 9.07692 0.963241 9.09692C0.963241 11.5438 2.66017 13.5846 4.91298 14.0485C4.50037 14.1631 4.06527 14.2254 3.6159 14.2254C3.29782 14.2254 2.99025 14.1938 2.69017 14.1354C3.31583 16.14 5.13503 17.6 7.28882 17.6415C5.60465 18.9954 3.48162 19.8038 1.17479 19.8038C0.777194 19.8038 0.384846 19.78 0 19.7331C2.17854 21.1638 4.76669 22 7.54764 22C16.6039 22 21.5574 14.3069 21.5574 7.63461C21.5574 7.41615 21.5514 7.19769 21.5424 6.98077C22.5049 6.26923 23.3391 5.38077 24 4.36692Z" fill="currentColor"/>
</svg>
