<svg width="16" height="16" viewBox="0 0 16 16" fill="none" xmlns="http://www.w3.org/2000/svg">
<path d="M0.666992 7.99992C0.666992 9.45032 1.09708 10.8681 1.90288 12.0741C2.70868 13.2801 3.85399 14.22 5.19398 14.775C6.53397 15.3301 8.00846 15.4753 9.43099 15.1923C10.8535 14.9094 12.1602 14.211 13.1858 13.1854C14.2114 12.1598 14.9098 10.8531 15.1928 9.43059C15.4757 8.00806 15.3305 6.53357 14.7754 5.19358C14.2204 3.85359 13.2805 2.70828 12.0745 1.90248C10.8685 1.09668 9.45072 0.666592 8.00033 0.666592C6.61178 0.661956 5.25097 1.05525 4.07899 1.79993L3.13833 0.859259C3.04493 0.76589 2.92591 0.702363 2.79636 0.676736C2.66681 0.651108 2.53256 0.664535 2.41065 0.715313C2.28874 0.766091 2.18466 0.851931 2.11161 0.961948C2.03856 1.07196 1.99982 1.2012 2.00033 1.33326V3.99993C2.00033 4.17674 2.07056 4.34631 2.19559 4.47133C2.32061 4.59635 2.49018 4.66659 2.66699 4.66659H5.33366C5.46549 4.66656 5.59436 4.62745 5.70396 4.55419C5.81357 4.48094 5.899 4.37683 5.94944 4.25503C5.99989 4.13323 6.01309 3.99921 5.98738 3.8699C5.96167 3.7406 5.8982 3.62183 5.80499 3.52859L5.05366 2.77726C5.95145 2.26602 6.96718 1.99807 8.00033 1.99993C9.18701 1.99993 10.3471 2.35182 11.3337 3.01111C12.3204 3.6704 13.0895 4.60747 13.5436 5.70382C13.9977 6.80018 14.1165 8.00658 13.885 9.17047C13.6535 10.3344 13.0821 11.4034 12.243 12.2426C11.4039 13.0817 10.3348 13.6531 9.17087 13.8846C8.00698 14.1161 6.80058 13.9973 5.70423 13.5432C4.60787 13.0891 3.6708 12.32 3.01151 11.3333C2.35222 10.3467 2.00033 9.18661 2.00033 7.99992C2.00033 7.82311 1.93009 7.65354 1.80506 7.52852C1.68004 7.4035 1.51047 7.33326 1.33366 7.33326C1.15685 7.33326 0.987278 7.4035 0.862254 7.52852C0.73723 7.65354 0.666992 7.82311 0.666992 7.99992Z" fill="white"/>
</svg>
