<svg width="24" height="24" viewBox="0 0 24 24" fill="none" xmlns="http://www.w3.org/2000/svg">
<path d="M6.07584 6.14852L8.96863 3.14583C9.62308 2.46552 10.4 1.92586 11.2551 1.55768C12.1102 1.1895 13.0267 1 13.9522 1C14.8777 1 15.7942 1.1895 16.6493 1.55768C17.5043 1.92586 18.2813 2.46551 18.9357 3.14583C19.5902 3.82614 20.1093 4.63378 20.4635 5.52265C20.8177 6.41152 21 7.3642 21 8.32631C21 9.28841 20.8177 10.2411 20.4635 11.13C20.1093 12.0188 19.5902 12.8265 18.9357 13.5068L10.1135 22.6777C10.0152 22.7799 9.89846 22.8609 9.77002 22.9162C9.64157 22.9715 9.50391 23 9.36488 23C9.22585 23 9.08819 22.9715 8.95975 22.9162C8.8313 22.8609 8.7146 22.7799 8.61629 22.6777C8.51798 22.5755 8.44 22.4542 8.3868 22.3206C8.3336 22.1871 8.30621 22.044 8.30621 21.8995C8.30621 21.755 8.3336 21.6119 8.3868 21.4784C8.44 21.3448 8.51798 21.2235 8.61629 21.1213L17.4396 11.9526C18.3681 11.0118 18.9026 9.72865 18.9276 8.38106C18.9525 7.03347 18.4658 5.7299 17.5729 4.75263C16.6799 3.77536 15.4526 3.20305 14.1567 3.15964C12.8607 3.11623 11.6005 3.60521 10.6489 4.52069L10.4648 4.70327L6.61229 8.69917H11.4646C11.724 8.69924 11.9742 8.7983 12.1679 8.97754C12.3616 9.15678 12.4852 9.40372 12.5153 9.67147L12.5227 9.80016C12.5227 10.0696 12.4275 10.3296 12.2553 10.5309C12.0831 10.7322 11.8458 10.8608 11.5884 10.8924L11.4646 10.8989L3.9946 10.8979L3.89408 10.8869L3.77557 10.8605L3.63696 10.8088L3.5502 10.7648L3.44228 10.6944C3.39514 10.659 3.35091 10.6196 3.31002 10.5767L3.21267 10.4612L3.13438 10.3358L3.0857 10.2335L3.0455 10.118L3.02857 10.0542L3.01164 9.96514L3.00423 9.89695L3 9.80016V2.10313C3.00057 1.82288 3.10402 1.55343 3.28923 1.34979C3.47445 1.14615 3.72746 1.02369 3.9966 1.0074C4.26574 0.99112 4.5307 1.08225 4.7374 1.26217C4.94409 1.4421 5.07692 1.69726 5.10875 1.97554L5.11616 2.10313V7.14503L8.96863 3.14693L6.07584 6.14852Z" fill="currentColor"/>
</svg>
