<svg width="24" height="24" viewBox="0 0 24 24" fill="none" xmlns="http://www.w3.org/2000/svg">
<g clip-path="url(#clip0_20:296)">
<path fill-rule="evenodd" clip-rule="evenodd" d="M11.2983 11.2905C11.6888 10.8999 12.322 10.8999 12.7125 11.2905L16.7125 15.2905C17.103 15.681 17.103 16.3141 16.7125 16.7047C16.322 17.0952 15.6888 17.0952 15.2983 16.7047L12.0054 13.4118L8.71248 16.7047C8.32195 17.0952 7.68879 17.0952 7.29826 16.7047C6.90774 16.3141 6.90774 15.681 7.29826 15.2905L11.2983 11.2905Z" fill="currentColor"/>
<path fill-rule="evenodd" clip-rule="evenodd" d="M12.0054 10.9976C12.5577 10.9976 13.0054 11.4453 13.0054 11.9976V20.9976C13.0054 21.5498 12.5577 21.9976 12.0054 21.9976C11.4531 21.9976 11.0054 21.5498 11.0054 20.9976V11.9976C11.0054 11.4453 11.4531 10.9976 12.0054 10.9976Z" fill="currentColor"/>
<path fill-rule="evenodd" clip-rule="evenodd" d="M8.66863 2.0061C10.0281 1.95601 11.3813 2.21477 12.6264 2.76292C13.8714 3.31107 14.9761 4.13434 15.8572 5.17085C16.5686 6.00778 17.1194 6.96614 17.4844 7.99754H18.0053C19.3384 7.99842 20.6338 8.4432 21.686 9.26168C22.7382 10.0802 23.4878 11.2257 23.8166 12.5176C24.1454 13.8094 24.0347 15.174 23.5018 16.3959C22.969 17.6178 22.0444 18.6275 20.874 19.2655C20.3891 19.5299 19.7817 19.3511 19.5173 18.8662C19.253 18.3813 19.4318 17.7739 19.9167 17.5095C20.6969 17.0842 21.3133 16.411 21.6686 15.5964C22.0238 14.7818 22.0976 13.8721 21.8784 13.0109C21.6592 12.1497 21.1595 11.386 20.458 10.8403C19.7566 10.2946 18.8934 9.99813 18.0047 9.99754H16.7453C16.2895 9.99754 15.8913 9.68922 15.7772 9.24785C15.5123 8.22344 15.0187 7.27239 14.3334 6.46622C13.6481 5.66004 12.7889 5.01972 11.8205 4.59338C10.8521 4.16704 9.79965 3.96579 8.74227 4.00475C7.68489 4.0437 6.6501 4.32186 5.71569 4.81831C4.78129 5.31475 3.97159 6.01657 3.34746 6.87098C2.72333 7.7254 2.30102 8.71019 2.11227 9.75132C1.92353 10.7924 1.97326 11.8628 2.25773 12.882C2.5422 13.9011 3.054 14.8425 3.75467 15.6353C4.12038 16.0492 4.08137 16.6812 3.66752 17.0469C3.25368 17.4126 2.62172 17.3736 2.256 16.9597C1.35515 15.9403 0.697109 14.73 0.331363 13.4197C-0.0343839 12.1093 -0.0983238 10.7331 0.14435 9.39455C0.387024 8.05596 0.929997 6.7898 1.73245 5.69126C2.5349 4.59273 3.57595 3.69039 4.77732 3.05211C5.9787 2.41382 7.30914 2.05619 8.66863 2.0061Z" fill="currentColor"/>
<path fill-rule="evenodd" clip-rule="evenodd" d="M11.2983 11.2905C11.6888 10.8999 12.322 10.8999 12.7125 11.2905L16.7125 15.2905C17.103 15.681 17.103 16.3141 16.7125 16.7047C16.322 17.0952 15.6888 17.0952 15.2983 16.7047L12.0054 13.4118L8.71248 16.7047C8.32195 17.0952 7.68879 17.0952 7.29826 16.7047C6.90774 16.3141 6.90774 15.681 7.29826 15.2905L11.2983 11.2905Z" fill="currentColor"/>
</g>
<defs>
<clipPath id="clip0_20:296">
<rect width="24" height="24" fill="white"/>
</clipPath>
</defs>
</svg>
