<svg width="24" height="24" viewBox="0 0 24 24" fill="none" xmlns="http://www.w3.org/2000/svg">
<path fill-rule="evenodd" clip-rule="evenodd" d="M12 23C18.0751 23 23 18.0751 23 12C23 5.92493 18.0751 1 12 1C5.92493 1 1 5.92493 1 12C1 18.0751 5.92493 23 12 23ZM11 7C11 6.44775 11.4478 6 12 6C12.5522 6 13 6.44775 13 7V13C13 13.5522 12.5522 14 12 14C11.4478 14 11 13.5522 11 13V7ZM13 17C13 17.5522 12.5522 18 12 18C11.4478 18 11 17.5522 11 17C11 16.4478 11.4478 16 12 16C12.5522 16 13 16.4478 13 17Z" fill="currentColor"/>
</svg>
