<?xml version="1.0" standalone="no"?>
<!DOCTYPE svg PUBLIC "-//W3C//DTD SVG 20010904//EN"
 "http://www.w3.org/TR/2001/REC-SVG-20010904/DTD/svg10.dtd">
<svg version="1.0" xmlns="http://www.w3.org/2000/svg"
 width="200.000000pt" height="200.000000pt" viewBox="0 0 200.000000 200.000000"
 preserveAspectRatio="xMidYMid meet">
<metadata>
Created by potrace 1.14, written by Peter Selinger 2001-2017
</metadata>
<g transform="translate(0.000000,200.000000) scale(0.100000,-0.100000)"
fill="#000000" stroke="none">
<path d="M837 1990 c-305 -52 -583 -254 -726 -530 -166 -320 -143 -722 58
-1019 278 -409 806 -555 1256 -347 497 230 713 828 481 1331 -134 290 -405
499 -729 560 -84 16 -259 18 -340 5z m98 -357 c-6 -27 -321 -1180 -331 -1215
-5 -16 -19 -18 -115 -18 -100 0 -110 2 -105 18 3 9 80 293 172 630 l167 612
110 0 109 0 -7 -27z m473 -249 c6 -75 13 -138 16 -141 3 -3 64 9 136 27 72 18
132 31 134 29 2 -2 15 -39 29 -82 l26 -78 -22 -8 c-12 -5 -71 -28 -132 -51
-60 -24 -112 -44 -114 -46 -1 -1 32 -53 74 -114 43 -62 78 -118 79 -124 0 -7
-25 -34 -56 -60 l-57 -46 -97 110 c-54 60 -101 110 -104 110 -3 0 -51 -49
-106 -109 l-99 -109 -26 15 c-14 9 -43 30 -64 47 l-38 32 81 124 81 125 -129
50 c-71 27 -131 53 -135 56 -3 4 5 43 17 88 17 61 26 80 38 76 164 -47 262
-67 270 -56 4 7 11 63 14 125 10 156 3 146 95 146 l78 0 11 -136z"/>
</g>
</svg>
