<svg width="96" height="109" viewBox="0 0 96 109" fill="none" xmlns="http://www.w3.org/2000/svg">
<g clip-path="url(#clip0_8873_16296)">
<path d="M12.0041 37.9078C13.9156 37.9078 15.6456 37.1409 16.924 35.9093L23.9373 39.4157C23.9021 39.7014 23.8503 39.9821 23.8503 40.277C23.8503 44.1961 27.0389 47.3847 30.958 47.3847C34.8771 47.3847 38.0657 44.1961 38.0657 40.277C38.0657 39.1831 37.7967 38.1589 37.3531 37.2322L46.8671 27.7182C47.7938 28.1618 48.818 28.4308 49.9119 28.4308C53.831 28.4308 57.0196 25.2422 57.0196 21.3231C57.0196 20.5852 56.8746 19.8874 56.6648 19.218L64.9313 13.0197C66.0591 13.773 67.4109 14.2154 68.8658 14.2154C72.7849 14.2154 75.9735 11.0268 75.9735 7.10771C75.9735 3.1886 72.7849 0 68.8658 0C64.9467 0 61.7581 3.1886 61.7581 7.10771C61.7581 7.84562 61.9031 8.54344 62.1128 9.21287L53.8464 15.4111C52.7186 14.6578 51.3668 14.2154 49.9119 14.2154C45.9928 14.2154 42.8042 17.404 42.8042 21.3231C42.8042 22.417 43.0732 23.4412 43.5168 24.368L34.0029 33.8819C33.0761 33.4383 32.0519 33.1693 30.958 33.1693C29.0466 33.1693 27.3165 33.9362 26.0382 35.1677L19.0248 31.6614C19.06 31.3757 19.1118 31.095 19.1118 30.8001C19.1118 26.881 15.9232 23.6924 12.0041 23.6924C8.08502 23.6924 4.89642 26.881 4.89642 30.8001C4.89642 34.7192 8.08502 37.9078 12.0041 37.9078Z" fill="#E3E9EE"/>
<path d="M78.5007 76.1314H75.9735V26.0616C75.9735 24.7524 74.9135 23.6924 73.6042 23.6924H64.1273C62.8181 23.6924 61.7581 24.7524 61.7581 26.0616V76.1314H57.0196V40.277C57.0196 38.9678 55.9596 37.9078 54.6504 37.9078H45.1734C43.8642 37.9078 42.8042 38.9678 42.8042 40.277V76.1314H38.0657V59.2309C38.0657 57.9216 37.0057 56.8617 35.6965 56.8617H26.2195C24.9103 56.8617 23.8503 57.9216 23.8503 59.2309V76.1314H19.1118V49.754C19.1118 48.4447 18.0518 47.3847 16.7426 47.3847H7.26566C5.95641 47.3847 4.89642 48.4447 4.89642 49.754V76.1314H2.36924C1.05999 76.1314 0 77.1914 0 78.5007C0 79.8099 1.05999 80.8699 2.36924 80.8699H78.5007C79.8099 80.8699 80.8699 79.8099 80.8699 78.5007C80.8699 77.1914 79.8099 76.1314 78.5007 76.1314Z" fill="#E3E9EE"/>
</g>
<path d="M90.0304 100.292L76.8975 87.3151L74.297 89.9468L87.4299 102.924L90.0304 100.292Z" fill="#A8A8A8"/>
<path d="M95.0472 103.78L84.8298 93.6839C84.7729 93.6277 84.6812 93.6282 84.625 93.6851L80.7578 97.5988C80.7016 97.6557 80.7021 97.7473 80.759 97.8036L90.9764 107.9C91.0333 107.956 91.125 107.955 91.1812 107.899L95.0485 103.985C95.1047 103.928 95.1041 103.836 95.0472 103.78Z" fill="#C4C4C4"/>
<path d="M65.2577 93.8422C74.2927 93.8422 81.6171 86.5178 81.6171 77.4828C81.6171 68.4477 74.2927 61.1234 65.2577 61.1234C56.2226 61.1234 48.8983 68.4477 48.8983 77.4828C48.8983 86.5178 56.2226 93.8422 65.2577 93.8422Z" fill="#C4C4C4"/>
<path d="M65.2573 91.1739C72.8181 91.1739 78.9473 85.0446 78.9473 77.4838C78.9473 69.923 72.8181 63.7938 65.2573 63.7938C57.6965 63.7938 51.5672 69.923 51.5672 77.4838C51.5672 85.0446 57.6965 91.1739 65.2573 91.1739Z" fill="#F8F8F8"/>
<defs>
<clipPath id="clip0_8873_16296">
<rect width="80.8699" height="80.8699" fill="white"/>
</clipPath>
</defs>
</svg>
