<svg xmlns="http://www.w3.org/2000/svg" width="63" height="30" viewBox="0 0 63 30">
    <g fill="#03ADEE" fill-rule="nonzero">
        <path d="M13.125 12.594c-.469-1.438-1.313-2.406-2.5-2.406a1.562 1.562 0 0 0-1.594 1.656c0 1.094.969 1.656 2.063 2.125 1.844.75 3.094 1.656 3.094 3.312 0 2.219-2.094 3.375-4.032 3.375-1.25 0-2.375-.468-2.812-.843-.438-.375-.375-2-.375-2.875l.625-.094c.437 1.593 1.531 3 3 3a1.687 1.687 0 0 0 1.719-1.688c0-1.093-.688-1.656-1.907-2.218-1.219-.563-3.062-1.5-3.062-3.376 0-1.874 1.468-3.156 3.718-3.156a5.094 5.094 0 0 1 2.157.438c.24.85.417 1.717.531 2.594l-.625.156zM24.594 18.281c-1.532 1.938-3.219 2.375-3.969 2.375-3 0-4.75-2.437-4.75-5.187a6.313 6.313 0 0 1 1.625-4.281c1-1.126 2.313-1.782 3.563-1.782 2.03 0 3.656 1.813 3.656 3.719 0 .5-.125.688-.563.781-.437.094-3.437.313-6.343.406.03 3.313 1.906 4.688 3.625 4.688a4.062 4.062 0 0 0 2.78-1.219l.376.5zm-6.657-4.968l4.125-.063c.438 0 .563-.156.563-.5.031-1.25-.781-2.438-2.125-2.438-1.344 0-2.219 1.032-2.563 3zM39.438 20.375v-.656c1.437-.125 1.687-.219 1.687-1.969v-4.063c0-1.75-.594-2.843-2.125-2.843-.875 0-1.813.5-2.75 1.281.071.339.103.685.094 1.031v4.75c0 1.532.218 1.688 1.562 1.813v.656h-5.218v-.656c1.5-.125 1.718-.25 1.718-1.875v-4.188c0-1.812-.625-2.812-2.125-2.812-.968 0-1.906.656-2.656 1.281v5.719c0 1.593.188 1.75 1.406 1.875v.656h-5.156v-.656c1.594-.125 1.813-.282 1.813-1.875v-5.032c0-1.562-.063-1.687-1.47-1.906v-.562a13.844 13.844 0 0 0 3.376-1v1.969c.531-.344 1.062-.782 1.781-1.25a3.812 3.812 0 0 1 2-.657c1.188 0 2.219.75 2.719 2a16.219 16.219 0 0 1 2.031-1.344 3.281 3.281 0 0 1 1.813-.656c1.906 0 3.093 1.344 3.093 3.75v4.688c0 1.656.188 1.75 1.594 1.875v.656h-5.188zM53.469 20.656a2 2 0 0 1-1.157-.468 2.313 2.313 0 0 1-.562-1.094c-1 .656-2.156 1.562-2.875 1.562a2.938 2.938 0 0 1-2.938-2.968c0-1.188.626-1.97 1.97-2.407 1.343-.437 3.25-1.156 3.78-1.594v-.437c0-1.75-.843-2.75-2.062-2.75a1.437 1.437 0 0 0-1.094.469c-.312.312-.531.875-.718 1.625a.688.688 0 0 1-.72.562 1.188 1.188 0 0 1-1.062-1.062c0-.375.313-.625.782-.969.468-.344 2.28-1.438 3.656-1.719a3.187 3.187 0 0 1 2 .656c.843.72 1.093 1.72 1.093 3v4.532c0 1.093.438 1.437.844 1.437.31.004.614-.083.875-.25l.25.625-2.062 1.25zM51.687 14.5c-.5.281-1.687.781-2.187 1.031-.5.25-1.5.906-1.5 1.781a1.781 1.781 0 0 0 1.75 1.875 3.563 3.563 0 0 0 1.938-.875V14.5z"/>
        <path d="M61.125 1.25c.069 0 .125.056.125.125v27.25a.125.125 0 0 1-.125.125H1.375a.125.125 0 0 1-.125-.125V1.375c0-.069.056-.125.125-.125h59.75zm0-1.25H1.375C.615 0 0 .616 0 1.375v27.25C0 29.385.616 30 1.375 30h59.75c.76 0 1.375-.616 1.375-1.375V1.375C62.5.615 61.884 0 61.125 0z"/>
    </g>
</svg>
