<svg width="80" height="76" viewBox="0 0 80 76" fill="none" xmlns="http://www.w3.org/2000/svg">
<path fill-rule="evenodd" clip-rule="evenodd" d="M38.9349 0C26.2904 0 16.0321 10.305 16.0321 23.0071C16.0321 35.7091 26.2904 46.0142 38.9349 46.0142C51.5794 46.0142 61.8377 35.7091 61.8377 23.0071C61.8377 10.305 51.5794 0 38.9349 0ZM27.6646 36.5438L35.5581 7.09474H39.9469L32.0534 36.5438H27.6646ZM52.8683 25.7251L50.4715 27.6727L46.6579 23.3281L42.6846 27.6727L40.1919 25.8322L43.345 21.0274L38.1466 18.9835L39.0734 15.6555L44.5594 17.0895L45.0175 11.6213H48.128L48.586 17.0895L53.7844 15.7625L54.8497 18.9835L49.7045 21.0274L52.8683 25.7251Z" fill="#202020"/>
<path d="M11.8446 61.5038C11.4979 60.2462 10.4057 59.1129 8.33321 59.1129C6.45947 59.1129 5.0325 60.0093 5.04445 61.3045C5.0325 62.4123 5.80202 63.0853 7.73702 63.52L10.9884 64.2171C14.5865 65.0011 16.3362 66.6695 16.3497 69.3962C16.3377 73.0193 12.9742 75.4957 8.20919 75.4957C3.53081 75.4957 0.590217 73.4166 0.0313793 69.9059C0.0313793 69.9059 0 69.6435 0 69.4786L4.41091 69.4817C4.79492 71.1995 6.13523 72.0959 8.19574 72.0959C10.3295 72.0959 11.7445 71.1126 11.7445 69.8054C11.7445 68.7216 10.9257 68.0126 9.17595 67.6273L5.92455 66.9423C2.26373 66.1838 0.551361 64.3415 0.564808 61.5533C0.551361 58.0171 3.67875 55.7521 8.27045 55.7521C12.7381 55.7521 15.3186 57.8192 15.9387 61.0556C15.9387 61.0556 15.9881 61.2655 15.9881 61.5053L11.8446 61.5038Z" fill="#202020"/>
<path fill-rule="evenodd" clip-rule="evenodd" d="M25.932 55.7521C20.4721 55.7521 16.9099 59.7725 16.9099 65.6741C16.9099 71.6747 20.4213 75.4957 26.168 75.4987C30.6118 75.4987 33.663 73.3191 34.4579 69.9958C34.4579 69.9958 34.5177 69.6915 34.5177 69.5266L30.2637 69.5221C29.6555 71.1395 28.1673 71.9865 26.2308 71.9865C23.3261 71.9865 21.403 70.0692 21.3657 66.7954H34.6432V65.4133C34.6432 58.7021 30.6223 55.7521 25.932 55.7521ZM25.9932 59.2628C28.5752 59.2628 30.3115 61.1546 30.3369 63.7569H21.3776C21.5136 61.3164 23.3126 59.2628 25.9932 59.2628Z" fill="#202020"/>
<path d="M35.6459 56.2348H39.9387V58.945H40.1629C40.9578 56.7669 42.8674 55.9859 45.424 55.9859C47.9925 55.9859 49.8424 56.7789 50.5745 58.945H50.7733C51.6175 56.8164 53.7273 55.9859 56.4946 55.9859C59.994 55.9859 62.4505 58.251 62.4505 62.5217V75.3563H57.9455V63.2187C57.9455 60.8533 56.5065 59.783 54.6941 59.783C52.523 59.783 51.2439 61.2775 51.2439 63.4301V75.3563H46.839V63.0313C46.839 61.0646 45.536 59.7815 43.6369 59.7815C41.7004 59.7815 40.1375 61.3749 40.1375 63.7284V75.3563H35.6459V56.2348Z" fill="#202020"/>
<path fill-rule="evenodd" clip-rule="evenodd" d="M70.7927 64.4119C67.0945 64.8092 63.5577 65.917 63.5577 70.2251C63.5577 73.9847 66.2996 75.9769 69.9365 75.9769C72.9264 75.9769 74.7135 74.5693 75.5323 72.9639H75.6817V75.5902H80V62.793C80 57.7383 75.8924 56.2198 72.257 56.2198C68.2495 56.2198 65.1715 58.0126 64.1793 61.4978C64.1793 61.4978 64.0732 61.8801 64.0732 62.0899L68.3736 62.0959C68.8203 60.7888 70.0859 59.669 72.2824 59.669C74.3668 59.669 75.5084 60.7393 75.5084 62.6191V62.6941C75.5084 63.9124 74.3119 64.039 71.3704 64.3505C71.1848 64.3701 70.9923 64.3905 70.7927 64.4119ZM75.5204 66.4776V68.7306C75.5204 70.8592 73.808 72.6641 71.1035 72.6656C69.2297 72.6656 67.8894 71.8066 67.8894 70.1502C67.8894 68.4203 69.3911 67.6978 71.4008 67.4115C71.4654 67.4026 71.5335 67.3933 71.6046 67.3837C72.8327 67.2164 74.9695 66.9254 75.5204 66.4776Z" fill="#202020"/>
</svg>
