<svg width="48" height="48" viewBox="0 0 48 48" fill="none" xmlns="http://www.w3.org/2000/svg">
<path fill-rule="evenodd" clip-rule="evenodd" d="M24 0C10.7498 0 0 10.7498 0 24C0 37.2502 10.7498 48 24 48C37.2502 48 48 37.2502 48 24C48 10.7498 37.2502 0 24 0ZM12.1898 38.1209L20.4614 7.40093H25.0605L16.7888 38.1209H12.1898ZM38.6009 26.8353L36.0893 28.867L32.093 24.3349L27.9293 28.867L25.3172 26.947L28.6214 21.9349L23.174 19.8028L24.1451 16.3312L29.894 17.827L30.374 12.1228H33.6335L34.1135 17.827L39.5609 16.4428L40.6772 19.8028L35.2856 21.9349L38.6009 26.8353Z" fill="#202020"/>
</svg>
