<svg width="80" height="48" viewBox="0 0 80 48" fill="none" xmlns="http://www.w3.org/2000/svg">
<path fill-rule="evenodd" clip-rule="evenodd" d="M74.2787 48H5.07087C2.2851 48 0 45.7277 0 42.942V5.07087C0 2.2851 2.2851 0 5.07087 0H74.2787C77.0644 0 79.3367 2.2851 79.3367 5.07087V42.942C79.3367 45.7277 77.0644 48 74.2787 48ZM23.2366 41.6711L32.7493 6.34184H38.0384L28.5257 41.6711H23.2366ZM48.4621 18.3194L47.9101 11.7594V11.7722H44.1487L43.5967 18.3322L36.9853 16.612L35.8684 20.6045L42.1332 23.0565L38.3332 28.8206L41.3372 31.0287L46.1257 25.8166L50.7216 31.0287L53.61 28.6922L49.8101 23.0437L56.0107 20.5917L54.7269 16.7275L48.4621 18.3194Z" fill="white"/>
</svg>
