<svg width="144" height="48" viewBox="0 0 144 48" fill="none" xmlns="http://www.w3.org/2000/svg">
<path fill-rule="evenodd" clip-rule="evenodd" d="M23.9832 0C10.7422 0 0 10.7498 0 24C0 37.2502 10.7422 48 23.9832 48C37.2242 48 47.9664 37.2502 47.9664 24C47.9664 10.7498 37.2242 0 23.9832 0ZM12.1812 38.1209L20.4471 7.40093H25.0429L16.7771 38.1209H12.1812ZM38.5739 26.8353L36.064 28.867L32.0706 24.3349L27.9097 28.867L25.2995 26.947L28.6014 21.9349L23.1577 19.8028L24.1282 16.3312L29.873 17.827L30.3527 12.1228H33.6099L34.0896 17.827L39.5332 16.4428L40.6487 19.8028L35.2609 21.9349L38.5739 26.8353Z" fill="white"/>
<path d="M71.9711 19.7302C71.6081 18.4183 70.4643 17.2361 68.2941 17.2361C66.332 17.2361 64.8377 18.1712 64.8502 19.5222C64.8377 20.6778 65.6435 21.3799 67.6698 21.8334L71.0746 22.5606C74.8424 23.3784 76.6746 25.1188 76.6887 27.9632C76.6762 31.7427 73.154 34.326 68.1642 34.326C63.2652 34.326 60.1858 32.1571 59.6006 28.4949C59.6006 28.4949 59.5678 28.2212 59.5678 28.0492L64.1868 28.0523C64.5889 29.8443 65.9924 30.7794 68.1501 30.7794C70.3845 30.7794 71.8663 29.7536 71.8663 28.3901C71.8663 27.2595 71.0088 26.5199 69.1766 26.118L65.7718 25.4034C61.9383 24.6121 60.1452 22.6903 60.1592 19.7818C60.1452 16.093 63.4201 13.7302 68.2284 13.7302C72.9068 13.7302 75.6091 15.8866 76.2584 19.2627C76.2584 19.2627 76.31 19.4816 76.31 19.7318L71.9711 19.7302Z" fill="white"/>
<path fill-rule="evenodd" clip-rule="evenodd" d="M86.7232 13.7302C81.0057 13.7302 77.2755 17.9241 77.2755 24.0805C77.2755 30.34 80.9526 34.326 86.9704 34.3291C91.6238 34.3291 94.8189 32.0554 95.6513 28.5887C95.6513 28.5887 95.7139 28.2712 95.7139 28.0992L91.2592 28.0945C90.6224 29.7818 89.0639 30.6653 87.0361 30.6653C83.9943 30.6653 81.9806 28.6653 81.9414 25.2501H95.8454V23.8084C95.8454 16.8076 91.6348 13.7302 86.7232 13.7302ZM86.7873 17.3925C89.4911 17.3925 91.3093 19.3659 91.3359 22.0805H81.954C82.0963 19.5348 83.9802 17.3925 86.7873 17.3925Z" fill="white"/>
<path d="M96.8949 14.2338H101.39V17.061H101.625C102.457 14.7889 104.457 13.9742 107.134 13.9742C109.824 13.9742 111.761 14.8014 112.528 17.061H112.736C113.62 14.8405 115.829 13.9742 118.727 13.9742C122.392 13.9742 124.964 16.337 124.964 20.792V34.1806H120.246V21.5191C120.246 19.0516 118.74 17.9351 116.842 17.9351C114.568 17.9351 113.229 19.4941 113.229 21.7396V34.1806H108.616V21.3237C108.616 19.2721 107.252 17.9335 105.263 17.9335C103.235 17.9335 101.598 19.5958 101.598 22.0508V34.1806H96.8949V14.2338Z" fill="white"/>
<path fill-rule="evenodd" clip-rule="evenodd" d="M133.7 22.7638C129.827 23.1782 126.123 24.3338 126.123 28.8279C126.123 32.7497 128.995 34.8279 132.803 34.8279C135.934 34.8279 137.805 33.3596 138.663 31.6848H138.819V34.4245H143.341V21.075C143.341 15.8022 139.04 14.2181 135.233 14.2181C131.037 14.2181 127.813 16.0883 126.774 19.724C126.774 19.724 126.663 20.1227 126.663 20.3416L131.166 20.3479C131.634 18.9843 132.96 17.8162 135.26 17.8162C137.442 17.8162 138.638 18.9327 138.638 20.8936V20.9718C138.638 22.2427 137.385 22.3748 134.305 22.6997C134.11 22.7202 133.909 22.7415 133.7 22.7638ZM138.65 24.9186V27.2689C138.65 29.4894 136.857 31.3721 134.025 31.3737C132.063 31.3737 130.659 30.4777 130.659 28.7497C130.659 26.9452 132.232 26.1915 134.336 25.8928C134.404 25.8836 134.475 25.8739 134.55 25.8638C135.836 25.6893 138.074 25.3857 138.65 24.9186Z" fill="white"/>
</svg>
