<svg width="22" height="22" viewBox="0 0 22 22" fill="none" xmlns="http://www.w3.org/2000/svg">
<path fill-rule="evenodd" clip-rule="evenodd" d="M11 0C4.92487 0 0 4.92487 0 11C0 17.0751 4.92487 22 11 22C17.0751 22 22 17.0751 22 11C22 4.92487 17.0751 0 11 0ZM16.6727 8.73995C17.0813 8.36844 17.1114 7.73599 16.7399 7.32733C16.3684 6.91868 15.736 6.88856 15.3273 7.26007L9.03287 13.6187L6.70711 11.2929C6.31658 10.9024 5.68342 10.9024 5.29289 11.2929C4.90237 11.6834 4.90237 12.3166 5.29289 12.7071L8.29289 15.7071C8.67034 16.0846 9.2777 16.099 9.67267 15.7399L16.6727 8.73995Z" fill="#0A8150"/>
</svg>
