<svg width="23" height="20" viewBox="0 0 23 20" fill="none" xmlns="http://www.w3.org/2000/svg">
<path fill-rule="evenodd" clip-rule="evenodd" d="M13.8977 2.57969L21.5724 15.2997C21.851 15.756 22.0025 16.2784 22.0113 16.8129C22.0201 17.3474 21.8859 17.8745 21.6224 18.3397C21.3215 18.8505 20.8911 19.273 20.3745 19.5644C19.858 19.8559 19.2737 20.006 18.6806 19.9997H3.33117C2.73413 20.002 2.14718 19.8458 1.63032 19.5471C1.11346 19.2484 0.685218 18.818 0.389356 18.2997C0.133454 17.8393 0.0033533 17.3196 0.0121357 16.793C0.0209181 16.2664 0.168274 15.7513 0.439387 15.2997L8.11411 2.57969C8.42445 2.09451 8.85202 1.69522 9.3574 1.41863C9.86278 1.14205 10.4297 0.99707 11.0059 0.99707C11.5821 0.99707 12.149 1.14205 12.6544 1.41863C13.1598 1.69522 13.5873 2.09451 13.8977 2.57969ZM11.006 6.99976C10.7406 6.99976 10.4861 7.10511 10.2984 7.29265C10.1108 7.48019 10.0054 7.73454 10.0054 7.99976V11.9998C10.0054 12.265 10.1108 12.5193 10.2984 12.7069C10.4861 12.8944 10.7406 12.9998 11.006 12.9998C11.2714 12.9998 11.5259 12.8944 11.7135 12.7069C11.9012 12.5193 12.0066 12.265 12.0066 11.9998V7.99976C12.0066 7.73454 11.9012 7.48019 11.7135 7.29265C11.5259 7.10511 11.2714 6.99976 11.006 6.99976ZM11.006 15.9998C10.4534 15.9998 10.0054 15.552 10.0054 14.9998C10.0054 14.4475 10.4534 13.9998 11.006 13.9998C11.5586 13.9998 12.0066 14.4475 12.0066 14.9998C12.0066 15.552 11.5586 15.9998 11.006 15.9998Z" fill="#DE3617"/>
</svg>
