<svg width="24" height="24" viewBox="0 0 24 24" fill="none" xmlns="http://www.w3.org/2000/svg">
<path d="M5 4C4.44772 4 4 4.44772 4 5V19C4 19.5523 4.44772 20 5 20H19C19.5523 20 20 19.5523 20 19V13C20 12.4477 20.4477 12 21 12C21.5523 12 22 12.4477 22 13V19C22 20.6569 20.6569 22 19 22H5C3.34315 22 2 20.6569 2 19V5C2 3.34315 3.34315 2 5 2H11C11.5523 2 12 2.44772 12 3C12 3.55228 11.5523 4 11 4H5Z" fill="#202020"/>
<path fill-rule="evenodd" clip-rule="evenodd" d="M11.4145 13.9998L13.9995 13.9995C14.5518 13.9995 14.9995 14.4471 14.9996 14.9994C14.9997 15.5517 14.552 15.9995 13.9997 15.9995L9.00011 16.0001C8.73488 16.0001 8.48049 15.8948 8.29293 15.7072C8.10537 15.5197 8 15.2653 8 15.0001V10.0001C8 9.44781 8.44771 9.00009 9 9.00009C9.55228 9.00009 10 9.44781 10 10.0001L10 12.5859L14.1596 8.42626C14.0565 8.15577 14 7.86226 14 7.55556V4.44444C14 3.09442 15.0944 2 16.4444 2H19.5556C20.9056 2 22 3.09441 22 4.44444V7.55556C22 8.90558 20.9056 10 19.5556 10H16.4444C16.1378 10 15.8443 9.94353 15.5739 9.84043L11.4145 13.9998ZM19.5556 4H16.4444C16.199 4 16 4.19898 16 4.44444V7.55556C16 7.80101 16.199 8 16.4444 8H19.5556C19.801 8 20 7.80101 20 7.55556V4.44444C20 4.19898 19.801 4 19.5556 4Z" fill="#202020"/>
</svg>
