<svg width="138" height="142" viewBox="0 0 138 142" fill="none" xmlns="http://www.w3.org/2000/svg">
<path d="M14.7262 61.9397C14.7262 61.9397 38.8196 60.9748 44.0262 21.3705C48.6498 -13.8019 89.2775 2.20729 101.021 16.2279C116.235 34.3903 108.125 65.6336 127.805 69.5805C147.485 73.5275 134.634 117.41 104.76 113.21C67.5989 107.985 76.5899 129.7 65.4342 138.891C57.428 145.488 24.5997 139.138 23.5056 115.192C22.5849 95.0419 14.0851 95.1057 8.06048 92.8209C-0.628472 89.5256 -6.10347 65.6607 14.7262 61.9397Z" fill="#F0F2F4"/>
<path d="M96.6305 105.923L72.9595 82.5327L68.2723 87.2762L91.9433 110.666L96.6305 105.923Z" fill="#56626E"/>
<path d="M105.673 112.208L87.2565 94.0101C87.1539 93.9088 86.9887 93.9098 86.8874 94.0123L79.917 101.066C79.8157 101.169 79.8167 101.334 79.9192 101.436L98.3353 119.633C98.4378 119.734 98.6031 119.733 98.7044 119.631L105.675 112.577C105.776 112.474 105.775 112.309 105.673 112.208Z" fill="#909AA4"/>
<path d="M51.9796 94.2961C68.2646 94.2961 81.4661 81.0946 81.4661 64.8097C81.4661 48.5247 68.2646 35.3232 51.9796 35.3232C35.6947 35.3232 22.4932 48.5247 22.4932 64.8097C22.4932 81.0946 35.6947 94.2961 51.9796 94.2961Z" fill="#909AA4"/>
<path d="M51.9794 89.485C65.6071 89.485 76.6546 78.4375 76.6546 64.8098C76.6546 51.1821 65.6071 40.1346 51.9794 40.1346C38.3517 40.1346 27.3042 51.1821 27.3042 64.8098C27.3042 78.4375 38.3517 89.485 51.9794 89.485Z" fill="#F8F8F8"/>
<path d="M101.83 38.1537C94.9137 35.9118 87.439 39.7035 85.188 46.6485C82.9462 53.565 86.7378 61.0396 93.6829 63.2905C100.628 65.5415 108.083 61.7126 110.325 54.7958C112.568 47.8789 108.747 40.3955 101.83 38.1537ZM99.7432 44.5926C100.517 44.8435 101.2 45.3187 101.703 45.958C102.207 46.5972 102.51 47.3716 102.572 48.183C102.635 48.9944 102.456 49.8062 102.057 50.5155C101.658 51.2248 101.057 51.7995 100.331 52.1669C99.6047 52.5343 98.7858 52.6777 97.978 52.579C97.1701 52.4803 96.4098 52.1439 95.7935 51.6124C95.1771 51.081 94.7325 50.3785 94.5159 49.594C94.2994 48.8095 94.3207 47.9783 94.5772 47.206C95.2698 45.0691 97.606 43.9 99.7432 44.5926ZM94.5213 60.7037C92.2234 59.9627 90.2546 58.4459 88.9521 56.413C91.3895 55.028 93.938 54.6423 96.2437 55.3896C98.5494 56.1369 100.424 57.9252 101.549 60.4957C99.3012 61.3781 96.817 61.4516 94.5213 60.7037Z" fill="#BABCBE"/>
</svg>
