<svg width="138" height="142" viewBox="0 0 138 142" fill="none" xmlns="http://www.w3.org/2000/svg">
<path d="M14.7264 61.9397C14.7264 61.9397 38.8197 60.9748 44.0263 21.3705C48.6499 -13.8019 89.2776 2.20729 101.022 16.2279C116.235 34.3903 108.125 65.6336 127.805 69.5805C147.486 73.5275 134.634 117.41 104.761 113.21C67.5991 107.985 76.59 129.7 65.4343 138.891C57.4281 145.488 24.5998 139.138 23.5057 115.192C22.585 95.0419 14.0853 95.1057 8.0606 92.8209C-0.62835 89.5256 -6.10335 65.6607 14.7264 61.9397Z" fill="#192129"/>
<path d="M96.6302 105.923L72.9592 82.5327L68.272 87.2762L91.943 110.666L96.6302 105.923Z" fill="#909AA4"/>
<path d="M105.673 112.208L87.2565 94.0101C87.1539 93.9088 86.9887 93.9098 86.8874 94.0123L79.917 101.066C79.8157 101.169 79.8167 101.334 79.9192 101.436L98.3353 119.633C98.4378 119.734 98.6031 119.733 98.7044 119.631L105.675 112.577C105.776 112.474 105.775 112.309 105.673 112.208Z" fill="#B7C0C6"/>
<path d="M51.9795 94.2961C68.2644 94.2961 81.466 81.0946 81.466 64.8097C81.466 48.5247 68.2644 35.3232 51.9795 35.3232C35.6946 35.3232 22.493 48.5247 22.493 64.8097C22.493 81.0946 35.6946 94.2961 51.9795 94.2961Z" fill="#B7C0C6"/>
<path d="M51.9795 89.485C65.6073 89.485 76.6547 78.4375 76.6547 64.8098C76.6547 51.1821 65.6073 40.1346 51.9795 40.1346C38.3518 40.1346 27.3043 51.1821 27.3043 64.8098C27.3043 78.4375 38.3518 89.485 51.9795 89.485Z" fill="#F8F8F8"/>
<path d="M101.83 38.1537C94.9133 35.9118 87.4387 39.7035 85.1876 46.6485C82.9458 53.565 86.7375 61.0396 93.6825 63.2905C100.628 65.5415 108.083 61.7126 110.325 54.7958C112.567 47.8789 108.747 40.3955 101.83 38.1537ZM99.7428 44.5926C100.517 44.8435 101.199 45.3187 101.703 45.958C102.207 46.5972 102.509 47.3716 102.572 48.183C102.635 48.9944 102.456 49.8062 102.057 50.5155C101.658 51.2248 101.057 51.7995 100.331 52.1669C99.6044 52.5343 98.7854 52.6777 97.9776 52.579C97.1698 52.4803 96.4095 52.1439 95.7931 51.6124C95.1767 51.081 94.7321 50.3785 94.5156 49.594C94.299 48.8095 94.3204 47.9783 94.5769 47.206C95.2695 45.0691 97.6056 43.9 99.7428 44.5926ZM94.5209 60.7037C92.223 59.9627 90.2542 58.4459 88.9517 56.413C91.3891 55.028 93.9377 54.6423 96.2433 55.3896C98.549 56.1369 100.424 57.9252 101.548 60.4957C99.3009 61.3781 96.8166 61.4516 94.5209 60.7037Z" fill="#BABCBE"/>
</svg>
