<svg width="138" height="142" viewBox="0 0 138 142" fill="none" xmlns="http://www.w3.org/2000/svg">
<path d="M14.7262 61.9397C14.7262 61.9397 38.8196 60.9748 44.0262 21.3705C48.6498 -13.8019 89.2775 2.20729 101.021 16.2279C116.235 34.3903 108.125 65.6336 127.805 69.5805C147.485 73.5275 134.634 117.41 104.76 113.21C67.5989 107.985 76.5899 129.7 65.4342 138.891C57.428 145.488 24.5997 139.138 23.5056 115.192C22.5849 95.0419 14.0851 95.1057 8.06048 92.8209C-0.628472 89.5256 -6.10347 65.6607 14.7262 61.9397Z" fill="#56626E"/>
<path d="M96.63 105.923L72.959 82.5327L68.2718 87.2762L91.9428 110.666L96.63 105.923Z" fill="#BFCBD3"/>
<path d="M105.672 112.208L87.2562 94.0101C87.1537 93.9088 86.9884 93.9098 86.8871 94.0123L79.9167 101.066C79.8154 101.169 79.8164 101.334 79.9189 101.436L98.3351 119.633C98.4376 119.734 98.6028 119.733 98.7042 119.631L105.675 112.577C105.776 112.474 105.775 112.309 105.672 112.208Z" fill="#F0F2F4"/>
<path d="M51.9794 94.2962C68.2643 94.2962 81.4659 81.0946 81.4659 64.8097C81.4659 48.5248 68.2643 35.3232 51.9794 35.3232C35.6945 35.3232 22.4929 48.5248 22.4929 64.8097C22.4929 81.0946 35.6945 94.2962 51.9794 94.2962Z" fill="#BFCBD3"/>
<path d="M51.9794 89.485C65.6071 89.485 76.6546 78.4375 76.6546 64.8098C76.6546 51.1821 65.6071 40.1346 51.9794 40.1346C38.3517 40.1346 27.3042 51.1821 27.3042 64.8098C27.3042 78.4375 38.3517 89.485 51.9794 89.485Z" fill="#FAFAFC"/>
<path d="M101.83 38.1537C94.9132 35.9118 87.4386 39.7035 85.1875 46.6485C82.9457 53.565 86.7373 61.0396 93.6824 63.2905C100.627 65.5415 108.083 61.7126 110.325 54.7958C112.567 47.8789 108.747 40.3955 101.83 38.1537ZM99.7427 44.5926C100.517 44.8435 101.199 45.3188 101.703 45.958C102.207 46.5972 102.509 47.3716 102.572 48.183C102.635 48.9944 102.456 49.8062 102.056 50.5155C101.657 51.2248 101.057 51.7996 100.33 52.1669C99.6042 52.5343 98.7853 52.6777 97.9775 52.579C97.1696 52.4803 96.4093 52.1439 95.793 51.6124C95.1766 51.081 94.732 50.3785 94.5154 49.594C94.2989 48.8095 94.3202 47.9783 94.5767 47.206C95.2694 45.0691 97.6055 43.9 99.7427 44.5926ZM94.5208 60.7038C92.2229 59.9628 90.2541 58.4459 88.9516 56.413C91.389 55.0281 93.9375 54.6423 96.2432 55.3896C98.5489 56.137 100.424 57.9252 101.548 60.4957C99.3007 61.3781 96.8165 61.4516 94.5208 60.7038Z" fill="#BABCBE"/>
</svg>
