<svg width="138" height="142" viewBox="0 0 138 142" fill="none" xmlns="http://www.w3.org/2000/svg">
<path d="M14.7651 61.9397C14.7651 61.9397 38.8584 60.9748 44.065 21.3705C48.6886 -13.8019 89.3163 2.20729 101.06 16.2279C116.274 34.3903 108.164 65.6336 127.844 69.5805C147.524 73.5275 134.673 117.41 104.799 113.21C67.6377 107.985 76.6287 129.7 65.473 138.891C57.4668 145.488 24.6385 139.138 23.5444 115.192C22.6237 95.0419 14.124 95.1057 8.0993 92.8209C-0.589654 89.5256 -6.06465 65.6607 14.7651 61.9397Z" fill="#F8F8F8"/>
<path d="M96.6688 105.923L72.9978 82.5327L68.3106 87.2762L91.9816 110.666L96.6688 105.923Z" fill="#A8A8A8"/>
<path d="M105.711 112.208L87.295 94.0101C87.1925 93.9088 87.0272 93.9098 86.9259 94.0123L79.9556 101.066C79.8542 101.169 79.8552 101.334 79.9578 101.436L98.3739 119.633C98.4764 119.734 98.6417 119.733 98.743 119.631L105.713 112.577C105.815 112.474 105.814 112.309 105.711 112.208Z" fill="#C4C4C4"/>
<path d="M52.0182 94.2962C68.3031 94.2962 81.5047 81.0946 81.5047 64.8097C81.5047 48.5248 68.3031 35.3232 52.0182 35.3232C35.7333 35.3232 22.5317 48.5248 22.5317 64.8097C22.5317 81.0946 35.7333 94.2962 52.0182 94.2962Z" fill="#C4C4C4"/>
<path d="M52.0182 89.485C65.646 89.485 76.6934 78.4375 76.6934 64.8098C76.6934 51.1821 65.646 40.1346 52.0182 40.1346C38.3905 40.1346 27.343 51.1821 27.343 64.8098C27.343 78.4375 38.3905 89.485 52.0182 89.485Z" fill="#F8F8F8"/>
<path d="M101.868 38.1537C94.952 35.9118 87.4774 39.7035 85.2263 46.6485C82.9845 53.565 86.7762 61.0396 93.7212 63.2905C100.666 65.5415 108.121 61.7126 110.364 54.7958C112.606 47.8789 108.785 40.3955 101.868 38.1537ZM99.7815 44.5926C100.556 44.8435 101.238 45.3188 101.742 45.958C102.245 46.5972 102.548 47.3716 102.611 48.183C102.674 48.9944 102.494 49.8062 102.095 50.5155C101.696 51.2248 101.095 51.7996 100.369 52.1669C99.6431 52.5343 98.8241 52.6777 98.0163 52.579C97.2085 52.4803 96.4482 52.1439 95.8318 51.6124C95.2154 51.081 94.7708 50.3785 94.5543 49.594C94.3377 48.8095 94.3591 47.9783 94.6156 47.206C95.3082 45.0691 97.6443 43.9 99.7815 44.5926ZM94.5596 60.7038C92.2617 59.9628 90.2929 58.4459 88.9904 56.413C91.4278 55.0281 93.9764 54.6423 96.282 55.3896C98.5877 56.137 100.463 57.9252 101.587 60.4957C99.3396 61.3781 96.8553 61.4516 94.5596 60.7038Z" fill="#BABCBE"/>
</svg>
