<svg width="154" height="135" viewBox="0 0 154 135" fill="none" xmlns="http://www.w3.org/2000/svg">
<path d="M84.3951 7.96312C84.3951 7.96312 71.6725 36.5184 38.0272 29.9769C4.38194 23.4354 -15.8893 69.4576 15.9195 86.2383C47.7283 103.019 25.684 122.296 46.8982 132.143C71.0098 143.334 80.001 105.912 97.7642 109.388C136.968 117.059 161.219 103.903 150.496 86.1991C131.673 55.1222 118.006 56.2663 123.56 36.1976C129.114 16.1289 97.7479 -14.6798 84.3951 7.96312Z" fill="#192129"/>
<path d="M45.1392 109.43C28.0491 109.43 14.1947 95.6513 14.1947 78.6546C14.1947 61.658 28.0491 47.8795 45.1392 47.8795C62.2294 47.8795 76.0837 61.658 76.0837 78.6546C76.0837 95.6513 62.2294 109.43 45.1392 109.43Z" fill="#909AA4"/>
<path d="M33.1876 118.071L23.937 116.406L26.9374 99.9228L36.1879 101.588L33.1876 118.071Z" fill="#909AA4"/>
<path d="M51.6881 121.403L42.4376 119.737L45.438 103.254L54.6885 104.92L51.6881 121.403Z" fill="#909AA4"/>
<path d="M46.7778 124.871C43.4761 122.09 41.6496 118.838 42.6981 117.606C43.7467 116.375 47.2733 117.631 50.575 120.412C53.8767 123.193 55.7032 126.445 54.6546 127.677C53.606 128.908 50.0795 127.652 46.7778 124.871Z" fill="#909AA4"/>
<path d="M28.6618 121.61C25.3601 118.829 23.5336 115.576 24.5822 114.345C25.6308 113.114 29.1573 114.37 32.459 117.151C35.7607 119.931 37.5872 123.184 36.5387 124.415C35.4901 125.647 31.9635 124.391 28.6618 121.61Z" fill="#909AA4"/>
<path d="M47.3053 81.645C41.4643 81.645 36.7293 76.9359 36.7293 71.1269C36.7293 65.3179 41.4643 60.6088 47.3053 60.6088C53.1462 60.6088 57.8812 65.3179 57.8812 71.1269C57.8812 76.9359 53.1462 81.645 47.3053 81.645Z" fill="white"/>
<path d="M50.1375 67.1253C48.3208 66.425 47.2029 67.8093 47.8993 66.0026C48.5958 64.1958 50.6331 63.2989 52.4498 63.9992C54.2665 64.6995 55.1747 66.7318 54.4782 68.5386C53.7818 70.3453 51.9542 67.8255 50.1375 67.1253Z" fill="#909AA4"/>
<path opacity="0.7" d="M20.635 45.175C20.1697 33.7816 30.0432 24.1313 42.6882 23.6205C55.3331 23.1096 65.9611 31.9317 66.4265 43.3252C66.8918 54.7186 58.102 57.3073 45.457 57.8181C32.812 58.329 21.1004 56.5685 20.635 45.175Z" fill="#BFCBD3"/>
<path d="M65.4708 85.1805C63.445 83.4434 66.3234 76.7889 71.8999 70.3172C77.4764 63.8456 83.6392 60.0076 85.665 61.7447C87.6908 63.4819 84.8124 70.1364 79.2359 76.608C73.6594 83.0797 67.4966 86.9177 65.4708 85.1805Z" fill="#909AA4"/>
<path d="M9.20118 53.1231C11.7317 52.2759 15.9662 58.1612 18.6591 66.2684C21.3521 74.3756 21.4837 81.6347 18.9531 82.4819C16.4226 83.3292 12.1882 77.4439 9.49523 69.3367C6.8023 61.2294 6.67062 53.9704 9.20118 53.1231Z" fill="#909AA4"/>
<path d="M31.9962 90.9729C31.7142 91.8092 31.7408 92.6672 32.0746 93.498C32.4083 94.3287 33.0426 95.1159 33.9412 95.8146C34.8399 96.5132 35.9852 97.1096 37.3118 97.5697C38.6384 98.0298 40.1203 98.3445 41.6727 98.4959C43.2252 98.6473 44.8178 98.6324 46.3595 98.4521C47.9013 98.2718 49.362 97.9296 50.6582 97.445C51.9544 96.9605 53.0607 96.343 53.9139 95.628C54.767 94.913 55.3503 94.1145 55.6304 93.278C56.8118 89.7618 51.3293 91.6094 44.8029 90.9729C38.2764 90.3364 33.1776 87.4567 31.9962 90.9729Z" fill="white"/>
<path d="M114.485 78.4298C127.195 78.4298 137.498 68.183 137.498 55.5429C137.498 42.9028 127.195 32.656 114.485 32.656C101.776 32.656 91.4724 42.9028 91.4724 55.5429C91.4724 68.183 101.776 78.4298 114.485 78.4298Z" fill="#B7C0C6"/>
<path d="M123.373 84.8563L130.253 83.6177L128.021 71.3596L121.142 72.5981L123.373 84.8563Z" fill="#B7C0C6"/>
<path d="M109.615 87.3336L116.494 86.0951L114.263 73.8369L107.383 75.0755L109.615 87.3336Z" fill="#B7C0C6"/>
<path d="M113.267 89.913C115.722 87.8449 117.08 85.4261 116.301 84.5104C115.521 83.5946 112.898 84.5288 110.443 86.5968C107.987 88.6649 106.629 91.0838 107.409 91.9995C108.189 92.9152 110.811 91.9811 113.267 89.913Z" fill="#B7C0C6"/>
<path d="M126.739 87.4877C129.194 85.4196 130.553 83.0008 129.773 82.085C128.993 81.1693 126.371 82.1034 123.915 84.1715C121.46 86.2396 120.101 88.6585 120.881 89.5742C121.661 90.49 124.284 89.5558 126.739 87.4877Z" fill="#B7C0C6"/>
<path d="M112.874 57.7667C117.218 57.7667 120.74 54.2646 120.74 49.9446C120.74 45.6246 117.218 42.1225 112.874 42.1225C108.531 42.1225 105.009 45.6246 105.009 49.9446C105.009 54.2646 108.531 57.7667 112.874 57.7667Z" fill="white"/>
<path d="M110.98 45.21C112.399 44.9192 114.569 46.5643 114.279 45.1536C113.99 43.7429 112.606 42.8351 111.187 43.1259C109.769 43.4167 108.854 44.796 109.143 46.2067C109.432 47.6174 109.562 45.5008 110.98 45.21Z" fill="#909AA4"/>
<path opacity="0.7" d="M132.708 30.6448C133.054 22.1717 125.712 14.995 116.308 14.6151C106.904 14.2352 99.0003 20.796 98.6542 29.269C98.3082 37.7421 104.845 39.6673 114.249 40.0472C123.653 40.4271 132.362 39.1178 132.708 30.6448Z" fill="#BFCBD3"/>
<path d="M101.398 58.1059C102.51 56.4623 99.14 52.2537 93.8699 48.7056C88.5999 45.1576 83.426 43.6138 82.3138 45.2574C81.2015 46.901 84.572 51.1096 89.842 54.6577C95.112 58.2057 100.286 59.7496 101.398 58.1059Z" fill="#B7C0C6"/>
<path d="M148.247 43.1525C147.506 41.3114 142.132 41.753 136.244 44.1388C130.356 46.5246 126.183 49.9512 126.924 51.7923C127.665 53.6334 133.039 53.1918 138.927 50.806C144.815 48.4202 148.988 44.9937 148.247 43.1525Z" fill="#B7C0C6"/>
<path d="M127.619 61.0994C127.829 61.7213 126.867 62.9815 126.619 63.5993C126.371 64.2172 123.288 67.646 122.619 68.1656C121.951 68.6851 121.293 69.2674 120.306 69.6096C119.32 69.9517 118.218 70.1858 117.063 70.2984C115.909 70.411 114.724 70.3999 113.578 70.2658C112.431 70.1317 111.345 69.8772 110.381 69.5169C109.417 69.1565 108.594 68.6973 107.96 68.1656C107.325 67.6339 106.892 67.04 106.683 66.4179C105.805 63.803 112.766 67.0727 117.619 66.5994C122.473 66.126 126.741 58.4844 127.619 61.0994Z" fill="white"/>
</svg>
