<svg width="141" height="124" viewBox="0 0 141 124" fill="none" xmlns="http://www.w3.org/2000/svg">
<path d="M77.7738 7.33467C77.7738 7.33467 66.0552 33.6364 35.0652 27.6111C4.07518 21.5859 -14.5962 63.976 14.7022 79.4324C44.0006 94.8888 23.6961 112.645 43.2361 121.714C65.4448 132.022 73.7264 97.5536 90.0878 100.755C126.198 107.82 148.535 95.703 138.658 79.3963C121.32 50.772 108.732 51.8258 113.848 33.3409C118.963 14.8561 90.0728 -13.5213 77.7738 7.33467Z" fill="#F0F2F4"/>
<path d="M41.6158 100.794C25.8743 100.794 13.1134 88.1033 13.1134 72.448C13.1134 56.7927 25.8743 44.1016 41.6158 44.1016C57.3572 44.1016 70.1182 56.7927 70.1182 72.448C70.1182 88.1033 57.3572 100.794 41.6158 100.794Z" fill="#909AA4"/>
<path d="M30.6075 108.751L22.087 107.217L24.8506 92.0345L33.3711 93.5685L30.6075 108.751Z" fill="#909AA4"/>
<path d="M47.6479 111.819L39.1274 110.285L41.891 95.1029L50.4115 96.6369L47.6479 111.819Z" fill="#909AA4"/>
<path d="M43.1252 115.016C40.0841 112.455 38.4017 109.459 39.3675 108.325C40.3333 107.191 43.5816 108.348 46.6227 110.909C49.6638 113.47 51.3462 116.466 50.3804 117.6C49.4146 118.735 46.1663 117.578 43.1252 115.016Z" fill="#909AA4"/>
<path d="M26.4392 112.01C23.398 109.449 21.7157 106.453 22.6815 105.319C23.6473 104.185 26.8956 105.342 29.9367 107.903C32.9778 110.465 34.6602 113.46 33.6943 114.595C32.7285 115.729 29.4803 114.572 26.4392 112.01Z" fill="#909AA4"/>
<path d="M43.6112 75.2003C38.2312 75.2003 33.8699 70.8628 33.8699 65.5123C33.8699 60.1617 38.2312 55.8242 43.6112 55.8242C48.9912 55.8242 53.3525 60.1617 53.3525 65.5123C53.3525 70.8628 48.9912 75.2003 43.6112 75.2003Z" fill="white"/>
<path d="M46.2198 61.8267C44.5465 61.1817 43.5168 62.4568 44.1583 60.7926C44.7998 59.1285 46.6764 58.3023 48.3497 58.9473C50.023 59.5923 50.8595 61.4643 50.218 63.1285C49.5765 64.7926 47.8931 62.4717 46.2198 61.8267Z" fill="#56626E"/>
<path opacity="0.6" d="M19.0459 41.6093C18.6173 31.115 27.7116 22.2263 39.3586 21.7558C51.0056 21.2853 60.7949 29.4111 61.2235 39.9054C61.6521 50.3997 53.556 52.784 41.9089 53.2546C30.2619 53.7251 19.4745 52.1035 19.0459 41.6093Z" fill="#E3E9EE" fill-opacity="0.8"/>
<path d="M60.343 78.4567C58.4771 76.8566 61.1283 70.7273 66.2647 64.7664C71.4011 58.8055 77.0776 55.2704 78.9435 56.8704C80.8094 58.4705 78.1582 64.5998 73.0218 70.5607C67.8854 76.5216 62.2089 80.0567 60.343 78.4567Z" fill="#909AA4"/>
<path d="M8.51397 48.9319C10.8448 48.1514 14.7451 53.5723 17.2255 61.0397C19.7059 68.5071 19.8272 75.1933 17.4963 75.9737C15.1655 76.7541 11.2652 71.3332 8.78482 63.8658C6.30441 56.3984 6.18313 49.7123 8.51397 48.9319Z" fill="#909AA4"/>
<path d="M51.5836 86.3316C51.6352 85.5204 51.4069 84.7633 50.9119 84.1038C50.4169 83.4442 49.6649 82.8951 48.6989 82.4877C47.7328 82.0804 46.5717 81.8228 45.2817 81.7297C43.9918 81.6366 42.5983 81.7099 41.181 81.9453C39.7637 82.1807 38.3503 82.5736 37.0216 83.1015C35.6929 83.6295 34.4749 84.2822 33.4372 85.0223C32.3995 85.7625 31.5624 86.5755 30.9738 87.415C30.3852 88.2545 30.0566 89.1041 30.0069 89.9151C29.7939 93.325 34.2313 90.3742 40.1896 89.3847C46.1478 88.3951 51.3707 89.7416 51.5836 86.3316Z" fill="white"/>
<path d="M105.489 72.2355C117.196 72.2355 126.686 62.7974 126.686 51.1549C126.686 39.5124 117.196 30.0742 105.489 30.0742C93.7824 30.0742 84.2924 39.5124 84.2924 51.1549C84.2924 62.7974 93.7824 72.2355 105.489 72.2355Z" fill="#909AA4"/>
<path d="M113.676 78.1584L120.013 77.0176L117.957 65.7268L111.621 66.8676L113.676 78.1584Z" fill="#909AA4"/>
<path d="M101.003 80.4396L107.34 79.2988L105.284 68.0081L98.9479 69.1489L101.003 80.4396Z" fill="#909AA4"/>
<path d="M104.367 82.8163C106.628 80.9114 107.879 78.6835 107.161 77.84C106.443 76.9966 104.027 77.857 101.766 79.7619C99.5039 81.6667 98.2528 83.8947 98.9711 84.7382C99.6893 85.5816 102.105 84.7212 104.367 82.8163Z" fill="#909AA4"/>
<path d="M116.776 80.5819C119.038 78.6771 120.289 76.4491 119.571 75.6057C118.852 74.7622 116.437 75.6226 114.175 77.5275C111.913 79.4324 110.662 81.6603 111.38 82.5038C112.099 83.3473 114.514 82.4868 116.776 80.5819Z" fill="#909AA4"/>
<path d="M104.006 53.2065C108.007 53.2065 111.25 49.9808 111.25 46.0017C111.25 42.0226 108.007 38.7969 104.006 38.7969C100.005 38.7969 96.7611 42.0226 96.7611 46.0017C96.7611 49.9808 100.005 53.2065 104.006 53.2065Z" fill="white"/>
<path d="M102.261 41.6417C103.567 41.3738 105.566 42.8891 105.3 41.5897C105.033 40.2904 103.758 39.4542 102.452 39.722C101.145 39.9899 100.302 41.2604 100.568 42.5597C100.835 43.859 100.954 41.9095 102.261 41.6417Z" fill="#56626E"/>
<path opacity="0.6" d="M122.274 28.2244C122.593 20.42 115.83 13.8097 107.168 13.4598C98.5064 13.1099 91.2263 19.1529 90.9076 26.9573C90.5888 34.7616 96.6098 36.5349 105.271 36.8848C113.933 37.2347 121.955 36.0288 122.274 28.2244Z" fill="#E3E9EE" fill-opacity="0.8"/>
<path d="M93.435 53.5172C94.4595 52.0033 91.355 48.1268 86.5009 44.8588C81.6468 41.5908 76.8812 40.1688 75.8567 41.6827C74.8322 43.1966 77.9367 47.0731 82.7909 50.3411C87.645 53.6091 92.4105 55.0311 93.435 53.5172Z" fill="#909AA4"/>
<path d="M136.586 39.745C135.904 38.0492 130.954 38.4559 125.531 40.6534C120.107 42.8509 116.264 46.0071 116.947 47.7029C117.629 49.3987 122.579 48.992 128.002 46.7945C133.425 44.597 137.269 41.4408 136.586 39.745Z" fill="#909AA4"/>
<path d="M98.2605 64.3195C98.0674 63.7467 98.953 62.5859 99.1816 62.0168C99.4102 61.4478 102.25 58.2895 102.866 57.811C103.481 57.3324 104.088 56.7961 104.996 56.4809C105.905 56.1658 106.92 55.9502 107.983 55.8465C109.047 55.7428 110.138 55.753 111.194 55.8765C112.25 56 113.251 56.2344 114.138 56.5663C115.026 56.8983 115.784 57.3212 116.368 57.811C116.953 58.3007 117.352 58.8477 117.544 59.4207C118.354 61.8293 111.942 58.8176 107.471 59.2536C103.001 59.6896 99.0698 66.7281 98.2605 64.3195Z" fill="white"/>
</svg>
