<svg width="154" height="135" viewBox="0 0 154 135" fill="none" xmlns="http://www.w3.org/2000/svg">
<path d="M84.3951 7.96312C84.3951 7.96312 71.6725 36.5184 38.0272 29.9769C4.38194 23.4354 -15.8893 69.4576 15.9195 86.2383C47.7283 103.019 25.684 122.296 46.8982 132.143C71.0098 143.334 80.001 105.912 97.7642 109.388C136.968 117.059 161.219 103.903 150.496 86.1991C131.673 55.1222 118.006 56.2663 123.56 36.1976C129.114 16.1289 97.7479 -14.6798 84.3951 7.96312Z" fill="#56626E"/>
<path d="M45.139 109.429C28.0488 109.429 14.1945 95.6508 14.1945 78.6541C14.1945 61.6574 28.0488 47.8789 45.139 47.8789C62.2292 47.8789 76.0835 61.6574 76.0835 78.6541C76.0835 95.6508 62.2292 109.429 45.139 109.429Z" fill="#B7C0C6"/>
<path d="M33.1876 118.068L23.937 116.402L26.9374 99.9192L36.1879 101.585L33.1876 118.068Z" fill="#B7C0C6"/>
<path d="M51.688 121.4L42.4375 119.734L45.4378 103.251L54.6884 104.917L51.688 121.4Z" fill="#B7C0C6"/>
<path d="M46.7778 124.869C43.4761 122.088 41.6496 118.836 42.6981 117.604C43.7467 116.373 47.2733 117.629 50.575 120.41C53.8767 123.191 55.7032 126.444 54.6546 127.675C53.606 128.906 50.0795 127.65 46.7778 124.869Z" fill="#B7C0C6"/>
<path d="M28.6621 121.607C25.3604 118.827 23.5339 115.574 24.5824 114.343C25.631 113.111 29.1576 114.367 32.4593 117.148C35.7609 119.929 37.5875 123.182 36.5389 124.413C35.4903 125.645 31.9638 124.388 28.6621 121.607Z" fill="#B7C0C6"/>
<path d="M47.3054 81.6417C41.4644 81.6417 36.7294 76.9326 36.7294 71.1236C36.7294 65.3146 41.4644 60.6055 47.3054 60.6055C53.1463 60.6055 57.8813 65.3146 57.8813 71.1236C57.8813 76.9326 53.1463 81.6417 47.3054 81.6417Z" fill="white"/>
<path d="M50.1375 67.1237C48.3208 66.4234 47.2029 67.8078 47.8993 66.0011C48.5958 64.1943 50.6331 63.2973 52.4498 63.9976C54.2665 64.6979 55.1747 66.7303 54.4782 68.537C53.7818 70.3438 51.9542 67.824 50.1375 67.1237Z" fill="#56626E"/>
<path opacity="0.6" d="M20.6353 45.1733C20.1699 33.7799 30.0434 24.1296 42.6884 23.6188C55.3334 23.1079 65.9614 31.93 66.4267 43.3235C66.8921 54.7169 58.1022 57.3056 45.4572 57.8164C32.8123 58.3272 21.1006 56.5668 20.6353 45.1733Z" fill="#E3E9EE" fill-opacity="0.8"/>
<path d="M65.4708 85.1771C63.445 83.44 66.3234 76.7854 71.8999 70.3138C77.4764 63.8422 83.6392 60.0042 85.665 61.7413C87.6908 63.4785 84.8124 70.133 79.2359 76.6046C73.6594 83.0762 67.4966 86.9143 65.4708 85.1771Z" fill="#B7C0C6"/>
<path d="M9.20105 53.1227C11.7316 52.2754 15.9661 58.1608 18.659 66.268C21.3519 74.3752 21.4836 81.6342 18.953 82.4815C16.4225 83.3288 12.188 77.4434 9.49511 69.3362C6.80217 61.229 6.6705 53.97 9.20105 53.1227Z" fill="#B7C0C6"/>
<path d="M31.996 90.9719C31.714 91.8082 31.7407 92.6662 32.0744 93.497C32.4082 94.3277 33.0425 95.1149 33.9411 95.8135C34.8397 96.5122 35.9851 97.1086 37.3117 97.5687C38.6383 98.0287 40.1201 98.3434 41.6726 98.4949C43.225 98.6463 44.8176 98.6314 46.3594 98.4511C47.9012 98.2708 49.3619 97.9286 50.6581 97.444C51.9543 96.9594 53.0606 96.342 53.9137 95.627C54.7669 94.912 55.3502 94.1134 55.6303 93.2769C56.8117 89.7608 51.3292 91.6084 44.8027 90.9719C38.2763 90.3354 33.1775 87.4557 31.996 90.9719Z" fill="white"/>
<path d="M114.485 78.4261C127.195 78.4261 137.498 68.1793 137.498 55.5392C137.498 42.8992 127.195 32.6523 114.485 32.6523C101.775 32.6523 91.4722 42.8992 91.4722 55.5392C91.4722 68.1793 101.775 78.4261 114.485 78.4261Z" fill="#BFCBD3"/>
<path d="M123.373 84.8557L130.253 83.6172L128.022 71.359L121.142 72.5976L123.373 84.8557Z" fill="#BFCBD3"/>
<path d="M109.615 87.3323L116.494 86.0938L114.263 73.8356L107.383 75.0742L109.615 87.3323Z" fill="#BFCBD3"/>
<path d="M113.266 89.9114C115.722 87.8433 117.08 85.4245 116.3 84.5088C115.521 83.593 112.898 84.5272 110.442 86.5953C107.987 88.6633 106.629 91.0822 107.409 91.9979C108.188 92.9137 110.811 91.9795 113.266 89.9114Z" fill="#BFCBD3"/>
<path d="M126.739 87.4856C129.194 85.4175 130.553 82.9987 129.773 82.083C128.993 81.1672 126.371 82.1014 123.915 84.1695C121.46 86.2375 120.101 88.6564 120.881 89.5722C121.661 90.4879 124.284 89.5537 126.739 87.4856Z" fill="#BFCBD3"/>
<path d="M112.874 57.7653C117.218 57.7653 120.74 54.2632 120.74 49.9432C120.74 45.6232 117.218 42.1211 112.874 42.1211C108.531 42.1211 105.009 45.6232 105.009 49.9432C105.009 54.2632 108.531 57.7653 112.874 57.7653Z" fill="white"/>
<path d="M110.98 45.2099C112.399 44.9191 114.569 46.5642 114.279 45.1535C113.99 43.7428 112.606 42.835 111.187 43.1258C109.769 43.4166 108.854 44.7959 109.143 46.2066C109.432 47.6173 109.562 45.5007 110.98 45.2099Z" fill="#56626E"/>
<path opacity="0.6" d="M132.708 30.6431C133.054 22.17 125.712 14.9932 116.308 14.6134C106.904 14.2335 99.0003 20.7943 98.6542 29.2673C98.3082 37.7404 104.845 39.6656 114.249 40.0455C123.653 40.4254 132.362 39.1161 132.708 30.6431Z" fill="#E3E9EE" fill-opacity="0.8"/>
<path d="M101.398 58.103C102.51 56.4594 99.14 52.2508 93.8699 48.7027C88.5999 45.1547 83.426 43.6108 82.3138 45.2544C81.2015 46.8981 84.572 51.1067 89.842 54.6548C95.112 58.2028 100.286 59.7466 101.398 58.103Z" fill="#BFCBD3"/>
<path d="M148.247 43.1516C147.506 41.3105 142.132 41.7521 136.244 44.1379C130.356 46.5237 126.183 49.9503 126.924 51.7914C127.665 53.6325 133.039 53.1909 138.927 50.8051C144.815 48.4193 148.988 44.9927 148.247 43.1516Z" fill="#BFCBD3"/>
<path d="M127.619 61.0984C127.829 61.7203 126.867 62.9806 126.619 63.5984C126.371 64.2162 123.287 67.645 122.619 68.1646C121.951 68.6842 121.293 69.2664 120.306 69.6086C119.32 69.9507 118.218 70.1848 117.063 70.2974C115.909 70.41 114.724 70.3989 113.578 70.2648C112.431 70.1307 111.345 69.8762 110.381 69.5159C109.417 69.1555 108.594 68.6963 107.96 68.1646C107.325 67.6329 106.891 67.039 106.683 66.4169C105.804 63.802 112.766 67.0718 117.619 66.5984C122.473 66.125 126.74 58.4835 127.619 61.0984Z" fill="white"/>
</svg>
