<svg width="154" height="135" viewBox="0 0 154 135" fill="none" xmlns="http://www.w3.org/2000/svg">
<path d="M84.3951 7.96312C84.3951 7.96312 71.6725 36.5184 38.0272 29.9769C4.38194 23.4354 -15.8893 69.4576 15.9195 86.2383C47.7283 103.019 25.684 122.296 46.8982 132.143C71.0098 143.334 80.001 105.912 97.7642 109.388C136.968 117.059 161.219 103.903 150.496 86.1991C131.673 55.1222 118.006 56.2663 123.56 36.1976C129.114 16.1289 97.7479 -14.6798 84.3951 7.96312Z" fill="#F0F2F4"/>
<path d="M45.139 109.43C28.0488 109.43 14.1945 95.6513 14.1945 78.6546C14.1945 61.658 28.0488 47.8795 45.139 47.8795C62.2292 47.8795 76.0835 61.658 76.0835 78.6546C76.0835 95.6513 62.2292 109.43 45.139 109.43Z" fill="#56626E"/>
<path d="M33.1876 118.071L23.937 116.406L26.9374 99.9228L36.1879 101.588L33.1876 118.071Z" fill="#56626E"/>
<path d="M51.688 121.403L42.4375 119.737L45.4378 103.254L54.6884 104.92L51.688 121.403Z" fill="#56626E"/>
<path d="M46.7778 124.871C43.4761 122.09 41.6496 118.838 42.6981 117.606C43.7467 116.375 47.2733 117.631 50.575 120.412C53.8767 123.193 55.7032 126.445 54.6546 127.677C53.606 128.908 50.0795 127.652 46.7778 124.871Z" fill="#56626E"/>
<path d="M28.6621 121.61C25.3604 118.829 23.5339 115.576 24.5824 114.345C25.631 113.114 29.1576 114.37 32.4593 117.151C35.7609 119.931 37.5875 123.184 36.5389 124.415C35.4903 125.647 31.9638 124.391 28.6621 121.61Z" fill="#56626E"/>
<path d="M47.3054 81.645C41.4644 81.645 36.7294 76.9359 36.7294 71.1269C36.7294 65.3179 41.4644 60.6088 47.3054 60.6088C53.1463 60.6088 57.8813 65.3179 57.8813 71.1269C57.8813 76.9359 53.1463 81.645 47.3054 81.645Z" fill="white"/>
<path d="M50.1375 67.1253C48.3208 66.425 47.2029 67.8093 47.8993 66.0026C48.5958 64.1958 50.6331 63.2989 52.4498 63.9992C54.2665 64.6995 55.1747 66.7318 54.4782 68.5386C53.7818 70.3453 51.9542 67.8255 50.1375 67.1253Z" fill="#909AA4"/>
<path opacity="0.7" d="M20.6353 45.175C20.1699 33.7816 30.0434 24.1313 42.6884 23.6205C55.3334 23.1096 65.9614 31.9317 66.4267 43.3252C66.8921 54.7186 58.1022 57.3073 45.4572 57.8181C32.8123 58.329 21.1006 56.5685 20.6353 45.175Z" fill="#BFCBD3"/>
<path d="M65.4708 85.1805C63.445 83.4434 66.3234 76.7889 71.8999 70.3172C77.4764 63.8456 83.6392 60.0076 85.665 61.7447C87.6908 63.4819 84.8124 70.1364 79.2359 76.608C73.6594 83.0797 67.4966 86.9177 65.4708 85.1805Z" fill="#56626E"/>
<path d="M9.20105 53.1231C11.7316 52.2759 15.9661 58.1612 18.659 66.2684C21.3519 74.3756 21.4836 81.6347 18.953 82.4819C16.4225 83.3292 12.188 77.4439 9.49511 69.3367C6.80218 61.2294 6.6705 53.9704 9.20105 53.1231Z" fill="#56626E"/>
<path d="M31.996 90.9729C31.714 91.8092 31.7407 92.6672 32.0744 93.498C32.4082 94.3287 33.0425 95.1159 33.9411 95.8146C34.8397 96.5132 35.9851 97.1096 37.3117 97.5697C38.6383 98.0298 40.1201 98.3445 41.6726 98.4959C43.225 98.6473 44.8176 98.6324 46.3594 98.4521C47.9012 98.2718 49.3619 97.9296 50.6581 97.445C51.9543 96.9605 53.0606 96.343 53.9137 95.628C54.7669 94.913 55.3502 94.1145 55.6303 93.278C56.8117 89.7618 51.3292 91.6094 44.8027 90.9729C38.2763 90.3364 33.1775 87.4567 31.996 90.9729Z" fill="white"/>
<path d="M114.5 78.0017C126.926 78.0017 137 67.9281 137 55.5017C137 43.0753 126.926 33.0017 114.5 33.0017C102.074 33.0017 92 43.0753 92 55.5017C92 67.9281 102.074 78.0017 114.5 78.0017Z" fill="#909AA4"/>
<path d="M123.373 84.8563L130.253 83.6177L128.022 71.3596L121.142 72.5981L123.373 84.8563Z" fill="#909AA4"/>
<path d="M109.615 87.3336L116.494 86.0951L114.263 73.8369L107.383 75.0755L109.615 87.3336Z" fill="#909AA4"/>
<path d="M113.266 89.913C115.722 87.8449 117.08 85.4261 116.3 84.5104C115.521 83.5946 112.898 84.5288 110.442 86.5968C107.987 88.6649 106.629 91.0838 107.409 91.9995C108.188 92.9152 110.811 91.9811 113.266 89.913Z" fill="#909AA4"/>
<path d="M126.739 87.4877C129.194 85.4196 130.553 83.0008 129.773 82.085C128.993 81.1693 126.371 82.1034 123.915 84.1715C121.46 86.2396 120.101 88.6585 120.881 89.5742C121.661 90.49 124.284 89.5558 126.739 87.4877Z" fill="#909AA4"/>
<path d="M112.874 57.7667C117.218 57.7667 120.74 54.2646 120.74 49.9446C120.74 45.6246 117.218 42.1225 112.874 42.1225C108.531 42.1225 105.009 45.6246 105.009 49.9446C105.009 54.2646 108.531 57.7667 112.874 57.7667Z" fill="white"/>
<path d="M110.98 45.21C112.399 44.9192 114.569 46.5643 114.279 45.1536C113.99 43.7429 112.606 42.8351 111.187 43.1259C109.769 43.4167 108.854 44.796 109.143 46.2067C109.432 47.6174 109.562 45.5008 110.98 45.21Z" fill="#909AA4"/>
<path opacity="0.7" d="M132.708 30.6448C133.054 22.1717 125.712 14.995 116.308 14.6151C106.904 14.2352 99.0003 20.796 98.6542 29.269C98.3082 37.7421 104.845 39.6673 114.249 40.0472C123.653 40.4271 132.362 39.1178 132.708 30.6448Z" fill="#BFCBD3"/>
<path d="M101.524 57.868C102.626 56.2397 99.287 52.0702 94.066 48.5551C88.845 45.0401 83.7192 43.5106 82.6173 45.1389C81.5154 46.7673 84.8545 50.9368 90.0755 54.4518C95.2965 57.9668 100.422 59.4963 101.524 57.868Z" fill="#909AA4"/>
<path d="M147.937 43.0557C147.203 41.2317 141.879 41.6691 136.046 44.0327C130.212 46.3963 126.079 49.7911 126.813 51.6151C127.547 53.4391 132.87 53.0016 138.704 50.638C144.537 48.2743 148.671 44.8797 147.937 43.0557Z" fill="#909AA4"/>
<path d="M127.619 61.0994C127.829 61.7213 126.867 62.9815 126.619 63.5993C126.371 64.2172 123.287 67.646 122.619 68.1656C121.951 68.6851 121.293 69.2674 120.306 69.6096C119.32 69.9517 118.218 70.1858 117.063 70.2984C115.909 70.411 114.724 70.3999 113.578 70.2658C112.431 70.1317 111.345 69.8772 110.381 69.5169C109.417 69.1565 108.594 68.6973 107.96 68.1656C107.325 67.6339 106.891 67.04 106.683 66.4179C105.804 63.803 112.766 67.0727 117.619 66.5994C122.473 66.126 126.74 58.4844 127.619 61.0994Z" fill="white"/>
</svg>
