<svg width="141" height="124" viewBox="0 0 141 124" fill="none" xmlns="http://www.w3.org/2000/svg">
<path d="M77.7738 7.33467C77.7738 7.33467 66.0552 33.6364 35.0652 27.6111C4.07518 21.5859 -14.5962 63.976 14.7022 79.4324C44.0006 94.8888 23.6961 112.645 43.2361 121.714C65.4448 132.022 73.7264 97.5536 90.0878 100.755C126.198 107.82 148.535 95.703 138.658 79.3963C121.32 50.772 108.732 51.8258 113.848 33.3409C118.963 14.8561 90.0728 -13.5213 77.7738 7.33467Z" fill="#192129"/>
<path d="M41.6158 100.794C25.8743 100.794 13.1134 88.1032 13.1134 72.4479C13.1134 56.7926 25.8743 44.1014 41.6158 44.1014C57.3572 44.1014 70.1182 56.7926 70.1182 72.4479C70.1182 88.1032 57.3572 100.794 41.6158 100.794Z" fill="#909AA4"/>
<path d="M30.6074 108.751L22.0869 107.217L24.8505 92.0348L33.371 93.5688L30.6074 108.751Z" fill="#909AA4"/>
<path d="M47.6479 111.82L39.1274 110.286L41.891 95.1039L50.4115 96.6379L47.6479 111.82Z" fill="#909AA4"/>
<path d="M43.1252 115.016C40.0841 112.454 38.4017 109.458 39.3675 108.324C40.3333 107.19 43.5816 108.347 46.6227 110.908C49.6638 113.47 51.3462 116.466 50.3804 117.6C49.4146 118.734 46.1663 117.577 43.1252 115.016Z" fill="#909AA4"/>
<path d="M26.4392 112.011C23.398 109.45 21.7157 106.454 22.6815 105.32C23.6473 104.186 26.8956 105.343 29.9367 107.904C32.9778 110.466 34.6602 113.461 33.6943 114.596C32.7285 115.73 29.4803 114.573 26.4392 112.011Z" fill="#909AA4"/>
<path d="M43.6112 75.1997C38.2312 75.1997 33.8699 70.8622 33.8699 65.5116C33.8699 60.1611 38.2312 55.8236 43.6112 55.8236C48.9912 55.8236 53.3525 60.1611 53.3525 65.5116C53.3525 70.8622 48.9912 75.1997 43.6112 75.1997Z" fill="#F8F8F8"/>
<path d="M46.2197 61.8275C44.5464 61.1824 43.5167 62.4576 44.1582 60.7934C44.7997 59.1292 46.6762 58.3031 48.3496 58.9481C50.0229 59.5931 50.8594 61.4651 50.2179 63.1292C49.5764 64.7934 47.893 62.4725 46.2197 61.8275Z" fill="#B7C0C6"/>
<path opacity="0.7" d="M19.0459 41.6094C18.6173 31.1151 27.7116 22.2264 39.3586 21.7559C51.0056 21.2854 60.7949 29.4112 61.2235 39.9055C61.6521 50.3998 53.556 52.7842 41.9089 53.2547C30.2619 53.7252 19.4745 52.1037 19.0459 41.6094Z" fill="#BFCBD3"/>
<path d="M60.343 78.4561C58.4771 76.856 61.1283 70.7267 66.2647 64.7658C71.4011 58.8049 77.0776 55.2698 78.9435 56.8698C80.8094 58.4699 78.1582 64.5992 73.0218 70.5601C67.8854 76.521 62.2089 80.0562 60.343 78.4561Z" fill="#909AA4"/>
<path d="M8.51409 48.9314C10.8449 48.151 14.7452 53.5719 17.2256 61.0392C19.706 68.5066 19.8273 75.1928 17.4965 75.9732C15.1656 76.7536 11.2654 71.3327 8.78494 63.8654C6.30453 56.398 6.18325 49.7118 8.51409 48.9314Z" fill="#909AA4"/>
<path d="M51.5836 86.3327C51.6352 85.5214 51.4069 84.7644 50.9119 84.1048C50.4169 83.4453 49.6649 82.8961 48.6989 82.4888C47.7328 82.0814 46.5717 81.8238 45.2817 81.7308C43.9918 81.6377 42.5983 81.711 41.181 81.9464C39.7637 82.1817 38.3503 82.5746 37.0216 83.1026C35.6929 83.6306 34.4749 84.2833 33.4372 85.0234C32.3995 85.7635 31.5624 86.5766 30.9738 87.4161C30.3852 88.2556 30.0566 89.1051 30.0069 89.9161C29.7939 93.3261 34.2313 90.3753 40.1896 89.3857C46.1478 88.3962 51.3707 89.7427 51.5836 86.3327Z" fill="#F8F8F8"/>
<path d="M105.489 72.2368C117.196 72.2368 126.686 62.7986 126.686 51.1561C126.686 39.5136 117.196 30.0754 105.489 30.0754C93.7825 30.0754 84.2925 39.5136 84.2925 51.1561C84.2925 62.7986 93.7825 72.2368 105.489 72.2368Z" fill="#B7C0C6"/>
<path d="M113.676 78.159L120.013 77.0182L117.957 65.7274L111.621 66.8682L113.676 78.159Z" fill="#B7C0C6"/>
<path d="M101.003 80.4401L107.34 79.2993L105.284 68.0085L98.9479 69.1494L101.003 80.4401Z" fill="#B7C0C6"/>
<path d="M104.366 82.8156C106.628 80.9108 107.879 78.6828 107.161 77.8394C106.443 76.9959 104.027 77.8563 101.765 79.7612C99.5038 81.6661 98.2527 83.894 98.9709 84.7375C99.6892 85.581 102.105 84.7205 104.366 82.8156Z" fill="#B7C0C6"/>
<path d="M116.776 80.5813C119.038 78.6764 120.289 76.4485 119.57 75.605C118.852 74.7616 116.436 75.622 114.175 77.5269C111.913 79.4317 110.662 81.6597 111.38 82.5032C112.099 83.3467 114.514 82.4862 116.776 80.5813Z" fill="#B7C0C6"/>
<path d="M104.006 53.2065C108.007 53.2065 111.25 49.9808 111.25 46.0017C111.25 42.0226 108.007 38.7969 104.006 38.7969C100.005 38.7969 96.7612 42.0226 96.7612 46.0017C96.7612 49.9808 100.005 53.2065 104.006 53.2065Z" fill="#F8F8F8"/>
<path d="M102.261 41.642C103.567 41.3741 105.566 42.8894 105.3 41.59C105.033 40.2907 103.758 39.4545 102.452 39.7223C101.145 39.9902 100.302 41.2607 100.569 42.56C100.835 43.8594 100.954 41.9098 102.261 41.642Z" fill="#B7C0C6"/>
<path opacity="0.7" d="M122.274 28.2247C122.593 20.4203 115.83 13.81 107.168 13.4601C98.5064 13.1102 91.2263 19.1532 90.9076 26.9576C90.5888 34.762 96.6098 36.5352 105.271 36.8851C113.933 37.235 121.955 36.0291 122.274 28.2247Z" fill="#BFCBD3"/>
<path d="M93.435 53.5176C94.4595 52.0037 91.355 48.1272 86.5009 44.8591C81.6468 41.5911 76.8812 40.1691 75.8567 41.683C74.8322 43.1969 77.9367 47.0734 82.7909 50.3414C87.645 53.6095 92.4105 55.0315 93.435 53.5176Z" fill="#B7C0C6"/>
<path d="M136.586 39.7461C135.904 38.0503 130.954 38.457 125.531 40.6545C120.107 42.852 116.264 46.0082 116.947 47.704C117.629 49.3999 122.579 48.9931 128.002 46.7956C133.425 44.5981 137.269 41.4419 136.586 39.7461Z" fill="#B7C0C6"/>
<path d="M98.2605 64.3203C98.0674 63.7474 98.953 62.5866 99.1816 62.0176C99.4102 61.4485 102.25 58.2903 102.866 57.8117C103.481 57.3331 104.088 56.7968 104.996 56.4817C105.905 56.1665 106.92 55.951 107.983 55.8472C109.047 55.7435 110.138 55.7537 111.194 55.8772C112.25 56.0007 113.251 56.2351 114.138 56.5671C115.026 56.899 115.784 57.3219 116.368 57.8117C116.953 58.3015 117.352 58.8485 117.544 59.4214C118.354 61.83 111.942 58.8183 107.471 59.2543C103.001 59.6903 99.0698 66.7288 98.2605 64.3203Z" fill="#F8F8F8"/>
</svg>
