<svg width="141" height="124" viewBox="0 0 141 124" fill="none" xmlns="http://www.w3.org/2000/svg">
<path d="M77.7738 7.33467C77.7738 7.33467 66.0552 33.6364 35.0652 27.6111C4.07518 21.5859 -14.5962 63.976 14.7022 79.4324C44.0006 94.8888 23.6961 112.645 43.2361 121.714C65.4448 132.022 73.7264 97.5536 90.0878 100.755C126.198 107.82 148.535 95.703 138.658 79.3963C121.32 50.772 108.732 51.8258 113.848 33.3409C118.963 14.8561 90.0728 -13.5213 77.7738 7.33467Z" fill="#F8F8F8"/>
<path d="M41.6153 100.794C25.8739 100.794 13.1129 88.1032 13.1129 72.4479C13.1129 56.7926 25.8739 44.1014 41.6153 44.1014C57.3567 44.1014 70.1177 56.7926 70.1177 72.4479C70.1177 88.1032 57.3567 100.794 41.6153 100.794Z" fill="#909AA4"/>
<path d="M30.6074 108.751L22.0869 107.217L24.8505 92.0347L33.371 93.5687L30.6074 108.751Z" fill="#909AA4"/>
<path d="M47.6479 111.82L39.1274 110.286L41.891 95.1039L50.4115 96.6379L47.6479 111.82Z" fill="#909AA4"/>
<path d="M43.1249 115.016C40.0838 112.454 38.4014 109.459 39.3673 108.324C40.3331 107.19 43.5813 108.347 46.6225 110.909C49.6636 113.47 51.346 116.466 50.3801 117.6C49.4143 118.734 46.1661 117.577 43.1249 115.016Z" fill="#909AA4"/>
<path d="M26.4389 112.011C23.3978 109.45 21.7154 106.454 22.6812 105.32C23.6471 104.186 26.8953 105.343 29.9364 107.904C32.9775 110.466 34.6599 113.461 33.6941 114.596C32.7283 115.73 29.48 114.573 26.4389 112.011Z" fill="#909AA4"/>
<path d="M43.6107 75.1997C38.2307 75.1997 33.8694 70.8622 33.8694 65.5116C33.8694 60.1611 38.2307 55.8236 43.6107 55.8236C48.9907 55.8236 53.3521 60.1611 53.3521 65.5116C53.3521 70.8622 48.9907 75.1997 43.6107 75.1997Z" fill="white"/>
<path d="M46.2197 61.8275C44.5464 61.1825 43.5167 62.4576 44.1582 60.7934C44.7997 59.1293 46.6762 58.3031 48.3496 58.9481C50.0229 59.5931 50.8594 61.4651 50.2179 63.1293C49.5764 64.7934 47.893 62.4725 46.2197 61.8275Z" fill="#B7C0C6"/>
<path opacity="0.7" d="M19.0454 41.6094C18.6168 31.1151 27.7111 22.2264 39.3581 21.7559C51.0052 21.2854 60.7944 29.4112 61.223 39.9055C61.6516 50.3998 53.5555 52.7842 41.9084 53.2547C30.2614 53.7252 19.474 52.1037 19.0454 41.6094Z" fill="#BFCBD3"/>
<path d="M60.3428 78.4561C58.4769 76.8561 61.1281 70.7267 66.2645 64.7658C71.4009 58.8049 77.0773 55.2698 78.9432 56.8699C80.8092 58.4699 78.1579 64.5993 73.0215 70.5602C67.8852 76.5211 62.2087 80.0562 60.3428 78.4561Z" fill="#909AA4"/>
<path d="M8.51385 48.9314C10.8447 48.151 14.745 53.5718 17.2254 61.0392C19.7058 68.5066 19.8271 75.1928 17.4962 75.9732C15.1654 76.7536 11.2651 71.3327 8.7847 63.8653C6.30429 56.3979 6.183 49.7118 8.51385 48.9314Z" fill="#909AA4"/>
<path d="M51.5834 86.3327C51.6349 85.5215 51.4067 84.7644 50.9117 84.1049C50.4167 83.4453 49.6647 82.8962 48.6986 82.4888C47.7326 82.0815 46.5714 81.8239 45.2815 81.7308C43.9915 81.6377 42.5981 81.711 41.1808 81.9464C39.7635 82.1818 38.3501 82.5747 37.0214 83.1026C35.6926 83.6306 34.4746 84.2833 33.4369 85.0234C32.3992 85.7636 31.5621 86.5766 30.9736 87.4161C30.385 88.2556 30.0564 89.1052 30.0066 89.9162C29.7937 93.3261 34.2311 90.3753 40.1893 89.3858C46.1476 88.3962 51.3705 89.7427 51.5834 86.3327Z" fill="white"/>
<path d="M105.489 72.2368C117.195 72.2368 126.685 62.7986 126.685 51.1561C126.685 39.5136 117.195 30.0754 105.489 30.0754C93.7821 30.0754 84.292 39.5136 84.292 51.1561C84.292 62.7986 93.7821 72.2368 105.489 72.2368Z" fill="#B7C0C6"/>
<path d="M113.676 78.159L120.012 77.0182L117.957 65.7274L111.62 66.8682L113.676 78.159Z" fill="#B7C0C6"/>
<path d="M101.003 80.4401L107.339 79.2993L105.284 68.0086L98.9477 69.1494L101.003 80.4401Z" fill="#B7C0C6"/>
<path d="M104.366 82.8157C106.628 80.9108 107.879 78.6829 107.161 77.8394C106.443 76.996 104.027 77.8564 101.765 79.7613C99.5038 81.6661 98.2527 83.8941 98.9709 84.7376C99.6892 85.581 102.105 84.7206 104.366 82.8157Z" fill="#B7C0C6"/>
<path d="M116.776 80.5813C119.037 78.6764 120.288 76.4485 119.57 75.605C118.852 74.7616 116.436 75.622 114.175 77.5269C111.913 79.4317 110.662 81.6597 111.38 82.5032C112.098 83.3467 114.514 82.4862 116.776 80.5813Z" fill="#B7C0C6"/>
<path d="M104.005 53.2065C108.006 53.2065 111.25 49.9808 111.25 46.0017C111.25 42.0226 108.006 38.7969 104.005 38.7969C100.004 38.7969 96.7607 42.0226 96.7607 46.0017C96.7607 49.9808 100.004 53.2065 104.005 53.2065Z" fill="white"/>
<path d="M102.261 41.642C103.567 41.3741 105.566 42.8894 105.3 41.59C105.033 40.2907 103.758 39.4545 102.452 39.7223C101.145 39.9902 100.302 41.2607 100.568 42.56C100.835 43.8594 100.954 41.9098 102.261 41.642Z" fill="#B7C0C6"/>
<path opacity="0.7" d="M122.274 28.2247C122.593 20.4203 115.83 13.81 107.168 13.4601C98.5064 13.1102 91.2263 19.1532 90.9076 26.9576C90.5888 34.762 96.6098 36.5352 105.271 36.8851C113.933 37.235 121.955 36.0291 122.274 28.2247Z" fill="#BFCBD3"/>
<path d="M93.4348 53.5175C94.4593 52.0036 91.3548 48.1271 86.5007 44.8591C81.6465 41.5911 76.881 40.1691 75.8565 41.683C74.832 43.1969 77.9365 47.0734 82.7906 50.3414C87.6447 53.6094 92.4103 55.0314 93.4348 53.5175Z" fill="#B7C0C6"/>
<path d="M136.586 39.7461C135.903 38.0503 130.954 38.457 125.53 40.6545C120.107 42.852 116.264 46.0082 116.946 47.704C117.628 49.3998 122.578 48.9931 128.002 46.7956C133.425 44.5981 137.268 41.4419 136.586 39.7461Z" fill="#B7C0C6"/>
<path d="M98.2603 64.3203C98.0671 63.7474 98.9528 62.5866 99.1814 62.0176C99.41 61.4485 102.25 58.2903 102.866 57.8117C103.481 57.3331 104.087 56.7968 104.996 56.4817C105.905 56.1665 106.92 55.951 107.983 55.8472C109.047 55.7435 110.138 55.7537 111.194 55.8772C112.25 56.0007 113.25 56.2351 114.138 56.5671C115.026 56.899 115.784 57.3219 116.368 57.8117C116.953 58.3015 117.352 58.8485 117.544 59.4214C118.353 61.83 111.942 58.8183 107.471 59.2543C103.001 59.6903 99.0696 66.7288 98.2603 64.3203Z" fill="white"/>
</svg>
