<svg width="66" height="22" viewBox="0 0 66 22" fill="none" xmlns="http://www.w3.org/2000/svg">
<path d="M11.0445 0C4.94692 0 0 4.92698 0 11C0 17.073 4.94692 22 11.0445 22C17.1421 22 22.089 17.073 22.089 11C22.089 4.92698 17.1421 0 11.0445 0ZM5.60959 17.4721L9.4161 3.39209H11.5325L7.72603 17.4721H5.60959ZM17.7637 12.2995L16.6079 13.2307L14.7688 11.1535L12.8527 13.2307L11.6507 12.3507L13.1712 10.0535L10.6644 9.07628L11.1113 7.48512L13.7568 8.1707L13.9777 5.55628H15.4777L15.6986 8.1707L18.2055 7.53628L18.7192 9.07628L16.238 10.0535L17.7637 12.2995Z" fill="#212B36"/>
<path d="M32.9738 9.06558C32.8043 8.46186 32.2752 7.91442 31.2735 7.91442C30.3642 7.91442 29.6759 8.34419 29.681 8.96838C29.6759 9.50047 30.0457 9.82279 30.9858 10.0326L32.5629 10.3702C34.3043 10.7488 35.1519 11.5521 35.1622 12.8619C35.157 14.6065 33.5286 15.7986 31.217 15.7986C28.9516 15.7986 27.5235 14.8009 27.2563 13.1074L29.3779 12.9028C29.5629 13.7316 30.2153 14.1614 31.2118 14.1614C32.2444 14.1614 32.9327 13.6907 32.9327 13.0614C32.9327 12.5395 32.5372 12.1967 31.6896 12.0126L30.1125 11.6851C28.3403 11.3219 27.5081 10.4316 27.5132 9.09117C27.5081 7.39256 29.0235 6.3028 31.2478 6.3028C33.4105 6.3028 34.6639 7.29535 34.9618 8.85582L32.9738 9.06558Z" fill="#212B36"/>
<path d="M35.4292 11.0715C35.4292 8.23193 37.1552 6.29797 39.8008 6.29797C42.0713 6.29797 44.0234 7.71518 44.0234 10.9436V11.6087H37.5867C37.6073 13.1845 38.5371 14.1054 39.9446 14.1054C40.8847 14.1054 41.6039 13.6961 41.8967 12.9184L43.9309 13.1436C43.5456 14.745 42.0662 15.7887 39.9138 15.7887C37.1295 15.7938 35.4292 13.957 35.4292 11.0715ZM41.9378 10.1505C41.9275 8.89704 41.085 7.98635 39.8316 7.98635C38.5319 7.98635 37.6587 8.97379 37.597 10.1505H41.9378Z" fill="#212B36"/>
<path d="M44.5063 6.52825H46.5868V8.08871H46.6947C47.08 7.03988 48.0046 6.40546 49.2426 6.40546C50.4858 6.40546 51.3848 7.04499 51.7392 8.08871H51.8368C52.2478 7.06546 53.27 6.40546 54.6108 6.40546C56.306 6.40546 57.4978 7.49522 57.4978 9.54685V15.7222H55.3146V9.88964C55.3146 8.75383 54.6159 8.23708 53.7375 8.23708C52.6844 8.23708 52.068 8.95336 52.068 9.99197V15.7273H49.931V9.79755C49.931 8.85104 49.2992 8.23708 48.3796 8.23708C47.4396 8.23708 46.6844 9.00453 46.6844 10.1352V15.7273H44.5063V6.52825Z" fill="#212B36"/>
<path d="M58.0322 13.2612C58.0322 11.1891 59.748 10.657 61.5357 10.4625C63.1641 10.2886 63.8216 10.2579 63.8216 9.63371V9.59789C63.8216 8.69231 63.2668 8.18068 62.26 8.18068C61.1966 8.18068 60.5802 8.71789 60.3644 9.3472L58.3302 9.06069C58.8131 7.38255 60.3028 6.52301 62.2446 6.52301C64.0066 6.52301 65.9946 7.25464 65.9946 9.68487V15.8398H63.9038V14.576H63.8319C63.4363 15.3486 62.5682 16.0239 61.1196 16.0239C59.3627 16.0239 58.0322 15.0672 58.0322 13.2612ZM63.8268 12.5398V11.4551C63.5442 11.6802 62.4038 11.8286 61.8285 11.9053C60.8524 12.0435 60.1281 12.3914 60.1281 13.2253C60.1281 14.0235 60.7754 14.4328 61.6846 14.4328C62.9997 14.4328 63.8268 13.563 63.8268 12.5398Z" fill="#212B36"/>
</svg>
