<svg width="66" height="22" viewBox="0 0 66 22" fill="none" xmlns="http://www.w3.org/2000/svg">
<path d="M11.0445 0C4.94692 0 0 4.92698 0 11C0 17.073 4.94692 22 11.0445 22C17.1421 22 22.089 17.073 22.089 11C22.089 4.92698 17.1421 0 11.0445 0ZM5.60959 17.4721L9.4161 3.39209H11.5325L7.72603 17.4721H5.60959ZM17.7637 12.2995L16.6079 13.2307L14.7688 11.1535L12.8527 13.2307L11.6507 12.3507L13.1712 10.0535L10.6644 9.07628L11.1113 7.48512L13.7568 8.1707L13.9777 5.55628H15.4777L15.6986 8.1707L18.2055 7.53628L18.7192 9.07628L16.238 10.0535L17.7637 12.2995Z" fill="#F0F2F4"/>
<path d="M32.9741 9.06558C32.8045 8.46186 32.2754 7.91442 31.2737 7.91442C30.3645 7.91442 29.6761 8.34419 29.6813 8.96838C29.6761 9.50047 30.046 9.82279 30.986 10.0326L32.5631 10.3702C34.3045 10.7488 35.1521 11.5521 35.1624 12.8619C35.1573 14.6065 33.5289 15.7986 31.2172 15.7986C28.9518 15.7986 27.5237 14.8009 27.2566 13.1074L29.3782 12.9028C29.5631 13.7316 30.2155 14.1614 31.2121 14.1614C32.2446 14.1614 32.933 13.6907 32.933 13.0614C32.933 12.5395 32.5374 12.1967 31.6898 12.0126L30.1128 11.6851C28.3405 11.3219 27.5083 10.4316 27.5134 9.09117C27.5083 7.39256 29.0237 6.3028 31.248 6.3028C33.4107 6.3028 34.6641 7.29535 34.9621 8.85582L32.9741 9.06558Z" fill="#F0F2F4"/>
<path d="M35.4294 11.0715C35.4294 8.23193 37.1555 6.29797 39.801 6.29797C42.0716 6.29797 44.0236 7.71518 44.0236 10.9436V11.6087H37.587C37.6075 13.1845 38.5373 14.1054 39.9449 14.1054C40.8849 14.1054 41.6041 13.6961 41.8969 12.9184L43.9312 13.1436C43.5459 14.745 42.0664 15.7887 39.914 15.7887C37.1298 15.7938 35.4294 13.957 35.4294 11.0715ZM41.938 10.1505C41.9277 8.89704 41.0853 7.98635 39.8318 7.98635C38.5322 7.98635 37.6589 8.97379 37.5973 10.1505H41.938Z" fill="#F0F2F4"/>
<path d="M44.5068 6.52825H46.5873V8.08871H46.6952C47.0805 7.03988 48.0051 6.40546 49.2431 6.40546C50.4863 6.40546 51.3853 7.04499 51.7397 8.08871H51.8373C52.2483 7.06546 53.2705 6.40546 54.6113 6.40546C56.3065 6.40546 57.4983 7.49522 57.4983 9.54685V15.7222H55.3151V9.88964C55.3151 8.75383 54.6164 8.23708 53.738 8.23708C52.6849 8.23708 52.0685 8.95336 52.0685 9.99197V15.7273H49.9315V9.79755C49.9315 8.85104 49.2996 8.23708 48.3801 8.23708C47.4401 8.23708 46.6849 9.00453 46.6849 10.1352V15.7273H44.5068V6.52825Z" fill="#F0F2F4"/>
<path d="M58.0322 13.2612C58.0322 11.1891 59.748 10.657 61.5357 10.4625C63.1641 10.2886 63.8216 10.2579 63.8216 9.63371V9.59789C63.8216 8.69231 63.2668 8.18068 62.26 8.18068C61.1966 8.18068 60.5802 8.71789 60.3644 9.3472L58.3302 9.06069C58.8131 7.38255 60.3028 6.52301 62.2446 6.52301C64.0066 6.52301 65.9946 7.25464 65.9946 9.68487V15.8398H63.9038V14.576H63.8319C63.4363 15.3486 62.5682 16.0239 61.1196 16.0239C59.3627 16.0239 58.0322 15.0672 58.0322 13.2612ZM63.8268 12.5398V11.4551C63.5442 11.6802 62.4038 11.8286 61.8285 11.9053C60.8524 12.0435 60.1281 12.3914 60.1281 13.2253C60.1281 14.0235 60.7754 14.4328 61.6846 14.4328C62.9997 14.4328 63.8268 13.563 63.8268 12.5398Z" fill="#F0F2F4"/>
</svg>
