<svg width="66" height="22" viewBox="0 0 66 22" fill="none" xmlns="http://www.w3.org/2000/svg">
<path d="M11.0445 0C4.94692 0 0 4.92698 0 11C0 17.073 4.94692 22 11.0445 22C17.1421 22 22.089 17.073 22.089 11C22.089 4.92698 17.1421 0 11.0445 0ZM5.60959 17.4721L9.4161 3.39209H11.5325L7.72603 17.4721H5.60959ZM17.7637 12.2995L16.6079 13.2307L14.7688 11.1535L12.8527 13.2307L11.6507 12.3507L13.1712 10.0535L10.6644 9.07628L11.1113 7.48512L13.7568 8.1707L13.9777 5.55628H15.4777L15.6986 8.1707L18.2055 7.53628L18.7192 9.07628L16.238 10.0535L17.7637 12.2995Z" fill="#E3E9EE"/>
<path d="M32.9741 9.06552C32.8045 8.4618 32.2754 7.91436 31.2737 7.91436C30.3645 7.91436 29.6761 8.34413 29.6813 8.96831C29.6761 9.50041 30.046 9.82273 30.986 10.0325L32.5631 10.3702C34.3045 10.7488 35.1521 11.552 35.1624 12.8618C35.1573 14.6065 33.5289 15.7985 31.2172 15.7985C28.9518 15.7985 27.5237 14.8009 27.2566 13.1074L29.3782 12.9027C29.5631 13.7316 30.2155 14.1613 31.2121 14.1613C32.2446 14.1613 32.933 13.6906 32.933 13.0613C32.933 12.5395 32.5374 12.1967 31.6898 12.0125L30.1128 11.6851C28.3405 11.3218 27.5083 10.4316 27.5134 9.0911C27.5083 7.3925 29.0237 6.30273 31.248 6.30273C33.4107 6.30273 34.6641 7.29529 34.9621 8.85576L32.9741 9.06552Z" fill="#E3E9EE"/>
<path d="M35.4294 11.0713C35.4294 8.2318 37.1555 6.29785 39.801 6.29785C42.0716 6.29785 44.0236 7.71506 44.0236 10.9434V11.6085H37.587C37.6075 13.1844 38.5373 14.1053 39.9449 14.1053C40.8849 14.1053 41.6041 13.696 41.8969 12.9183L43.9312 13.1434C43.5459 14.7448 42.0664 15.7885 39.914 15.7885C37.1298 15.7937 35.4294 13.9569 35.4294 11.0713ZM41.938 10.1504C41.9277 8.89692 41.0853 7.98622 39.8318 7.98622C38.5322 7.98622 37.6589 8.97367 37.5973 10.1504H41.938Z" fill="#E3E9EE"/>
<path d="M44.5068 6.52806H46.5873V8.08853H46.6952C47.0805 7.03969 48.0051 6.40527 49.2431 6.40527C50.4863 6.40527 51.3853 7.04481 51.7397 8.08853H51.8373C52.2483 7.06527 53.2705 6.40527 54.6113 6.40527C56.3065 6.40527 57.4983 7.49504 57.4983 9.54667V15.722H55.3151V9.88946C55.3151 8.75364 54.6164 8.2369 53.738 8.2369C52.6849 8.2369 52.0685 8.95318 52.0685 9.99178V15.7271H49.9315V9.79736C49.9315 8.85085 49.2996 8.2369 48.3801 8.2369C47.4401 8.2369 46.6849 9.00434 46.6849 10.135V15.7271H44.5068V6.52806Z" fill="#E3E9EE"/>
<path d="M58.0322 13.2611C58.0322 11.189 59.748 10.6569 61.5357 10.4625C63.1641 10.2885 63.8216 10.2578 63.8216 9.63365V9.59783C63.8216 8.69225 63.2668 8.18062 62.26 8.18062C61.1966 8.18062 60.5802 8.71783 60.3644 9.34714L58.3302 9.06062C58.8131 7.38248 60.3028 6.52295 62.2446 6.52295C64.0066 6.52295 65.9946 7.25458 65.9946 9.68481V15.8397H63.9038V14.576H63.8319C63.4363 15.3485 62.5682 16.0239 61.1196 16.0239C59.3627 16.0239 58.0322 15.0671 58.0322 13.2611ZM63.8268 12.5397V11.455C63.5442 11.6802 62.4038 11.8285 61.8285 11.9053C60.8524 12.0434 60.1281 12.3913 60.1281 13.2253C60.1281 14.0234 60.7754 14.4327 61.6846 14.4327C62.9997 14.4327 63.8268 13.563 63.8268 12.5397Z" fill="#E3E9EE"/>
</svg>
