<svg width="16" height="16" viewBox="0 0 16 16" fill="none" xmlns="http://www.w3.org/2000/svg">
<path fill-rule="evenodd" clip-rule="evenodd" d="M1.02037 13H14.9796C15.5323 13 16 12.5168 16 11.9458V4.05417C16 3.46852 15.5465 3 14.9796 3H1.02037C0.453499 3 0 3.46852 0 4.05417V11.9458C0 12.5315 0.453499 13 1.02037 13ZM3 11.75L4.87904 4.25H7.0625L5.16954 11.75H3ZM10.8056 4.75L10.9773 6.88721L12.9176 6.36638L13.3125 7.62356L11.3894 8.41379L12.5742 10.2457L11.6813 11L10.2562 9.31178L8.76236 11L7.83517 10.2816L9.00275 8.41379L7.0625 7.62356L7.40591 6.33046L9.46635 6.88721L9.63805 4.75H10.8056Z" fill="black"/>
</svg>
