<svg width="24" height="24" viewBox="0 0 24 24" fill="none" xmlns="http://www.w3.org/2000/svg">
<path d="M12 2C12.5523 2 13 2.44772 13 3V12.5858L16.2929 9.29289C16.6834 8.90237 17.3166 8.90237 17.7071 9.29289C18.0976 9.68342 18.0976 10.3166 17.7071 10.7071L12.7778 15.6364C12.3482 16.066 11.6518 16.066 11.2222 15.6364L6.29289 10.7071C5.90237 10.3166 5.90237 9.68342 6.29289 9.29289C6.68342 8.90237 7.31658 8.90237 7.70711 9.29289L11 12.5858V3C11 2.44772 11.4477 2 12 2Z" fill="#FFFFFF"/>
<path d="M4.29289 19.7071C4.10536 19.5196 4 19.2652 4 19L4 15C4 14.4477 3.55228 14 3 14C2.44772 14 2 14.4477 2 15V19C2 19.7956 2.31607 20.5587 2.87868 21.1213C3.44129 21.6839 4.20435 22 5 22H19C19.7957 22 20.5587 21.6839 21.1213 21.1213C21.6839 20.5587 22 19.7956 22 19V15C22 14.4477 21.5523 14 21 14C20.4477 14 20 14.4477 20 15V19C20 19.2652 19.8946 19.5196 19.7071 19.7071C19.5196 19.8946 19.2652 20 19 20H5C4.73478 20 4.48043 19.8946 4.29289 19.7071Z" fill="#FFFFFF"/>
</svg>
