<svg width="24" height="24" viewBox="0 0 24 24" fill="none" xmlns="http://www.w3.org/2000/svg">
<g clip-path="url(#clip0_21_245)">
<path d="M13.4042 16.629H9.44197C9.45233 15.6613 9.52484 14.828 9.65951 14.129C9.80453 13.4194 10.048 12.7796 10.3898 12.2097C10.742 11.6398 11.2082 11.0753 11.7883 10.5161C12.2751 10.0645 12.6998 9.63441 13.0624 9.22581C13.425 8.8172 13.7098 8.39785 13.917 7.96774C14.1242 7.52688 14.2278 7.03763 14.2278 6.5C14.2278 5.87634 14.1345 5.36022 13.9481 4.95161C13.772 4.53226 13.5026 4.21505 13.1401 4C12.7879 3.78495 12.3425 3.67742 11.8038 3.67742C11.3584 3.67742 10.944 3.77957 10.5607 3.98387C10.1775 4.17742 9.86151 4.47849 9.6129 4.8871C9.37464 5.2957 9.25033 5.83333 9.23998 6.5H4.73387C4.76495 5.02688 5.09125 3.81183 5.71278 2.85484C6.34467 1.8871 7.18892 1.17204 8.24553 0.709677C9.30213 0.236559 10.4882 0 11.8038 0C13.254 0 14.4971 0.247312 15.533 0.741935C16.5689 1.22581 17.3613 1.94086 17.9103 2.8871C18.4594 3.82258 18.7339 4.96237 18.7339 6.30645C18.7339 7.24194 18.5578 8.07527 18.2056 8.80645C17.8534 9.52688 17.3924 10.1989 16.8227 10.8226C16.2529 11.4462 15.6262 12.0914 14.9425 12.7581C14.3521 13.3065 13.9481 13.8817 13.7305 14.4839C13.5234 15.086 13.4146 15.8011 13.4042 16.629ZM8.97582 21.6129C8.97582 20.9247 9.20372 20.3548 9.65951 19.9032C10.1153 19.4409 10.7265 19.2097 11.493 19.2097C12.2492 19.2097 12.8552 19.4409 13.311 19.9032C13.7772 20.3548 14.0102 20.9247 14.0102 21.6129C14.0102 22.2796 13.7772 22.8441 13.311 23.3065C12.8552 23.7688 12.2492 24 11.493 24C10.7265 24 10.1153 23.7688 9.65951 23.3065C9.20372 22.8441 8.97582 22.2796 8.97582 21.6129Z" fill="#DE3617"/>
</g>
<defs>
<clipPath id="clip0_21_245">
<rect width="24" height="24" fill="white"/>
</clipPath>
</defs>
</svg>
