<svg width="106" height="123" viewBox="0 0 106 123" fill="none" xmlns="http://www.w3.org/2000/svg">
<path d="M47.5698 98.6351C68.0753 98.6351 84.6983 82.0287 84.6983 61.5437C84.6983 41.0586 68.0753 24.4521 47.5698 24.4521C27.0642 24.4521 10.4412 41.0586 10.4412 61.5437C10.4412 82.0287 27.0642 98.6351 47.5698 98.6351Z" fill="#2F2E41"/>
<path d="M50.7382 91.0247L39.9563 94.335L45.8931 113.633L56.675 110.323L50.7382 91.0247Z" fill="#2F2E41"/>
<path d="M72.302 84.4047L61.52 87.7148L67.4567 107.013L78.2386 103.703L72.302 84.4047Z" fill="#2F2E41"/>
<path d="M55.9829 114.464C60.9451 112.94 64.5042 110.198 63.9323 108.339C63.3604 106.48 58.8742 106.208 53.9119 107.732C48.9497 109.255 45.3906 111.997 45.9625 113.856C46.5344 115.715 51.0206 115.987 55.9829 114.464Z" fill="#2F2E41"/>
<path d="M77.408 107.395C82.3702 105.871 85.9293 103.129 85.3574 101.27C84.7855 99.4113 80.2992 99.1394 75.337 100.663C70.3747 102.186 66.8157 104.928 67.3875 106.787C67.9594 108.646 72.4457 108.918 77.408 107.395Z" fill="#2F2E41"/>
<path d="M45.7071 64.9679C52.7153 64.9679 58.3966 59.2923 58.3966 52.2911C58.3966 45.2899 52.7153 39.6143 45.7071 39.6143C38.6989 39.6143 33.0176 45.2899 33.0176 52.2911C33.0176 59.2923 38.6989 64.9679 45.7071 64.9679Z" fill="white"/>
<path d="M45.7076 56.5171C48.0437 56.5171 49.9375 54.6253 49.9375 52.2915C49.9375 49.9578 48.0437 48.0659 45.7076 48.0659C43.3715 48.0659 41.4778 49.9578 41.4778 52.2915C41.4778 54.6253 43.3715 56.5171 45.7076 56.5171Z" fill="#3F3D56"/>
<path d="M3.00007 39.1407C-3.80977 27.1995 1.36528 11.4319 14.5589 3.92294C27.7525 -3.58606 43.9685 0.00696897 50.7783 11.9482C57.5882 23.8894 49.6547 31.5003 36.4611 39.0093C23.2675 46.5183 9.80991 51.0819 3.00007 39.1407Z" fill="#0081A7" fill-opacity="0.7"/>
<path d="M105.428 87.7999C105.428 113.659 90.0412 122.688 71.0585 122.688C70.6188 122.688 70.1797 122.683 69.7414 122.673C68.8618 122.654 67.9907 122.612 67.13 122.554C49.9986 121.342 36.6887 111.849 36.6887 87.7999C36.6887 62.9118 68.5247 31.5071 70.9161 29.183L70.9203 29.1788C71.0125 29.0889 71.0585 29.0449 71.0585 29.0449C71.0585 29.0449 105.428 61.9411 105.428 87.7999Z" fill="#0081A7"/>
<path d="M69.8055 118.732L82.3761 101.184L69.7741 120.658L69.7406 122.673C68.8611 122.654 67.9899 122.612 67.1293 122.554L68.4841 96.6823L68.4737 96.4815L68.4967 96.4438L68.6244 94.0004L55.991 74.4782L68.6642 92.1679L68.6936 92.6867L69.7176 73.1394L58.9018 52.9665L69.8495 69.7085L70.9154 29.183L70.9195 29.0449V29.1788L70.7416 61.1357L81.5092 48.4667L70.6976 63.8887L70.4128 81.3901L80.4664 64.5937L70.3709 83.9653L70.2118 93.695L84.8073 70.3173L70.1573 97.0903L69.8055 118.732Z" fill="#3F3D56"/>
<path d="M49.928 83.7467C51.3073 80.8414 44.9157 74.9281 35.652 70.5389C26.3884 66.1496 17.7605 64.9466 16.3812 67.8519C15.0019 70.7571 21.3935 76.6705 30.6572 81.0597C39.9209 85.4489 48.5487 86.6519 49.928 83.7467Z" fill="#2F2E41"/>
</svg>
