<svg width="79" height="71" viewBox="0 0 79 71" fill="none" xmlns="http://www.w3.org/2000/svg">
<path d="M65.8478 47.4557C65.8502 53.8802 63.5182 60.0868 59.2855 64.9208C58.9064 65.3565 58.5086 65.7733 58.1046 66.1837H20.5248C20.1205 65.7733 19.7223 65.3565 19.3436 64.9208C16.8609 62.0924 15.0111 58.7663 13.918 55.1653C13.918 55.1653 13.9245 55.1653 13.918 55.159C13.1622 52.6611 12.7792 50.0654 12.7813 47.4557C12.7795 46.3813 12.8449 45.3079 12.9771 44.2417C13.7629 37.8177 16.8707 31.9024 21.7153 27.6096C26.5599 23.3168 32.8071 20.9426 39.2808 20.9341C45.7544 20.9256 52.0079 23.2832 56.8638 27.5632C61.7197 31.8432 64.843 37.7503 65.6458 44.1722C65.7803 45.2615 65.8478 46.3581 65.8478 47.4557Z" fill="#2F2E41"/>
<path d="M37.4555 50.0346C42.4641 50.0346 46.5243 45.9755 46.5243 40.9682C46.5243 35.961 42.4641 31.9019 37.4555 31.9019C32.447 31.9019 28.3867 35.961 28.3867 40.9682C28.3867 45.9755 32.447 50.0346 37.4555 50.0346Z" fill="white"/>
<path d="M36.5038 44.9129C37.6796 43.7374 37.6728 41.8249 36.4887 40.6411C35.3046 39.4574 33.3916 39.4506 32.2158 40.6261C31.0401 41.8015 31.0468 43.714 32.2309 44.8978C33.415 46.0816 35.328 46.0883 36.5038 44.9129Z" fill="#3F3D56"/>
<path d="M60.2458 18.5978C60.6448 8.77689 52.1784 0.458499 41.3354 0.0181953C30.4924 -0.422109 21.379 7.18233 20.98 17.0032C20.5809 26.8241 28.1182 29.0555 38.9611 29.4958C49.8041 29.9362 59.8468 28.4187 60.2458 18.5978Z" fill="#0081A7"/>
<path d="M46.6014 57.9112C46.7436 58.6922 46.7306 59.4934 46.563 60.2693C46.3955 61.0452 46.0767 61.7804 45.6249 62.4331C45.1731 63.0858 44.5972 63.6432 43.93 64.0734C43.2627 64.5036 42.5172 64.7981 41.7361 64.9403C40.955 65.0825 40.1535 65.0694 39.3774 64.9019C38.6013 64.7344 37.8659 64.4157 37.213 63.9641C36.5601 63.5124 36.0026 62.9366 35.5723 62.2695C35.142 61.6025 34.8473 60.8572 34.7051 60.0763L34.703 60.0646C34.1082 56.7799 36.6486 55.6175 39.9342 55.0229C43.2199 54.4282 46.0067 54.6265 46.6014 57.9112Z" fill="white"/>
<path d="M75.5414 67.6618C77.2868 66.1639 74.8325 60.4438 70.0597 54.8856C65.2868 49.3274 60.0028 46.0359 58.2574 47.5338C56.5121 49.0318 58.9663 54.7519 63.7392 60.3101C68.512 65.8683 73.796 69.1598 75.5414 67.6618Z" fill="#2F2E41"/>
<path d="M14.9625 60.3102C19.7353 54.752 22.1896 49.0319 20.4442 47.534C18.6989 46.036 13.4148 49.3275 8.64199 54.8857C3.86915 60.4439 1.41489 66.164 3.16025 67.662C4.90561 69.1599 10.1897 65.8684 14.9625 60.3102Z" fill="#2F2E41"/>
</svg>
