<svg width="67" height="83" viewBox="0 0 67 83" fill="none" xmlns="http://www.w3.org/2000/svg">
<path d="M26.987 26.2376C17.0933 13.183 10.5691 17.9247 20.4717 30.9729C30.3651 44.0271 36.8893 39.2854 26.987 26.2376Z" fill="#2F2E41"/>
<path d="M65.7455 41.6324C59.7839 8.631 10.3423 16.6244 15.1728 49.8042C21.1343 82.8046 70.5759 74.8112 65.7455 41.6324Z" fill="#2F2E41"/>
<path d="M43.8747 65.7798H52.4141V80.2927H43.8747V65.7798Z" fill="#2F2E41"/>
<path d="M28.5041 65.7798H36.1895V80.2927H28.5041V65.7798Z" fill="#2F2E41"/>
<path d="M46.156 77.8785C37.6167 77.8156 37.6166 83.0629 46.1564 82.9996C54.6953 83.0625 54.6954 77.8152 46.156 77.8785Z" fill="#2F2E41"/>
<path d="M30.2119 77.8785C22.2419 77.8156 22.2418 83.0629 30.2122 82.9996C38.1819 83.0625 38.182 77.8152 30.2119 77.8785Z" fill="#2F2E41"/>
<path d="M64.7939 22.5506C69.5738 0.0810289 32.9596 -8.34427 28.0194 14.0856C25.9653 23.57 32.6953 27.0685 42.8503 29.4064C53.0052 31.7442 62.7396 32.0362 64.7939 22.5506Z" fill="#0081A7"/>
<path d="M1.14467 32.4784C-2.20949 36.5662 19.8526 50.667 22.4537 46.097C25.8075 42.0098 3.7454 27.909 1.14467 32.4784Z" fill="#2F2E41"/>
</svg>
