<svg width="24" height="24" viewBox="0 0 24 24" fill="none" xmlns="http://www.w3.org/2000/svg">
<g clip-path="url(#clip0_21_243)">
<path d="M23.9786 5.51687C23.9786 11.4125 23.9571 17.3293 24 23.225C24 23.8612 23.8714 24.0521 23.2287 23.9885C22.6287 23.9248 22.0074 23.9672 21.4074 23.9672C21.4931 23.2886 22.1145 23.0553 22.5644 22.6948C23.6786 21.7617 23.7643 21.2103 22.693 20.1923C20.5289 18.114 18.5792 15.8236 16.4365 13.7241C15.7295 13.0455 15.001 12.3668 14.6581 11.4125C14.6796 11.1792 14.8081 11.0096 14.9581 10.8611C15.0652 10.7551 15.2152 10.7127 15.3009 10.6066C16.3508 9.12212 17.8292 8.74039 19.5648 9.03729C19.6719 9.03729 19.7576 9.03729 19.8647 9.03729C20.1647 9.0585 20.4432 8.99487 20.7004 8.84642C21.9645 8.33745 22.7787 7.40433 23.3144 6.19551C23.4215 5.94102 23.5072 5.66533 23.7215 5.47446C23.8072 5.43205 23.8929 5.45325 23.9786 5.51687Z" fill="white"/>
<path d="M14.9557 11.4944C16.6698 13.6151 18.7053 15.4602 20.548 17.4537C21.3836 18.3656 22.2621 19.2351 23.1191 20.1258C24.2119 21.271 24.1904 21.7588 22.9263 22.7979C22.5483 23.1186 22.1551 23.4394 21.7722 23.7601C21.6316 23.8778 21.4544 23.9431 21.271 23.9431C21.0434 23.9431 20.8274 23.843 20.6804 23.6693C18.2079 20.7504 15.7355 17.8502 13.263 14.93C13.0273 14.6543 12.7917 14.421 12.556 14.1665C11.5489 13.4243 10.799 12.4912 10.2419 11.4096C10.0062 11.0703 9.77056 10.7309 9.53487 10.3916C10.0919 9.45851 10.0919 8.2709 10.8419 7.42261C11.4418 7.99521 12.0203 8.5678 12.6203 9.1404C13.5844 9.75541 14.3986 10.5189 14.9557 11.4944Z" fill="#212B36"/>
<path d="M11.7418 15.0785C9.74912 17.3265 7.88503 19.6805 6.02095 22.0345C4.45683 24.0068 2.33563 24.0492 1.17861 22.183C0.492965 21.0802 0.535818 19.9986 1.52143 19.1079C3.44979 17.3689 5.42101 15.7147 7.39223 14.0394C7.97074 13.5304 8.57068 13.0214 9.14919 12.5124C10.4562 12.1943 11.7632 13.488 11.7418 15.0785Z" fill="#82AEC0"/>
<path d="M23.5262 4.26269C23.8419 4.18458 23.9548 4.62858 23.9548 4.95379C23.9548 5.04214 23.9548 5.12988 23.9548 5.2167C23.9548 5.41407 23.9319 5.61135 23.8754 5.80045C23.4172 7.33218 22.5094 8.4798 20.9551 9.11917C20.8979 9.14269 20.7179 9.23658 20.5718 9.25198L19.95 9.33814L19.9208 9.34208C19.3939 9.41319 18.843 9.47672 18.3609 9.25253C17.9534 9.06303 17.5057 8.73345 16.9912 8.24966C15.7056 7.06205 14.5265 6.6828 14.4408 4.9438C14.4194 4.62569 14.3486 4.38555 14.5278 3.67597C14.635 3.25182 15.0628 2.20558 15.3842 1.88747C15.4699 1.80264 15.5556 1.80265 15.6414 1.86627C15.9842 2.50249 16.2627 2.01471 16.5198 1.80264C17.3555 1.03918 18.2982 0.508997 19.4338 0.360546C19.8195 0.360546 19.9306 0.0194172 20.6402 0.210975C20.8759 0.274597 21.0622 0.318128 21.2765 0.402957C21.8335 0.636238 21.9193 0.911933 21.3407 1.25125C20.7837 1.56936 20.248 1.88747 19.6909 2.20558C18.5125 2.90542 18.3625 3.37198 19.0053 4.5808C19.2838 5.11098 19.6052 5.61996 20.2909 5.70479C21.6836 5.93807 22.562 5.00495 23.5262 4.26269Z" fill="#82AEC0"/>
<path d="M3.59978 5.32305C3.66406 4.36872 4.47826 3.96578 5.07819 3.39319C5.42101 3.7325 5.80668 3.90216 6.27806 3.62647C7.45651 2.99025 8.42069 2.05713 9.49201 1.20884C9.21346 1.12401 8.95635 1.29366 8.72066 1.20884C8.57068 1.14521 8.46354 1.06038 8.52782 0.869517C10.1776 -0.0636054 11.956 0.275714 13.9058 0.169678C13.413 0.827105 12.8345 0.933141 12.406 1.23004C11.9132 1.56936 11.3561 1.80264 10.8419 2.14196C9.44915 3.05387 9.42773 3.1387 10.1991 4.5808C10.5847 5.28064 10.5205 5.91686 10.1562 6.57429C9.53486 7.38016 8.74209 7.97397 7.86361 8.46174C7.49936 8.58898 7.24225 8.9495 6.7923 8.88588C5.9781 7.4862 4.67109 6.51066 3.59978 5.32305Z" fill="#909AA4"/>
<path d="M14.4881 3.79133C14.6112 3.30253 15.1095 3.14514 15.1485 3.64769C15.4057 6.74396 16.4341 8.05881 19.3909 9.01314C19.6768 9.10744 19.575 9.40243 19.2757 9.43422C19.088 9.45416 18.9087 9.45752 18.781 9.40892C17.3454 8.87874 16.6484 9.62816 15.8556 10.6461C14.8555 11.8835 14.4523 11.6586 15.3296 10.3312C15.4225 10.1907 15.4956 10.0846 15.5342 10.0311C16.0484 9.33126 15.8985 8.82228 15.1914 8.37692C15.0904 8.31446 14.9303 8.23847 14.7573 8.14826C14.0114 7.75924 14.9671 7.11707 14.6986 6.31982C14.3885 5.47992 14.2773 4.62772 14.4881 3.79133Z" fill="#5D8696"/>
<path d="M0.000152588 7.86789C0.342973 7.57099 0.685795 7.27409 1.00719 6.99839C1.1786 6.91356 1.28573 7.0196 1.39286 7.14685C1.54285 7.35892 1.6714 7.61341 1.90709 7.78306C2.18563 7.97393 2.46418 8.27083 2.82842 8.07997C3.19267 7.8891 2.95698 7.52858 2.97841 7.23167C2.97841 7.08322 3.02126 6.93477 3.14982 6.82874C3.23552 6.82874 3.25804 6.84201 3.34375 6.86322C4.00797 7.45703 4.77822 7.97393 5.03533 8.88584C5.50671 10.4976 5.421 10.7097 3.96402 11.6216C3.55692 11.4519 3.47121 11.049 3.27837 10.7309C2.46417 9.43723 1.39286 8.48291 0.000152588 7.86789Z" fill="#909AA4"/>
<path d="M14.5272 7.42261C14.6772 7.82555 15.0629 7.95279 15.3628 8.16486C16.3913 8.86471 16.4341 9.1404 15.7056 10.1796C15.5128 10.4765 15.3414 10.7734 15.1486 11.0491C15.0843 11.1975 15.02 11.346 14.9557 11.4944C14.0772 10.8158 13.3273 9.98869 12.6203 9.1404C13.263 8.5678 13.8844 7.99521 14.5272 7.42261Z" fill="#82AEC0"/>
<path d="M0.000162703 7.86792C1.13576 7.69826 1.71427 8.58897 2.39991 9.18277C3.1284 9.81899 3.72834 10.6249 3.98545 11.6004C3.81404 11.7701 3.64263 11.9397 3.34266 11.8761C2.07851 11.664 -0.0212636 9.16156 0.000162703 7.86792Z" fill="#56626E"/>
<path d="M7.86362 8.46167C8.52783 7.71941 9.25632 7.04078 10.1562 6.57422C10.3919 6.87112 10.6276 7.14682 10.8633 7.44372C10.4776 8.46167 10.5848 9.67049 9.55629 10.4127C8.99921 9.75532 8.4207 9.1191 7.86362 8.46167Z" fill="#192129"/>
<path d="M5.03535 8.86484C4.49969 8.16499 3.67876 7.71554 3.33594 6.86725C3.91445 6.42189 3.49265 5.81098 3.59978 5.302C5.01392 6.19271 6.27807 7.21066 6.7923 8.88604C6.21379 8.88604 5.63528 8.35586 5.03535 8.86484Z" fill="#56626E"/>
<path d="M11.7418 15.0786C11.4632 14.4211 11.2704 13.7425 10.6704 13.2335C10.1991 12.8306 9.77055 12.4913 9.14919 12.5125C9.51343 12.152 9.8991 11.7914 10.2634 11.4309C11.1204 12.2792 11.8917 13.1911 12.5774 14.1879C12.2988 14.4848 12.0203 14.7817 11.7418 15.0786Z" fill="#56626E"/>
<path d="M1.22146 7.2106C1.15718 7.14698 1.07147 7.06215 1.00719 6.99852C1.64998 6.0654 2.3999 6.3411 3.17125 6.82887C3.17125 6.95611 3.14982 7.10456 3.14982 7.23181C2.50703 7.18939 1.86425 7.08335 1.22146 7.2106Z" fill="#E3E9EE"/>
<path d="M6.36377 2.35889C9.23627 0.118663 9.74405 0.412026 9.80833 0.475648C9.86748 0.587683 9.86234 0.825577 9.80833 0.96875C9.40247 2.04466 5.73974 3.72629 6.36377 3.83859C5.80669 4.05066 5.18533 4.43239 5.07819 3.39323C5.35674 3.15995 6.08523 2.57097 6.36377 2.35889Z" fill="#E3E9EE"/>
<path d="M8.80637 14.4636C7.54222 15.7148 6.44948 16.8388 5.31389 17.878C4.90679 18.2597 4.07116 18.6414 3.81405 18.3021C3.49265 17.878 4.264 17.4962 4.62824 17.1781C5.39959 16.4571 6.23522 15.7997 7.07084 15.1422C7.47794 14.8241 7.88504 14.3576 8.80637 14.4636Z" fill="#CDEEF9"/>
<path d="M4.69251 20.6773C4.64966 21.3135 4.26399 21.7165 3.68548 21.6953C3.10697 21.6953 2.69987 21.3135 2.69987 20.6773C2.69987 20.0411 3.06412 19.7018 3.68548 19.7018C4.34969 19.7018 4.64966 20.0835 4.69251 20.6773Z" fill="#FEFEFE"/>
<path d="M6.43699 4.15067C6.25299 4.25676 6.0571 4.29105 5.84473 4.28791C5.39435 4.28124 5.21305 3.8438 5.52363 3.51757C5.74696 3.28298 6.00205 3.07015 6.1495 2.96911C6.94851 2.37597 7.74752 1.78284 8.54653 1.20689C8.66048 1.12475 8.78085 1.08052 8.91714 1.04655C9.47948 0.906376 9.62683 1.40251 9.20663 1.80163C8.32819 2.63602 7.41193 3.58855 6.43699 4.15067Z" fill="#BFCBD3"/>
<path d="M1.22146 7.21039C1.86425 6.57418 2.50703 6.80746 3.1284 7.21039C3.34266 7.59213 3.5355 7.99507 3.10697 8.33439C2.67845 8.6525 2.33563 8.3768 1.97138 8.12231C1.64998 7.88903 1.24288 7.71937 1.22146 7.21039Z" fill="#BFCBD3"/>
<path d="M20.2656 0.148438C18.4375 0.179688 16.2109 1.01562 15.3828 1.88281C14.5879 2.71523 19.3516 1.95312 20.2656 0.148438Z" fill="#5D8596"/>
</g>
<defs>
<clipPath id="clip0_21_243">
<rect width="24" height="24" fill="white"/>
</clipPath>
</defs>
</svg>
